<svg xmlns="http://www.w3.org/2000/svg" xmlns:xlink="http://www.w3.org/1999/xlink" width="50" height="50" viewBox="0 0 50 50"><defs><clipPath id="a"><path d="M2979.748,921.355a2.407,2.407,0,0,0-2.321,1.77L2975.4,930.5q-1.587.205-3.179.461a1.716,1.716,0,0,0-1.436,1.79c.13,2.325.379,6.754.53,9.427a2.341,2.341,0,0,0,2.337,2.21h29.12a2.341,2.341,0,0,0,2.337-2.21c.151-2.675.4-7.107.532-9.431a1.718,1.718,0,0,0-1.432-1.791q-1.593-.261-3.188-.469L2999,923.125a2.406,2.406,0,0,0-2.321-1.77Z" transform="translate(-2970.783 -921.355)" fill="none"/></clipPath><clipPath id="c"><rect width="50" height="50"/></clipPath></defs><g id="b" clip-path="url(#c)"><path d="M2971.41,859.1a1.963,1.963,0,0,1,.988-1.7l12.837-7.343a6.76,6.76,0,0,1,6.776.036l12.846,7.533a1.964,1.964,0,0,1,.97,1.673c0,.3.006.641.009.991.007,1.119.006,2.341-.03,2.722-1.192,12.922-12.116,23.712-17.173,23.712-5.649-.109-16.114-10.922-17.19-23.849-.029-.344-.036-1.507-.037-2.615,0-.409,0-.811,0-1.161" transform="translate(-2964.24 -847.969)" fill="#fff" fill-rule="evenodd"/><line x2="1.604" y2="0.941" transform="translate(28.356 6.523)" fill="none" stroke="#565271" stroke-linejoin="round" stroke-width="1"/><path d="M3054.94,873.042l6.319,3.706a1.744,1.744,0,0,1,.869,1.5,23.678,23.678,0,0,1-1.254,8.276" transform="translate(-3024.148 -865.09)" fill="none" stroke="#565271" stroke-linejoin="round" stroke-width="1"/><path d="M2985.368,879.127a22.628,22.628,0,0,1-1.159-5.444c-.023-.272-.028-1.191-.028-2.067,0-.278,0-.551,0-.8a1.758,1.758,0,0,1,.885-1.52l11.177-6.394" transform="translate(-2973.4 -857.82)" fill="none" stroke="#565271" stroke-linejoin="round" stroke-width="1"/><path d="M2974.511,873.6a29.95,29.95,0,0,1-3.067-10.725c-.029-.344-.036-1.507-.037-2.615,0-.409,0-.811,0-1.161a1.963,1.963,0,0,1,.988-1.7l12.837-7.343a6.76,6.76,0,0,1,6.776.036l2.26,1.326" transform="translate(-2964.24 -847.969)" fill="none" stroke="#565271" stroke-linejoin="round" stroke-width="1"/><path d="M3024.406,862.376l1.146-.659a.721.721,0,0,1,1.081.626v11.113" transform="translate(-3002.25 -856.9)" fill="none" stroke="#565271" stroke-linejoin="round" stroke-width="1"/><line x2="1.468" y2="0.861" transform="translate(33.797 5.663)" fill="none" stroke="#565271" stroke-linejoin="round" stroke-width="1"/><path d="M3074.506,870.191l4.292,2.517a1.963,1.963,0,0,1,.97,1.673c0,.3.006.641.009.991.007,1.119.006,2.341-.029,2.722a29.494,29.494,0,0,1-3.154,10.577" transform="translate(-3038.181 -863.046)" fill="none" stroke="#565271" stroke-linejoin="round" stroke-width="1"/><path d="M2963.745,985.922v1.64a1.307,1.307,0,0,0,1.308,1.307h5.037a1.308,1.308,0,0,0,1.307-1.307v-9.487a1.308,1.308,0,0,0-1.307-1.307h-5.037a1.307,1.307,0,0,0-1.308,1.307v6.056" transform="translate(-2958.745 -939.48)" fill="#149ade" fill-rule="evenodd"/><path d="M3079.895,978.075a1.307,1.307,0,0,0-1.308-1.307h-5.737a1.307,1.307,0,0,0-1.308,1.307v9.487a1.307,1.307,0,0,0,1.308,1.308h5.737a1.307,1.307,0,0,0,1.308-1.308Z" transform="translate(-3036.055 -939.48)" fill="#149ade" fill-rule="evenodd"/><path d="M2975.4,930.5l2.025-7.377a2.407,2.407,0,0,1,2.321-1.77h16.932a2.406,2.406,0,0,1,2.321,1.77l2.022,7.366q1.594.208,3.188.469a1.718,1.718,0,0,1,1.432,1.79c-.131,2.324-.381,6.757-.532,9.432a2.341,2.341,0,0,1-2.337,2.21h-29.12a2.341,2.341,0,0,1-2.337-2.21c-.151-2.673-.4-7.1-.53-9.427a1.716,1.716,0,0,1,1.436-1.79q1.591-.256,3.179-.462" transform="translate(-2963.793 -899.74)" fill="#fff" fill-rule="evenodd"/><g transform="translate(6.99 21.615)"><g transform="translate(0 0)" clip-path="url(#a)"><path d="M2978.081,965.088a3.009,3.009,0,0,0-3.009-3.009h-4.289v4.154h6.616a.682.682,0,0,0,.682-.682Z" transform="translate(-2970.783 -950.561)" fill="#149ade" fill-rule="evenodd"/><path d="M3021.421,985.257a.987.987,0,0,0-.987-.987h-12.345a.987.987,0,0,0-.986.987v4.007h14.319Z" transform="translate(-2996.831 -966.476)" fill="#76b740" fill-rule="evenodd"/><path d="M3068.74,965.088a3.009,3.009,0,0,1,3.009-3.009h4.289v4.154h-6.615a.682.682,0,0,1-.683-.682Z" transform="translate(-3041.035 -950.561)" fill="#149ade" fill-rule="evenodd"/></g></g><path d="M2976,928.311l1.424-5.186a2.407,2.407,0,0,1,2.321-1.77h16.932a2.406,2.406,0,0,1,2.321,1.77l2.022,7.366q1.594.208,3.188.469a1.718,1.718,0,0,1,1.432,1.79c-.131,2.324-.381,6.757-.532,9.432a2.341,2.341,0,0,1-2.337,2.21h-29.12a2.341,2.341,0,0,1-2.337-2.21c-.151-2.673-.4-7.1-.53-9.427a1.716,1.716,0,0,1,1.436-1.79q1.591-.256,3.179-.462" transform="translate(-2963.793 -899.74)" fill="none" stroke="#565271" stroke-linejoin="round" stroke-width="1"/><path d="M3016.869,934.148a.718.718,0,0,1-.7.9H2997.4a.719.719,0,0,1-.7-.9c.352-1.379,1.022-4,1.362-5.335a1.094,1.094,0,0,1,1.061-.824h15.322a1.1,1.1,0,0,1,1.061.824l1.362,5.335" transform="translate(-2982.364 -904.498)" fill="#149ade" fill-rule="evenodd"/><path d="M2977.967,964.986h0a2.906,2.906,0,0,0-2.906-2.906h-4.352" transform="translate(-2963.739 -928.946)" fill="none" stroke="#565271" stroke-linejoin="round" stroke-width="1"/><path d="M3068.68,964.986h0a2.906,2.906,0,0,1,2.906-2.906h4.352" transform="translate(-3034.002 -928.946)" fill="none" stroke="#565271" stroke-linejoin="round" stroke-width="1"/><line x2="14.319" transform="translate(17.188 34.97)" fill="none" stroke="#565271" stroke-linejoin="round" stroke-width="1"/><line x2="4.055" transform="translate(22.395 39.583)" fill="none" stroke="#565271" stroke-linejoin="round" stroke-width="1"/></g></svg>