<?xml version="1.0" encoding="UTF-8"?>
<svg width="123px" height="49px" viewBox="0 0 123 49" version="1.1" xmlns="http://www.w3.org/2000/svg" xmlns:xlink="http://www.w3.org/1999/xlink">
    <title>chat-icon-web-ar</title>
    <defs>
        <rect id="path-1" x="0" y="0" width="123" height="49"></rect>
    </defs>
    <g id="Page-1" stroke="none" stroke-width="1" fill="none" fill-rule="evenodd">
        <g id="chat-icon-web-ar">
            <mask id="mask-2" fill="white">
                <use xlink:href="#path-1"></use>
            </mask>
            <g id="Rectangle"></g>
            <g id="a" mask="url(#mask-2)">
                <g transform="translate(2.997000, 5.000000)" id="Group">
                    <g fill-rule="nonzero">
                        <g transform="translate(58.910500, 19.500000) rotate(180.000000) translate(-58.910500, -19.500000) translate(0.000000, 0.000000)" id="Path">
                            <path d="M5.995,39 C2.68519559,38.997243 0.00275702301,36.3148044 6.66133815e-16,33.005 L6.66133815e-16,11.668 C6.66133815e-16,8.36441863 2.67044965,5.68231552 5.974,5.668 L4.6,0 L18.591,5.672 L111.821,5.672 C115.134708,5.672 117.821,8.3582915 117.821,11.672 L117.821,33.005 C117.81824,36.3167557 115.132757,39 111.821,39 L5.995,39 Z" fill="#000000"></path>
                            <path d="M5.995,39 C2.68519559,38.997243 0.00275702301,36.3148044 6.66133815e-16,33.005 L6.66133815e-16,11.668 C6.66133815e-16,8.36441863 2.67044965,5.68231552 5.974,5.668 L4.6,0 L18.591,5.672 L111.821,5.672 C115.134708,5.672 117.821,8.3582915 117.821,11.672 L117.821,33.005 C117.81824,36.3167557 115.132757,39 111.821,39 L5.995,39 Z" stroke="#FFFFFF" fill="#109BDE"></path>
                        </g>
                        <path d="M107.06,12.968 L107.06,14.625 C107.057245,17.0401035 105.100104,18.9972446 102.685,19 L95.241,19 C95.5449944,20.803405 97.106153,22.1240928 98.935,22.125 L107.685,22.125 L109.56,24 L109.56,16.5 C109.559102,14.9119203 108.557456,13.4967948 107.06,12.968 Z" id="Path" fill="#FFFFFF"></path>
                        <path d="M102.685,9 C104.756068,9 106.435,10.6789322 106.435,12.75 L106.435,14.625 C106.435,16.6960678 104.756068,18.375 102.685,18.375 L93.935,18.375 L92.06,20.25 L92.06,12.75 C92.06,10.6789322 93.7389322,9 95.81,9 L102.685,9 Z M97.685,13.375 C97.339822,13.375 97.06,13.654822 97.06,14 C97.06,14.345178 97.339822,14.625 97.685,14.625 C98.030178,14.625 98.31,14.345178 98.31,14 C98.31,13.654822 98.030178,13.375 97.685,13.375 Z M99.56,13.375 C99.214822,13.375 98.935,13.654822 98.935,14 C98.935,14.345178 99.214822,14.625 99.56,14.625 C99.905178,14.625 100.185,14.345178 100.185,14 C100.185,13.654822 99.905178,13.375 99.56,13.375 Z M101.435,13.375 C101.089822,13.375 100.81,13.654822 100.81,14 C100.81,14.345178 101.089822,14.625 101.435,14.625 C101.780178,14.625 102.06,14.345178 102.06,14 C102.06,13.654822 101.780178,13.375 101.435,13.375 Z" id="Shape" fill="#D9E7ED"></path>
                        <path d="M93.31,12.75 C93.31,10.6789322 94.9889322,9 97.06,9 L95.81,9 C93.7389322,9 92.06,10.6789322 92.06,12.75 L92.06,20.25 L93.31,19 L93.31,12.75 Z" id="Path" fill="#FFFFFF" opacity="0.3"></path>
                    </g>
                    <g transform="translate(9.443000, 9.792000)" fill="#FFFFFF" fill-rule="nonzero" id="تحدث-معنا">
                        <g>
                            <path d="M70.56,3.568 C70.1973333,3.568 69.9066667,3.456 69.688,3.232 C69.4693333,3.008 69.36,2.71466667 69.36,2.352 C69.36,2 69.4693333,1.71733333 69.688,1.504 C69.9066667,1.29066667 70.1973333,1.184 70.56,1.184 C70.912,1.184 71.1946667,1.29066667 71.408,1.504 C71.6213333,1.71733333 71.728,2 71.728,2.352 C71.728,2.72533333 71.6213333,3.02133333 71.408,3.24 C71.1946667,3.45866667 70.912,3.568 70.56,3.568 Z M73.216,3.568 C72.864,3.568 72.5786667,3.456 72.36,3.232 C72.1413333,3.008 72.032,2.71466667 72.032,2.352 C72.032,2 72.1413333,1.71733333 72.36,1.504 C72.5786667,1.29066667 72.864,1.184 73.216,1.184 C73.568,1.184 73.8533333,1.29066667 74.072,1.504 C74.2906667,1.71733333 74.4,2 74.4,2.352 C74.4,2.72533333 74.2933333,3.02133333 74.08,3.24 C73.8666667,3.45866667 73.5786667,3.568 73.216,3.568 Z M69.488,12.208 L69.488,9.968 L71.056,9.968 C71.3973333,9.968 71.6373333,9.89866667 71.776,9.76 C71.9146667,9.62133333 71.984,9.38133333 71.984,9.04 L71.984,6.24 L74.304,5.008 L74.304,9.136 C74.304,10.128 73.9946667,10.9066667 73.376,11.472 C72.8426667,11.9626667 72.144,12.208 71.28,12.208 L69.488,12.208 Z" id="Shape"></path>
                            <path d="M68.896,9.968 L70.336,9.968 L70.336,12.208 L68.88,12.208 C68.0586667,12.208 67.3946667,12.1173333 66.888,11.936 C66.3813333,11.7546667 65.9146667,11.44 65.488,10.992 C64.1333333,11.8026667 62.608,12.208 60.912,12.208 L58.512,12.208 L58.512,9.968 L60.928,9.968 C62.6666667,9.968 64.0586667,9.47733333 65.104,8.496 C64.432,7.408 63.6426667,6.864 62.736,6.864 C61.9146667,6.864 60.9653333,7.328 59.888,8.256 L59.888,6.24 C60.7946667,5.22666667 61.824,4.72 62.976,4.72 L63.008,4.72 C63.8613333,4.72 64.688,5.02666667 65.488,5.64 C66.288,6.25333333 66.9973333,7.12533333 67.616,8.256 L67.616,9.104 C67.4346667,9.328 67.2586667,9.536 67.088,9.728 C67.4613333,9.888 68.064,9.968 68.896,9.968 Z" id="Path"></path>
                            <path d="M50.384,12.208 L51.552,9.968 L53.936,9.968 C54.3626667,9.968 54.576,9.728 54.576,9.248 C54.576,8.192 54.0533333,7.37066667 53.008,6.784 L54.144,4.832 C55.7866667,5.78133333 56.6933333,7.072 56.864,8.704 C56.928,9.216 57.0373333,9.55466667 57.192,9.72 C57.3466667,9.88533333 57.648,9.968 58.096,9.968 L59.376,9.968 L59.376,12.208 L57.984,12.208 C57.2053333,12.208 56.5493333,12.016 56.016,11.632 C55.6213333,12.016 55.072,12.208 54.368,12.208 L50.384,12.208 Z" id="Path"></path>
                            <path d="M43.264,2.176 C42.9333333,2.176 42.6693333,2.07466667 42.472,1.872 C42.2746667,1.66933333 42.176,1.40266667 42.176,1.072 C42.176,0.752 42.2746667,0.493333333 42.472,0.296 C42.6693333,0.0986666667 42.9333333,0 43.264,0 C43.5946667,0 43.8586667,0.0986666667 44.056,0.296 C44.2533333,0.493333333 44.352,0.752 44.352,1.072 C44.352,1.808 43.9893333,2.176 43.264,2.176 Z M41.952,4.768 C41.5893333,4.768 41.2986667,4.656 41.08,4.432 C40.8613333,4.208 40.752,3.91466667 40.752,3.552 C40.752,3.2 40.8613333,2.91733333 41.08,2.704 C41.2986667,2.49066667 41.5893333,2.384 41.952,2.384 C42.304,2.384 42.5866667,2.49066667 42.8,2.704 C43.0133333,2.91733333 43.12,3.2 43.12,3.552 C43.12,3.92533333 43.0133333,4.22133333 42.8,4.44 C42.5866667,4.65866667 42.304,4.768 41.952,4.768 Z M44.624,4.768 C44.2613333,4.768 43.9706667,4.656 43.752,4.432 C43.5333333,4.208 43.424,3.91466667 43.424,3.552 C43.424,3.2 43.5333333,2.91733333 43.752,2.704 C43.9706667,2.49066667 44.2613333,2.384 44.624,2.384 C44.976,2.384 45.2586667,2.49066667 45.472,2.704 C45.6853333,2.91733333 45.792,3.2 45.792,3.552 C45.792,3.92533333 45.6853333,4.22133333 45.472,4.44 C45.2586667,4.65866667 44.976,4.768 44.624,4.768 Z M40.048,12.208 C39.12,12.208 38.3893333,11.8933333 37.856,11.264 C37.3866667,10.72 37.152,10.016 37.152,9.152 L37.152,7.68 L39.472,6.448 L39.472,9.024 C39.472,9.376 39.5386667,9.62133333 39.672,9.76 C39.8053333,9.89866667 40.0426667,9.968 40.384,9.968 L45.552,9.968 C45.8933333,9.968 46.1306667,9.89866667 46.264,9.76 C46.3973333,9.62133333 46.464,9.376 46.464,9.024 L46.464,6.24 L48.784,5.008 L48.784,9.152 C48.784,10.144 48.4746667,10.9173333 47.856,11.472 C47.312,11.9626667 46.6133333,12.208 45.76,12.208 L40.048,12.208 Z" id="Shape"></path>
                            <path d="M24.288,7.744 C24.288,6.76266667 24.592,5.99466667 25.2,5.44 C25.7333333,4.96 26.4266667,4.72 27.28,4.72 C28.3573333,4.72 29.1946667,5.11466667 29.792,5.904 C30.304,6.576 30.56,7.42933333 30.56,8.464 C30.56,9.648 30.2346667,10.5866667 29.584,11.28 C29.0186667,11.8986667 28.288,12.208 27.392,12.208 C26.5493333,12.208 25.8666667,12.048 25.344,11.728 C24.864,12.048 24.2773333,12.208 23.584,12.208 L21.792,12.208 L21.792,9.968 L23.36,9.968 C23.7013333,9.968 23.9413333,9.89866667 24.08,9.76 C24.2186667,9.62133333 24.288,9.38133333 24.288,9.04 L24.288,7.744 Z M26.608,9.344 C26.608,9.76 26.832,9.968 27.28,9.968 C27.9413333,9.968 28.272,9.44 28.272,8.384 C28.272,7.392 27.9413333,6.896 27.28,6.896 C26.832,6.896 26.608,7.15733333 26.608,7.68 L26.608,9.344 Z" id="Shape"></path>
                            <path d="M22.64,12.208 L18.096,12.208 C17.552,12.208 17.024,12.1226667 16.512,11.952 C16,12.1226667 15.472,12.208 14.928,12.208 L10.4,12.208 L10.4,9.968 L13.696,9.968 C13.2373333,9.456 12.7893333,8.832 12.352,8.096 L12.352,7.248 C12.8426667,6.49066667 13.4693333,5.88 14.232,5.416 C14.9946667,4.952 15.7546667,4.72 16.512,4.72 C17.248,4.72 18.0026667,4.95733333 18.776,5.432 C19.5493333,5.90666667 20.1866667,6.52266667 20.688,7.28 L20.688,8.096 C20.24,8.832 19.792,9.456 19.344,9.968 L22.624,9.968 L22.64,12.208 Z M18.304,7.696 C17.7066667,7.152 17.1093333,6.88 16.512,6.88 C15.8506667,6.88 15.2533333,7.14666667 14.72,7.68 C15.328,8.608 15.9253333,9.22666667 16.512,9.536 C17.1093333,9.216 17.7066667,8.60266667 18.304,7.696 Z" id="Shape"></path>
                            <path d="M7.584,3.568 C7.22133333,3.568 6.93066667,3.45866667 6.712,3.24 C6.49333333,3.02133333 6.384,2.73066667 6.384,2.368 C6.384,2.00533333 6.49333333,1.71733333 6.712,1.504 C6.93066667,1.29066667 7.22133333,1.184 7.584,1.184 C7.936,1.184 8.21866667,1.29066667 8.432,1.504 C8.64533333,1.71733333 8.752,2.00533333 8.752,2.368 C8.752,2.73066667 8.64533333,3.02133333 8.432,3.24 C8.21866667,3.45866667 7.936,3.568 7.584,3.568 Z M11.248,9.968 L11.248,12.208 L9.472,12.208 C8.72533333,12.208 8.10666667,12.0266667 7.616,11.664 C7.104,12.0266667 6.48,12.208 5.744,12.208 L3.952,12.208 L3.952,9.968 L5.52,9.968 C5.86133333,9.968 6.10133333,9.89866667 6.24,9.76 C6.37866667,9.62133333 6.448,9.38133333 6.448,9.04 L6.448,6.24 L8.768,5.008 L8.768,9.04 C8.768,9.38133333 8.83733333,9.62133333 8.976,9.76 C9.11466667,9.89866667 9.35466667,9.968 9.696,9.968 L11.248,9.968 Z" id="Shape"></path>
                            <path d="M3.024,12.208 C2.04266667,12.208 1.27466667,11.8933333 0.72,11.264 C0.24,10.7093333 1.77635684e-15,10 1.77635684e-15,9.136 L1.77635684e-15,3.12 L2.32,1.888 L2.32,9.04 C2.32,9.38133333 2.38933333,9.62133333 2.528,9.76 C2.66666667,9.89866667 2.90666667,9.968 3.248,9.968 L4.816,9.968 L4.816,12.208 L3.024,12.208 Z" id="Path"></path>
                        </g>
                    </g>
                </g>
            </g>
        </g>
    </g>
</svg>