<svg xmlns="http://www.w3.org/2000/svg" xmlns:xlink="http://www.w3.org/1999/xlink" width="45" height="45" viewBox="0 0 45 45"><defs><clipPath id="b"><rect width="45" height="45"/></clipPath></defs><g id="a" clip-path="url(#b)"><path d="M344.329,454.759a21.379,21.379,0,1,1,39.073-.007" transform="translate(-341.262 -423.399)" fill="none" stroke="#565271" stroke-linejoin="round" stroke-width="1"/><path d="M1477.2,320.1a12.78,12.78,0,0,1,21.563,0,17.975,17.975,0,0,1-21.563,0" transform="translate(-1465.328 -279.205)" fill="#76b740" fill-rule="evenodd"/><path d="M384.423,482.079a21.345,21.345,0,0,1-38.471-1.059" transform="translate(-342.889 -449.661)" fill="none" stroke="#565271" stroke-linejoin="round" stroke-dashoffset="3.6" stroke-width="1" stroke-dasharray="1.8 1.8"/><path d="M1499.882,275.482a3.587,3.587,0,1,1-3.494,3.587,3.543,3.543,0,0,1,3.494-3.587m-7.315,5.668a7.315,7.315,0,0,1-.292-2.051,7.609,7.609,0,0,1,15.214,0,7.31,7.31,0,0,1-.293,2.051,19.333,19.333,0,0,1-1.194,2.371l-5.483,9.718a.732.732,0,0,1-1.276,0c-1.568-2.779-5.482-9.718-5.482-9.718a19.256,19.256,0,0,1-1.195-2.371" transform="translate(-1477.275 -263.42)" fill="#149ade" stroke="#565271" stroke-width="1" fill-rule="evenodd"/></g></svg>