<svg xmlns="http://www.w3.org/2000/svg" xmlns:xlink="http://www.w3.org/1999/xlink" width="45" height="45" viewBox="0 0 45 45"><defs><clipPath id="b"><rect width="45" height="45"/></clipPath></defs><g id="a" clip-path="url(#b)"><path d="M344.325,454.758a21.348,21.348,0,1,1,38.983-.007" transform="translate(-341.262 -423.399)" fill="none" stroke="#565271" stroke-linejoin="round" stroke-width="1"/><path d="M384.423,482.079a21.345,21.345,0,0,1-38.471-1.059" transform="translate(-342.889 -449.661)" fill="none" stroke="#565271" stroke-linejoin="round" stroke-dashoffset="3.6" stroke-width="1" stroke-dasharray="1.8 1.8"/><g transform="translate(9.355 7.355)"><g transform="translate(0 8.432)"><path d="M28.645,172.543l8.647-4.992v-2.219A3.338,3.338,0,0,0,33.964,162H13.328A3.338,3.338,0,0,0,10,165.331v2.219l8.647,4.992L21.52,174.2a4.15,4.15,0,0,0,4.207.026Z" transform="translate(-10 -162.003)" fill="#fff" fill-rule="evenodd"/><path d="M18.647,267,10,262v9.985Z" transform="translate(-10 -256.456)" fill="#fff" fill-rule="evenodd"/><path d="M18.647,352,10,357a3.338,3.338,0,0,0,3.328,3.328H33.964A3.338,3.338,0,0,0,37.293,357L28.645,352l-2.918,1.685a4.15,4.15,0,0,1-4.207-.026Z" transform="translate(-10 -341.463)" fill="#fff" fill-rule="evenodd"/><path d="M346.119,267l8.647,4.992V262Z" transform="translate(-327.474 -256.456)" fill="#fff" fill-rule="evenodd"/></g><path d="M150.989,22.357a6.241,6.241,0,1,0-2.491,0l.483,1.813a.776.776,0,0,0,1.528-.012Z" transform="translate(-136.096 -10)" fill="#76b740" fill-rule="evenodd"/></g><g transform="translate(8.8 6.8)"><path d="M182.8,53.6a4.3,4.3,0,0,0,1.113-.146.555.555,0,1,0-.287-1.072,3.19,3.19,0,1,1,2.364-3.081v.555a.693.693,0,1,1-1.387,0v-1.8a.555.555,0,0,0-.98-.355,1.8,1.8,0,1,0,.15,3.12,1.8,1.8,0,0,0,3.326-.962V49.3a4.3,4.3,0,1,0-4.3,4.3Zm0-3.606a.693.693,0,1,1,.693-.693A.694.694,0,0,1,182.8,49.992Z" transform="translate(-168.598 -42.504)" fill="#fff"/><path d="M24.519,8.432H20.794a6.8,6.8,0,1,0-13.187,0H3.883A3.887,3.887,0,0,0,0,12.315v12.2A3.887,3.887,0,0,0,3.883,28.4H24.519A3.887,3.887,0,0,0,28.4,24.519v-12.2a3.887,3.887,0,0,0-3.883-3.883ZM20.31,19.526l6.983-4.032v8.063ZM14.2,1.109a5.686,5.686,0,0,1,1.136,11.258.555.555,0,0,0-.426.4l-.48,1.8,0,.01c-.035.144-.114.224-.221.225-.051,0-.178-.02-.233-.224l-.483-1.813a.555.555,0,0,0-.426-.4A5.686,5.686,0,0,1,14.2,1.109ZM3.883,9.541H7.988a6.813,6.813,0,0,0,4.517,3.836l.4,1.491a1.356,1.356,0,0,0,1.3,1.047h.014A1.348,1.348,0,0,0,15.5,14.851l.393-1.474a6.813,6.813,0,0,0,4.516-3.836h4.105a2.777,2.777,0,0,1,2.774,2.774v1.9L16,20.731a3.6,3.6,0,0,1-3.645-.023l-.006,0L1.109,14.214v-1.9A2.777,2.777,0,0,1,3.883,9.541ZM24.519,27.293H3.883a2.777,2.777,0,0,1-2.774-2.774V15.495l6.983,4.032L4.824,21.414a.555.555,0,1,0,.555.961L9.2,20.167l2.592,1.5a4.713,4.713,0,0,0,4.765.028L19.2,20.167l8.075,4.662a2.777,2.777,0,0,1-2.756,2.464Z" transform="translate(0)" fill="#565271"/><path d="M43.534,407.19h0a.555.555,0,1,0,.555.555A.555.555,0,0,0,43.533,407.19Z" transform="translate(-40.595 -384.602)" fill="#565271"/></g></g></svg>