<svg xmlns="http://www.w3.org/2000/svg" xmlns:xlink="http://www.w3.org/1999/xlink" width="45" height="45" viewBox="0 0 45 45"><defs><clipPath id="b"><rect width="45" height="45"/></clipPath></defs><g id="a" clip-path="url(#b)"><path d="M344.325,454.758a21.348,21.348,0,1,1,38.983-.007" transform="translate(-341.262 -423.399)" fill="none" stroke="#565271" stroke-linejoin="round" stroke-width="1"/><path d="M384.423,482.079a21.345,21.345,0,0,1-38.471-1.059" transform="translate(-342.889 -449.661)" fill="none" stroke="#565271" stroke-linejoin="round" stroke-dashoffset="3.6" stroke-width="1" stroke-dasharray="1.8 1.8"/><g transform="translate(-0.674 -2.541)"><path d="M38,8.788a8.213,8.213,0,0,1-7.61,8.2,8.012,8.012,0,0,1-4.153-.928,13.373,13.373,0,0,1-3.911.9.295.295,0,0,1-.252-.48A5.835,5.835,0,0,0,23.3,13.365a7.969,7.969,0,0,1-1.261-5.186,8.472,8.472,0,0,1,7.089-7.138A8,8,0,0,1,38,8.788Z" transform="translate(-2.838 11.392)" fill="#f5f5f5"/><ellipse cx="6.5" cy="7" rx="6.5" ry="7" transform="translate(20.674 13.541)" fill="#76b740"/><path d="M52,11.7Z" transform="translate(-19.33 5.772)" fill="#0377bc"/><path d="M5.053,30.609A19.711,19.711,0,0,1,.037,22.6a.9.9,0,0,1-.005-.492l.827-3.03a.9.9,0,0,1,.232-.4l1.422-1.422a.9.9,0,0,1,1.271,0l3.178,3.178a.9.9,0,0,1,0,1.271L4.59,24.08a.444.444,0,0,0-.121.416,9.134,9.134,0,0,0,2.493,4.2,9.134,9.134,0,0,0,4.2,2.493.444.444,0,0,0,.416-.121l2.372-2.37a.9.9,0,0,1,1.271,0L18.4,31.881a.9.9,0,0,1,0,1.271l-1.422,1.422a.9.9,0,0,1-.4.232l-3.03.827a.9.9,0,0,1-.492-.005,19.711,19.711,0,0,1-8.007-5.018Z" transform="translate(9.386 2.502)" fill="#149ade"/><g transform="translate(24.495 16.389)"><path d="M36.666,16.222a.444.444,0,0,1-.444-.444v-.889a.444.444,0,0,1,.444-.444,1.778,1.778,0,1,0-1.778-1.778.444.444,0,0,1-.889,0A2.666,2.666,0,1,1,37.111,15.3v.481A.444.444,0,0,1,36.666,16.222Z" transform="translate(-34 -10.001)" fill="#f5f5f5"/><circle cx="0.5" cy="0.5" r="0.5" transform="translate(2.179 7.153)" fill="#f5f5f5"/></g><g transform="translate(8.941 11.941)"><path d="M20.157,32.014,16.98,28.837a1.341,1.341,0,0,0-1.9,0l-.635.635v0l-1.738,1.738a8.725,8.725,0,0,1-3.991-2.377,8.659,8.659,0,0,1-2.373-3.991l2.373-2.373a1.341,1.341,0,0,0,0-1.9L5.541,17.4a1.347,1.347,0,0,0-1.9,0L3,18.029v0l-.782.782a1.289,1.289,0,0,0-.347.6l-.827,3.031a1.327,1.327,0,0,0,0,.733,20.215,20.215,0,0,0,5.128,8.2,20.215,20.215,0,0,0,8.2,5.128,1.341,1.341,0,0,0,.733,0l3.031-.827a1.289,1.289,0,0,0,.6-.347l.782-.782h0l.631-.635A1.347,1.347,0,0,0,20.157,32.014Zm-.627,1.271-.32.324L16.98,31.379a.445.445,0,0,0-.627.631l2.226,2.226-.471.471a.4.4,0,0,1-.2.116l-3.031.827a.473.473,0,0,1-.249,0,19.235,19.235,0,0,1-7.817-4.906,19.235,19.235,0,0,1-4.906-7.817.473.473,0,0,1,0-.249l.827-3.031a.4.4,0,0,1,.116-.2l.471-.471L5.545,21.2a.451.451,0,0,0,.631,0,.444.444,0,0,0,0-.627L3.946,18.345l.324-.32a.444.444,0,0,1,.32-.133.451.451,0,0,1,.32.133L8.087,21.2a.456.456,0,0,1,0,.644l-.32.32-.32-.32a.445.445,0,0,0-.631.627l.324.324L5.719,24.22a.889.889,0,0,0-.24.831,9.568,9.568,0,0,0,2.609,4.417A9.568,9.568,0,0,0,12.5,32.077a.885.885,0,0,0,.831-.24l1.422-1.422.324.324a.445.445,0,1,0,.627-.631l-.32-.32.32-.32a.456.456,0,0,1,.644,0l3.177,3.177a.451.451,0,0,1,0,.64Z" transform="translate(-0.999 -9.889)" fill="#565271"/><path d="M37.01,3.089a8.392,8.392,0,0,0-6.484-2.044,8.9,8.9,0,0,0-7.484,7.532,8.383,8.383,0,0,0,1.24,5.337,5.288,5.288,0,0,1-1.111,2.72.739.739,0,0,0,.631,1.209,14.254,14.254,0,0,0,3.853-.853,8.488,8.488,0,0,0,3.791.893c.138,0,.271,0,.4-.009a8.712,8.712,0,0,0,8.035-8.652A8.492,8.492,0,0,0,37.01,3.089Zm-5.2,13.9a7.607,7.607,0,0,1-3.924-.875c-.218-.12-.436-.249-.64-.387a.44.44,0,0,0-.569.667,13.739,13.739,0,0,1-2.6.533A5.938,5.938,0,0,0,25,14.887c.049.058.1.124.147.182a.444.444,0,0,0,.333.147.432.432,0,0,0,.293-.111.444.444,0,0,0,.036-.631,8.021,8.021,0,0,1-.693-.907v0a7.486,7.486,0,0,1-1.191-4.9A8.069,8.069,0,0,1,30.62,1.929a7.5,7.5,0,0,1,5.8,1.831A7.587,7.587,0,0,1,39,9.244a7.79,7.79,0,0,1-7.186,7.741Z" transform="translate(-13.221 -0.992)" fill="#565271"/><path d="M33.666,18.332A6.666,6.666,0,1,0,27,11.666a.444.444,0,0,0,.889,0,5.771,5.771,0,1,1,.379,2.063.444.444,0,0,0-.83.317,6.706,6.706,0,0,0,6.228,4.285Z" transform="translate(-15.445 -3.219)" fill="#565271"/></g></g></g></svg>