<svg xmlns="http://www.w3.org/2000/svg" xmlns:xlink="http://www.w3.org/1999/xlink" width="30" height="30" viewBox="0 0 30 30"><defs><clipPath id="a"><rect width="28" height="28" transform="translate(-0.429 -0.428)"/></clipPath><clipPath id="c"><rect width="30" height="30"/></clipPath></defs><g id="b" clip-path="url(#c)"><circle cx="15" cy="15" r="15" fill="#fff"/><g transform="translate(1.428 1.429)"><g transform="translate(0 0)" clip-path="url(#a)"><path d="M343.585,442.8a12.857,12.857,0,1,1,23.478,0" transform="translate(-341.72 -423.896)" fill="none" stroke="#565271" stroke-linejoin="round" stroke-width="1"/><path d="M369.122,481.658a12.855,12.855,0,0,1-23.17-.638" transform="translate(-344.087 -462.113)" fill="none" stroke="#565271" stroke-linejoin="round" stroke-dashoffset="3.6" stroke-width="1" stroke-dasharray="1.8 1.8"/></g><g transform="translate(6.472 3.571)"><g transform="translate(0 9.097)"><path d="M75.021,273.241H69.8a4.756,4.756,0,0,0-4.8,4.7v3.936a.233.233,0,0,0,.233.233H79.57a.233.233,0,0,0,.232-.233v-3.936A4.756,4.756,0,0,0,75.021,273.241Zm-2.765,2.523-.813,3.436Zm7.081,5.876H65.465v-3.7a4.291,4.291,0,0,1,4.339-4.231h1.457l.4,1.737v.005a.417.417,0,0,0,.14.219l-.84,3.547a.232.232,0,0,0,.055.211l1.2,1.3a.232.232,0,0,0,.17.075h0a.232.232,0,0,0,.169-.073l1.228-1.3a.233.233,0,0,0,.057-.213L73,275.667a.417.417,0,0,0,.14-.219v-.005l.4-1.737H75a4.291,4.291,0,0,1,4.339,4.231Z" transform="translate(-65 -273.241)" fill="#565271"/></g><g transform="translate(3.1)" fill="#76b740" stroke="#565271" stroke-width="0.75"><circle cx="4" cy="4" r="4" stroke="none"/><circle cx="4" cy="4" r="3.625" fill="none"/></g><path d="M378.233,272.583a.8.8,0,0,0-.247-.042q-.7,0-.7.893,0,.523.379.523.256,0,.568-.423Zm.581,2.33v.392a4.109,4.109,0,0,1-.823.093,2.523,2.523,0,0,1-1.709-.557,1.851,1.851,0,0,1-.644-1.474,2.008,2.008,0,0,1,.7-1.554,2.486,2.486,0,0,1,1.727-.627,2.061,2.061,0,0,1,1.455.509,1.74,1.74,0,0,1,.551,1.342,1.534,1.534,0,0,1-.277.97.914.914,0,0,1-.761.354.713.713,0,0,1-.4-.1.8.8,0,0,1-.258-.35,1.194,1.194,0,0,1-.858.45.82.82,0,0,1-.613-.227.856.856,0,0,1-.223-.626,1.278,1.278,0,0,1,.385-.964,1.383,1.383,0,0,1,1-.37q.2,0,.772.04v1.142l.005.206q0,.43.3.43.463,0,.463-.907a1.46,1.46,0,0,0-.425-1.089,1.515,1.515,0,0,0-1.111-.418,1.975,1.975,0,0,0-1.376.519,1.627,1.627,0,0,0-.572,1.248,1.524,1.524,0,0,0,.53,1.2,2.013,2.013,0,0,0,1.375.463A3.788,3.788,0,0,0,378.814,274.912Z" transform="translate(-370.394 -269.513)" fill="#fff"/></g><rect width="2.716" height="0.31" transform="translate(16.615 16.052)" fill="none" stroke="#76b740" stroke-linejoin="round" stroke-width="0.75"/></g></g></svg>