<svg xmlns="http://www.w3.org/2000/svg" width="25.421" height="25.421" viewBox="0 0 25.421 25.421"><g transform="translate(-1.102 -1.143)"><g transform="translate(1.102 1.143)"><path d="M5.634,146.765l-.885,3.3-3.234.068a12.733,12.733,0,0,1-.094-11.869h0L4.3,138.8l1.261,2.862a7.586,7.586,0,0,0,.071,5.107Z" transform="translate(0 -131.403)" fill="#fff"/><path d="M273.837,208.176a12.705,12.705,0,0,1-4.531,12.286h0l-3.627-.185-.513-3.2a7.575,7.575,0,0,0,3.259-3.868h-6.8v-5.028h12.209Z" transform="translate(-248.638 -197.84)" fill="#fff"/><path d="M49.661,316.669h0a12.715,12.715,0,0,1-19.153-3.889l4.119-3.372a7.559,7.559,0,0,0,10.893,3.87Z" transform="translate(-28.994 -294.047)" fill="#fff"/><path d="M48.026,2.926,43.909,6.3a7.558,7.558,0,0,0-11.143,3.958l-4.141-3.39h0a12.713,12.713,0,0,1,19.4-3.939Z" transform="translate(-27.203)" fill="#fff"/></g></g></svg>