<svg xmlns="http://www.w3.org/2000/svg" width="138.162" height="46.027" viewBox="0 0 138.162 46.027">
  <g id="Group_1391" data-name="Group 1391" transform="translate(-1562 -315)">
    <g id="Group_13" data-name="Group 13" transform="translate(1562 315)">
      <g id="Group_11" data-name="Group 11" transform="translate(0)">
        <path id="Path_6" data-name="Path 6" d="M237.357,424.5h2.438v3.288h-2.326v9.662H224.386a11.516,11.516,0,0,1-3.869-.6,6.442,6.442,0,0,1-4.652-5.7V424.5h3.892v4.607a6.375,6.375,0,0,0,.2,1.544,4.477,4.477,0,0,0,3.623,3.333,5.341,5.341,0,0,0,.85.156h9.035a38.486,38.486,0,0,0-.336-5.044,34.62,34.62,0,0,0-.671-3.835l-.358-1.3Zm-12.233,15.79a1.917,1.917,0,0,1,2.191,2.146,2.125,2.125,0,1,1-4.249.023Q223.088,440.314,225.124,440.292Zm5.546,0a1.918,1.918,0,0,1,2.192,2.146,2.125,2.125,0,1,1-4.25.023Q228.635,440.314,230.67,440.292Z" transform="translate(-215.865 -398.58)" fill="#149ADE"/>
        <path id="Path_7" data-name="Path 7" d="M249.779,427.894h-6.4v-3.288h6.4Z" transform="translate(-220.348 -398.685)" fill="#149ADE"/>
        <path id="Path_8" data-name="Path 8" d="M256.35,427.894h-6.4v-3.288h6.4Z" transform="translate(-221.419 -398.685)" fill="#149ADE"/>
        <path id="Path_9" data-name="Path 9" d="M264.689,420.994h4.07v3.288H256.526v-3.288h4.115V409.813h4.048Zm-1.9-18.562a1.918,1.918,0,0,1,2.192,2.147,2.125,2.125,0,1,1-4.249.022Q260.753,402.454,262.788,402.432Z" transform="translate(-222.489 -395.072)" fill="#149ADE"/>
        <path id="Path_10" data-name="Path 10" d="M280.962,422.43h4.07v3.288H270.071V422.43h6.844V411.249h4.047Zm-5.032,6.173a1.918,1.918,0,0,1,2.191,2.147,2.125,2.125,0,1,1-4.249.023Q273.894,428.625,275.931,428.6Zm5.547,0a1.918,1.918,0,0,1,2.191,2.147,2.125,2.125,0,1,1-4.249.023Q279.441,428.625,281.477,428.6Z" transform="translate(-224.696 -396.509)" fill="#149ADE"/>
        <path id="Path_11" data-name="Path 11" d="M291.821,413.52a6.721,6.721,0,0,1,9.93,0,7.8,7.8,0,0,1,0,10.556,6.722,6.722,0,0,1-10.109-.2l.135.179-.358.246a4.411,4.411,0,0,1-3.4,1.431h-1.678v-3.288q1.409,0,2.214-.067a1.8,1.8,0,0,0,1.5-1.431,7.712,7.712,0,0,1-.29-2.146A7.434,7.434,0,0,1,291.821,413.52Zm7.648,5.278q0-4.317-2.684-4.316T294.1,418.8q0,4.316,2.684,4.316T299.469,418.8Z" transform="translate(-227.346 -396.522)" fill="#149ADE"/>
        <path id="Path_12" data-name="Path 12" d="M311.335,393.709a2.432,2.432,0,0,1,1.632.179v1.118l-.29-.023c-.343-.029-.627-.044-.85-.044a.773.773,0,0,0-.76.737,1.114,1.114,0,0,0,0,.447.585.585,0,0,0,.648.583H313.1c.1,0,.246.008.425.022v1.386h-4.45v-1.431h.38l.358.023-.068-.38A2,2,0,0,1,311.335,393.709Zm2.012,25.852h4.071v3.288H309.3V400.239h4.048Z" transform="translate(-231.05 -393.64)" fill="#149ADE"/>
        <path id="Path_13" data-name="Path 13" d="M324.369,427.894h-6.4v-3.288h6.4Z" transform="translate(-232.5 -398.685)" fill="#149ADE"/>
        <path id="Path_14" data-name="Path 14" d="M336.42,409.9v8.857q0,5.523-5.568,5.523h-6.307v-3.288h5.97a1.837,1.837,0,0,0,1.343-.48,1.809,1.809,0,0,0,.492-1.353V409.9Zm-7.537-7.469a1.918,1.918,0,0,1,2.191,2.147,2.125,2.125,0,1,1-4.249.022Q326.848,402.454,328.883,402.432Zm5.547,0a1.918,1.918,0,0,1,2.191,2.147,2.125,2.125,0,1,1-4.249.022Q332.394,402.454,334.429,402.432Z" transform="translate(-233.57 -395.072)" fill="#149ADE"/>
      </g>
      <g id="Group_12" data-name="Group 12" transform="translate(110.09 19.22)">
        <path id="Path_16" data-name="Path 16" d="M374.251,416.751l-11.669,8.63a1.959,1.959,0,0,1-2.344,0l-11.661-8.63a.752.752,0,0,0-1.2.611v9.459a3.559,3.559,0,0,0,1.49,2.9l11.167,7.977a2.377,2.377,0,0,0,2.754,0l11.167-7.977a3.581,3.581,0,0,0,1.49-2.9v-9.467A.749.749,0,0,0,374.251,416.751Zm-1.867,9.082a2.3,2.3,0,0,1-.921,1.942l-8.547,6.538a2.5,2.5,0,0,1-3.005,0l-8.773-6.647a1.15,1.15,0,0,1-.251-.209,2.129,2.129,0,0,1-.578-1.189,1.672,1.672,0,0,1-.042-.343l.025-2.721a.6.6,0,0,1,.954-.494l9.032,6.479a1.936,1.936,0,0,0,2.26,0l8.974-6.446a.55.55,0,0,1,.871.444Z" transform="translate(-347.38 -416.601)" fill="#149ADE"/>
      </g>
      <path id="Path_19" data-name="Path 19" d="M348.186,409.17h1.337a.781.781,0,0,0,.781-.783l-.012-4.256a1.744,1.744,0,0,1,1.733-1.748l4.21-.025a5.439,5.439,0,0,0,2.768-.776l1.939-1.179a.827.827,0,0,1,.931-.008l2.145,1.348a4.4,4.4,0,0,0,2.413.609l4.175-.031a1.606,1.606,0,0,1,1.809,1.55l.017,3.512a1.42,1.42,0,0,1-.6,1.2l-9.919,7.3a1.592,1.592,0,0,0-.657,1.288V419.3a.558.558,0,0,0,.879.457l12.689-9.269a1.385,1.385,0,0,0,.626-1.3s-.006-5.681-.006-5.832v-1.726a2.038,2.038,0,0,0-2.038-2.038h-6.74a3.093,3.093,0,0,1-1.65-.477l-2.854-1.8a1.412,1.412,0,0,0-1.505,0l-2.695,1.7a3.742,3.742,0,0,1-2,.578h-6.371a2.219,2.219,0,0,0-2.219,2.219v6.547A.811.811,0,0,0,348.186,409.17Z" transform="translate(-237.29 -394.203)" fill="#149ADE"/>
    </g>
  </g>
</svg>
