<svg xmlns="http://www.w3.org/2000/svg" xmlns:xlink="http://www.w3.org/1999/xlink" width="50" height="50" viewBox="0 0 50 50"><defs><clipPath id="b"><rect width="50" height="50"/></clipPath></defs><g id="a" clip-path="url(#b)"><path d="M2428.285,841.7a1.93,1.93,0,0,1,.972-1.669l12.616-7.217a6.644,6.644,0,0,1,6.66.036l12.624,7.4a1.931,1.931,0,0,1,.954,1.644c0,.3.006.63.008.973.008,1.1.006,2.3-.028,2.675-1.172,12.7-11.908,23.3-16.878,23.3-5.552-.107-15.837-10.734-16.894-23.439-.028-.339-.036-1.482-.036-2.571,0-.4,0-.8,0-1.141" transform="translate(-2423.584 -830.419)" fill="#fff" fill-rule="evenodd"/><line x2="1.576" y2="0.924" transform="translate(25.523 6.752)" fill="none" stroke="#55536f" stroke-linejoin="round" stroke-width="1"/><path d="M2511.815,855.813l6.21,3.642" transform="translate(-2483.897 -847.657)" fill="none" stroke="#55536f" stroke-linejoin="round" stroke-width="1"/><path d="M2442.221,861.619a22.265,22.265,0,0,1-1.139-5.35c-.022-.267-.028-1.171-.028-2.031,0-.273,0-.541,0-.784a1.727,1.727,0,0,1,.87-1.494l10.985-6.284" transform="translate(-2432.805 -840.337)" fill="none" stroke="#55536f" stroke-linejoin="round" stroke-width="1"/><path d="M2433.231,858.98a32.783,32.783,0,0,1-4.949-16.137c0-.4,0-.8,0-1.141a1.931,1.931,0,0,1,.971-1.669l12.616-7.217a6.644,6.644,0,0,1,6.659.036l2.222,1.3" transform="translate(-2423.583 -830.419)" fill="none" stroke="#55536f" stroke-linejoin="round" stroke-width="1"/><path d="M2481.281,845.134l1.126-.648a.709.709,0,0,1,1.063.615v3.407" transform="translate(-2461.851 -839.411)" fill="none" stroke="#55536f" stroke-linejoin="round" stroke-width="1"/><line x2="1.443" y2="0.846" transform="translate(30.871 5.906)" fill="none" stroke="#55536f" stroke-linejoin="round" stroke-width="1"/><path d="M2531.381,852.961l4.218,2.473a1.932,1.932,0,0,1,.954,1.644c0,.3.006.63.009.973.008,1.1.006,2.3-.028,2.675" transform="translate(-2498.025 -845.598)" fill="none" stroke="#55536f" stroke-linejoin="round" stroke-width="1"/><path d="M2479.649,881.917a6.671,6.671,0,0,1,13.318,0h4.6v28.715h-22.514V881.917Z" transform="translate(-2457.353 -861.978)" fill="#fff" fill-rule="evenodd"/><path d="M2474.607,909.178h-.556V880.318a.278.278,0,0,1,.278-.278h4.341a6.95,6.95,0,0,1,13.832,0h4.341a.278.278,0,0,1,.278.278v28.859h-.556" transform="translate(-2456.631 -860.629)" fill="none" stroke="#55536f" stroke-miterlimit="10" stroke-width="1"/><line x1="5.559" transform="translate(17.42 24.073)" fill="none" stroke="#55536f" stroke-miterlimit="10" stroke-width="1"/><line x1="5.559" transform="translate(34.932 24.073)" fill="none" stroke="#55536f" stroke-miterlimit="10" stroke-width="1"/><line x1="3.163" transform="translate(27.148 30.284)" fill="none" stroke="#55536f" stroke-linejoin="round" stroke-width="1"/><line x1="3.163" transform="translate(27.148 34.207)" fill="none" stroke="#55536f" stroke-linejoin="round" stroke-width="1"/><line x1="3.163" transform="translate(27.148 38.13)" fill="none" stroke="#55536f" stroke-linejoin="round" stroke-width="1"/><path d="M2506.147,889.608a3.34,3.34,0,0,1,2.906-1.882,3.729,3.729,0,1,0,.128,6.676c-1.414.012-4.484-1.807-3.034-4.795" transform="translate(-2478.058 -870.441)" fill="#76b740"/><rect width="13.62" height="22.514" transform="translate(32.708 26.366)" fill="#fff"/><path d="M2529.051,924.587v-3.26h13.62v22.187h-13.62v-8.649" transform="translate(-2496.343 -894.962)" fill="none" stroke="#55536f" stroke-linejoin="round" stroke-width="1"/><rect width="11.118" height="2.78" transform="translate(32.708 30.884)" fill="#149ade"/><rect width="11.118" height="2.78" transform="translate(32.708 34.843)" fill="#149ade"/><path d="M2506.063,984.928c0-.055,0-.11,0-.165a6.391,6.391,0,1,1,12.781,0c0,.055,0,.11,0,.165Z" transform="translate(-2479.743 -936.103)" fill="#76b740" fill-rule="evenodd"/><path d="M2429.266,984.928c0-.055,0-.11,0-.165a6.391,6.391,0,1,1,12.781,0c0,.055,0,.11,0,.165Z" transform="translate(-2424.292 -936.103)" fill="#149ade" fill-rule="evenodd"/><rect width="12.23" height="18.623" transform="translate(11.057 30.203)" fill="#149ade"/><path d="M2462.712,935.377H2451.05v18.555" transform="translate(-2440.022 -905.106)" fill="none" stroke="#55536f" stroke-linejoin="round" stroke-width="1"/><line x1="10.869" transform="translate(13.808 34.094)" fill="none" stroke="#fff" stroke-linejoin="round" stroke-width="2"/><line x1="10.591" transform="translate(13.808 38.264)" fill="none" stroke="#fff" stroke-linejoin="round" stroke-width="2"/><line x1="10.562" transform="translate(13.837 42.155)" fill="none" stroke="#fff" stroke-linejoin="round" stroke-width="2"/></g></svg>