<svg xmlns="http://www.w3.org/2000/svg" width="132" height="55" viewBox="0 0 132 55">
<rect width="132" height="55" style="fill:#A8A8A8;" />
  <g id="logo" transform="translate(-1648.5 -43)">
    <path id="Path_774" data-name="Path 774" d="M8519.2,526.3a1.82,1.82,0,0,0-.988.269,1.973,1.973,0,0,0-.678.7V524H8516.3v8.072h1.231v-2.9a1.794,1.794,0,0,1,.383-1.247,1.338,1.338,0,0,1,1.945,0,1.789,1.789,0,0,1,.383,1.247v2.9h1.231v-2.9a3.229,3.229,0,0,0-.62-2.152,2.074,2.074,0,0,0-1.656-.725m4.835-27.352h-.8a.382.382,0,0,1-.285-.124.419.419,0,0,1-.119-.3.374.374,0,0,1,.119-.28.4.4,0,0,1,.285-.113.463.463,0,0,1,.362.165l.331-.32a.933.933,0,0,0-.715-.332.845.845,0,0,0-.609.238.772.772,0,0,0-.249.58.782.782,0,0,0,.176.486h-.424v.5h1.925Zm-6.678,14.546h-1.231v2.9a1.789,1.789,0,0,1-.383,1.247,1.338,1.338,0,0,1-1.946,0,1.8,1.8,0,0,1-.382-1.247v-2.9h-1.231v2.9a3.228,3.228,0,0,0,.621,2.158,2.088,2.088,0,0,0,1.666.719,1.827,1.827,0,0,0,1-.28,2.01,2.01,0,0,0,.688-.725l.072.921h1.128Zm3.953-.031a1.817,1.817,0,0,0-1.7.9l-.083-.87H8518.4v5.692h1.232v-2.5a2.057,2.057,0,0,1,.5-1.547,1.763,1.763,0,0,1,1.264-.471,1.5,1.5,0,0,1,.2.01l.248-1.18a3.468,3.468,0,0,0-.477-.031Zm-6.83,17.524a.917.917,0,0,1-.734-.3,1.316,1.316,0,0,1-.259-.88v-2.329h1.335v-1.1h-1.335v-1.863h-1.024l-.166,1.863h-.8v1.1h.756v2.35a2.416,2.416,0,0,0,.574,1.78,2.006,2.006,0,0,0,1.475.569,2.4,2.4,0,0,0,.9-.166l-.311-1.1a1.3,1.3,0,0,1-.414.073m-8.537-11.8v-2.9a3.23,3.23,0,0,0-.621-2.152,2.073,2.073,0,0,0-1.656-.725,1.831,1.831,0,0,0-1.014.28,2.025,2.025,0,0,0-.684.725l-.072-.922h-1.128v5.692H8502v-2.9a1.79,1.79,0,0,1,.383-1.247,1.338,1.338,0,0,1,1.945,0,1.79,1.79,0,0,1,.383,1.247v2.9Zm17.945-4.062a1.624,1.624,0,0,1,1.2-.5,1.713,1.713,0,1,1,0,3.426,1.615,1.615,0,0,1-1.2-.507,1.632,1.632,0,0,1-.5-1.2,1.661,1.661,0,0,1,.5-1.216m.982,4.135a2.245,2.245,0,0,0,1.17-.321,2.061,2.061,0,0,0,.8-.818l.072,1.066h1.128v-5.692h-1.128l-.072,1.076a2.079,2.079,0,0,0-.8-.833,2.22,2.22,0,0,0-1.17-.326,2.53,2.53,0,0,0-1.925.859,3.049,3.049,0,0,0,0,4.129,2.546,2.546,0,0,0,1.93.859m-14.592-3.317a9.3,9.3,0,0,0-1.015-.28,5.094,5.094,0,0,1-.858-.253c-.235-.1-.352-.221-.352-.373a.437.437,0,0,1,.269-.393,1.508,1.508,0,0,1,.714-.145,2.714,2.714,0,0,1,.859.145,1.5,1.5,0,0,1,.683.435l.745-.745a2.867,2.867,0,0,0-2.318-.942,2.549,2.549,0,0,0-1.583.455,1.515,1.515,0,0,0-.249,2.179,1.964,1.964,0,0,0,.859.553,10.188,10.188,0,0,0,1.009.275,4.448,4.448,0,0,1,.854.264q.352.155.352.414a.5.5,0,0,1-.284.46,1.574,1.574,0,0,1-.771.16,2.805,2.805,0,0,1-.968-.175,1.982,1.982,0,0,1-.76-.466l-.839.807a2.889,2.889,0,0,0,1.164.745,4.161,4.161,0,0,0,1.4.249,2.789,2.789,0,0,0,1.641-.461,1.545,1.545,0,0,0,.657-1.35,1.436,1.436,0,0,0-.353-.993,1.973,1.973,0,0,0-.858-.564m-.994,13.338a1.794,1.794,0,0,1-.382,1.247,1.339,1.339,0,0,1-1.946,0,1.8,1.8,0,0,1-.383-1.247v-2.9h-1.231v2.9a3.227,3.227,0,0,0,.621,2.158,2.09,2.09,0,0,0,1.666.719,1.825,1.825,0,0,0,1-.279,2.006,2.006,0,0,0,.688-.725l.073.921h1.128v-5.692h-1.232Zm34.008.973-1.471-3.87H8540.5l2.235,5.546q-.476,1.336-1.3,1.335a1.675,1.675,0,0,1-.673-.135l-.352,1.1a2.814,2.814,0,0,0,1.076.207,2,2,0,0,0,1.438-.554,4.827,4.827,0,0,0,1.045-1.806l2.081-5.692h-1.3Zm-4.14.735a.919.919,0,0,1-.735-.3,1.315,1.315,0,0,1-.258-.88v-2.329h1.334v-1.1h-1.334v-1.863h-1.025l-.166,1.863h-.8v1.1h.756v2.35a2.416,2.416,0,0,0,.574,1.78,2.007,2.007,0,0,0,1.475.569,2.4,2.4,0,0,0,.9-.166l-.31-1.1a1.31,1.31,0,0,1-.414.073m-1.335-12.97a1.672,1.672,0,1,1,1.365-2.681l1.025-.683a3,3,0,0,0-1.046-.9,2.849,2.849,0,0,0-1.345-.332,2.924,2.924,0,1,0,0,5.848,2.855,2.855,0,0,0,1.376-.347,2.825,2.825,0,0,0,1.035-.947l-1.015-.683a1.614,1.614,0,0,1-1.4.725m4.139-2.142a1.359,1.359,0,0,1,.5-.921,1.61,1.61,0,0,1,1.087-.383,1.672,1.672,0,0,1,1.112.378,1.338,1.338,0,0,1,.5.926Zm4.471.466a2.84,2.84,0,0,0-.838-2.065,2.893,2.893,0,0,0-4.109.005,2.83,2.83,0,0,0-.848,2.059,2.8,2.8,0,0,0,.869,2.075,2.967,2.967,0,0,0,2.163.854,3.278,3.278,0,0,0,1.387-.31,2.805,2.805,0,0,0,1.076-.839l-.983-.621a1.892,1.892,0,0,1-1.479.621,1.811,1.811,0,0,1-1.118-.357,1.478,1.478,0,0,1-.59-.9h4.44c.021-.331.03-.507.03-.528M8500.212,529.1l.962-2.8.983,2.8Zm.259-4.584-2.681,7.555h1.438l.611-1.749h2.68l.611,1.749h1.438l-2.68-7.555Zm34.1-.135a.7.7,0,0,0-.518.223.724.724,0,0,0-.217.522.734.734,0,0,0,1.469,0,.724.724,0,0,0-.217-.522.7.7,0,0,0-.518-.223m-2.163,1.966a1.818,1.818,0,0,0-1.7.9l-.083-.869H8529.5v5.692h1.231v-2.5a2.058,2.058,0,0,1,.5-1.547,1.762,1.762,0,0,1,1.263-.471,1.507,1.507,0,0,1,.2.01l.248-1.18a3.333,3.333,0,0,0-.477-.031Zm1.542,5.723h1.231v-5.692h-1.231Zm-7.326-1.661a1.674,1.674,0,0,1-2.371-2.365,1.674,1.674,0,0,1,2.371,2.365m-1.181-4.1a2.934,2.934,0,1,0,2.06.859,2.817,2.817,0,0,0-2.06-.859m8.817-7.123v-2.9a3.23,3.23,0,0,0-.621-2.152,2.071,2.071,0,0,0-1.656-.725,1.836,1.836,0,0,0-1.014.28,2.013,2.013,0,0,0-.683.725l-.072-.922h-1.128v5.692h1.23v-2.9a1.8,1.8,0,0,1,.383-1.247,1.339,1.339,0,0,1,1.946,0,1.8,1.8,0,0,1,.383,1.247v2.9Zm-28.844-12.332a.646.646,0,0,0-.2.476.676.676,0,0,0,.2.487.647.647,0,0,0,.481.207.669.669,0,0,0,.486-.207.686.686,0,0,0,.2-.487.689.689,0,0,0-.683-.683.644.644,0,0,0-.486.207m22.062-11.659a.684.684,0,0,0,.2-.486.69.69,0,0,0-.684-.683.688.688,0,0,0-.683.683.672.672,0,0,0,.2.486.649.649,0,0,0,.481.207.664.664,0,0,0,.486-.207m-5.169,4.674v3.891a2.178,2.178,0,0,0,.533,1.526,1.806,1.806,0,0,0,1.4.585h7.13a1.667,1.667,0,0,1,2.66,0h7.171a1.792,1.792,0,0,0,1.4-.585,2.193,2.193,0,0,0,.528-1.526V497.8h-1.211v5.961q0,.911-.715.91h-7.171a.636.636,0,0,1-.538-.243,1.067,1.067,0,0,1-.187-.667V500.7h-1.2v3.064a1.067,1.067,0,0,1-.187.667.645.645,0,0,1-.548.243h-7.13q-.725,0-.725-.91v-3.891Zm7-4.674a.667.667,0,0,0,.207-.486.649.649,0,0,0-.207-.481.664.664,0,0,0-.476-.2.655.655,0,0,0-.487.2.687.687,0,0,0,.006.967.647.647,0,0,0,.481.207.655.655,0,0,0,.476-.207m-27.628-7.637a.665.665,0,0,0,.481-.2.684.684,0,1,0-.968-.967.681.681,0,0,0,.486,1.164m30.6,12.414a.634.634,0,0,0,.207-.476.651.651,0,0,0-.207-.481.678.678,0,0,0-.486-.2.649.649,0,0,0-.477.2.664.664,0,0,0-.207.486.651.651,0,0,0,.2.486.68.68,0,0,0,.968-.01m13.66-2.173h-1.211v8.072h1.211Zm-46.322-8.115a1.315,1.315,0,0,1,.973-.409h1.272v1.387a1.4,1.4,0,0,1-.362,1,1.2,1.2,0,0,1-.91.383,1.315,1.315,0,0,1-.973-.409,1.385,1.385,0,0,1,0-1.956m41.282.848a.889.889,0,1,1,1.257,1.257.889.889,0,0,1-1.257-1.257m1.9-1.3a1.178,1.178,0,0,1,.673-.2,1.158,1.158,0,0,1,.91.4,1.529,1.529,0,0,1,.352,1.05v1.573h-1.79a1.161,1.161,0,0,0,.394-.89,1.517,1.517,0,0,0-.994-1.408,1.309,1.309,0,0,1,.456-.523m-42.214,4.021a2.075,2.075,0,0,0,1.791-.88,1.421,1.421,0,0,0,1.417.88h10.091a1.525,1.525,0,0,0,1.325-.662,1.49,1.49,0,0,0,1.324.662h10.033a1.666,1.666,0,0,1,2.659,0h16.709v-2.774a2.71,2.71,0,0,0-.693-1.9,2.3,2.3,0,0,0-1.77-.756,2.356,2.356,0,0,0-1.393.435,2.494,2.494,0,0,0-.895,1.128,1.67,1.67,0,0,0-1.051.616,1.791,1.791,0,0,0-.419,1.165,1.157,1.157,0,0,0,.383.89h-10.872a.649.649,0,0,1-.548-.243,1.074,1.074,0,0,1-.187-.668v-3.063l-1.2.01v3.053a1.074,1.074,0,0,1-.187.668.637.637,0,0,1-.538.243h-10.033c-.483,0-.724-.3-.724-.911v-3.063h-1.211v3.063q0,.911-.715.911H8503.8q-.725,0-.725-.911v-3.063H8500.6a2.48,2.48,0,0,0-1.821.756,2.511,2.511,0,0,0-.767,1.842,2.58,2.58,0,0,0,2.588,2.577m-.756-5.692a.68.68,0,0,0,.492-.2.682.682,0,0,0,0-.967.67.67,0,0,0-.492-.2.685.685,0,0,0-.481,1.169.667.667,0,0,0,.481.2m16.3-.5h-.8a.39.39,0,0,1-.285-.119.4.4,0,0,1-.119-.295.383.383,0,0,1,.114-.279.394.394,0,0,1,.29-.114.454.454,0,0,1,.362.155l.331-.321a.925.925,0,0,0-.715-.321.858.858,0,0,0-.609.233.767.767,0,0,0-.249.585.713.713,0,0,0,.176.476h-.424v.5h1.925Zm-17.833,32.126h1.314v-7.555h-1.314Zm8.95-12.338a.669.669,0,0,0-.2.481.676.676,0,0,0,.2.487.657.657,0,0,0,.957,0,.67.67,0,0,0,.208-.487.652.652,0,0,0-.208-.481.662.662,0,0,0-.476-.2.652.652,0,0,0-.486.2m-5.6-6.877a.7.7,0,0,0,0-.993.7.7,0,0,0-.5-.207.706.706,0,0,0-.7.7.689.689,0,0,0,.206.507.678.678,0,0,0,.5.207.7.7,0,0,0,.508-.218m15.848,2.334a1.361,1.361,0,0,1,1.945,0,1.387,1.387,0,0,1,0,1.956,1.378,1.378,0,0,1-2.349-.978,1.341,1.341,0,0,1,.4-.978m-8.6,3.565h9.576a2.583,2.583,0,1,0-2.587-2.577,1.624,1.624,0,0,0,.683,1.376h-8.428a.646.646,0,0,1-.548-.243,1.067,1.067,0,0,1-.187-.667V500.7l-1.2.01v3.053a1.073,1.073,0,0,1-.187.667.636.636,0,0,1-.538.243h-.8q-.715,0-.714-.91V500.7h-1.212v4.523a1.878,1.878,0,0,1-.46,1.32,1.578,1.578,0,0,1-2.308,0,1.874,1.874,0,0,1-.461-1.32v-3.488h-1.211v3.488a3,3,0,0,0,.818,2.168,2.783,2.783,0,0,0,3.9.109,2.942,2.942,0,0,0,.911-1.935.9.9,0,0,0,.734.31h.8a1.666,1.666,0,0,1,2.659,0h.756Zm25.214-5.889a.686.686,0,0,0-.974-.968.686.686,0,0,0,.974.968m-76.7-13.521-16.472,45.612h8.392l13.9-39.771,13.9,39.771h8.392l-16.472-45.612Zm-29.608,45.612h8.071V486.461h-8.071Z" transform="translate(-6772.121 -439.099)" fill="#fff"/>
    <path id="Path_775" data-name="Path 775" d="M8481.645,539.439l-5.849,16.737a67.682,67.682,0,0,1,5.385-5.687,92.647,92.647,0,0,1,22.964-15.551,119.18,119.18,0,0,1,13.214-5.453,109.656,109.656,0,0,0-35.714,9.954" transform="translate(-6798.574 -463.203)" fill="#69ee00"/>
  </g>
</svg>