<svg xmlns="http://www.w3.org/2000/svg" xmlns:xlink="http://www.w3.org/1999/xlink" width="60" height="60" viewBox="0 0 60 60"><defs><clipPath id="b"><rect width="60" height="60"/></clipPath></defs><g id="a" clip-path="url(#b)"><g transform="translate(6 6)"><path d="M153.6,70.283v-12.6H123.8v6.98" transform="translate(-106.447 -57.682)" fill="none" stroke="#565271" stroke-linejoin="round" stroke-width="1"/><line x2="3.203" transform="translate(32.305 42.043)" fill="none" stroke="#565271" stroke-linejoin="round" stroke-width="1"/><line x1="3.038" transform="translate(44.396 42.043)" fill="none" stroke="#565271" stroke-linejoin="round" stroke-width="1"/><line x1="3.038" transform="translate(38.433 42.043)" fill="none" stroke="#565271" stroke-linejoin="round" stroke-width="1"/><rect width="14.948" height="16.016" stroke-width="1" fill="none" stroke="#565271" stroke-linejoin="round" transform="translate(32.032 19.353)"/><line x1="3.038" transform="translate(39.57 27.361)" fill="none" stroke="#565271" stroke-linejoin="round" stroke-width="1"/><line x1="3.038" transform="translate(17.434 42.043)" fill="none" stroke="#565271" stroke-linejoin="round" stroke-width="1"/><line x1="8.192" transform="translate(10.677 27.361)" fill="none" stroke="#565271" stroke-linejoin="round" stroke-width="1"/><line x1="3.032" transform="translate(10.677 21.842)" fill="none" stroke="#565271" stroke-linejoin="round" stroke-width="1"/><line x1="3.032" transform="translate(10.677 32.847)" fill="none" stroke="#565271" stroke-linejoin="round" stroke-width="1"/><path d="M120.37,71.591H88.337v40.842h32.032V71.591Z" transform="translate(-88.337 -64.784)" fill="none" stroke="#565271" stroke-linejoin="round" stroke-width="1"/><path d="M104.181,100.434a1.772,1.772,0,0,1,.865-1.558,60.491,60.491,0,0,0,5.993-3.861,2.541,2.541,0,0,1,3.215.066A40.34,40.34,0,0,0,120.278,99a1.773,1.773,0,0,1,.9,1.575c0,.542,0,1.122-.015,1.306-.589,6.378-5.981,11.7-8.477,11.7-2.789-.054-7.954-5.392-8.485-11.772C104.184,101.633,104.181,101.005,104.181,100.434Z" transform="translate(-96.427 -76.468)" fill="#149ade" fill-rule="evenodd"/><path d="M112.685,113.488c-2.789-.054-7.954-5.392-8.485-11.772-.016-.192-.019-.9-.018-1.5a1.566,1.566,0,0,1,.762-1.372,59.391,59.391,0,0,0,6.289-4.072,2.21,2.21,0,0,1,1.381-.484" transform="translate(-96.428 -76.372)" fill="none" stroke="#565271" stroke-linejoin="round" stroke-width="1"/><rect width="15.749" height="2.669" transform="translate(8.377 11.24)" fill="#149ade"/><line x1="3.038" transform="translate(11.561 42.043)" fill="none" stroke="#565271" stroke-linejoin="round" stroke-width="1"/><ellipse cx="4.671" cy="4.671" rx="4.671" ry="4.671" transform="translate(26.561 23.999) rotate(-13.057)" fill="#76b740"/></g></g></svg>