<svg xmlns="http://www.w3.org/2000/svg" xmlns:xlink="http://www.w3.org/1999/xlink" width="60" height="60" viewBox="0 0 60 60"><defs><clipPath id="b"><rect width="60" height="60"/></clipPath></defs><g id="a" clip-path="url(#b)"><g transform="translate(7 6.342)"><path d="M451.6,104.843V89.65H423.674v18.419l3.082-3.083a.491.491,0,0,1,.347-.143Zm-24.292.98L423.53,109.6a.49.49,0,0,1-.836-.346V89.16a.49.49,0,0,1,.49-.49h28.9a.49.49,0,0,1,.49.49v16.173a.49.49,0,0,1-.49.49Z" transform="translate(-413.854 -73.286)" fill="#565271" fill-rule="evenodd"/><rect width="15.766" height="2.672" transform="translate(15.899 20.04)" fill="#149ade"/><rect width="15.766" height="2.672" transform="translate(15.899 25.119)" fill="#149ade"/><path d="M414,141.047a4.676,4.676,0,1,0-4.677,4.677A4.676,4.676,0,0,0,414,141.047Z" transform="translate(-404.649 -97.618)" fill="#76b740" fill-rule="evenodd"/><path d="M404.708,81.049a23.782,23.782,0,1,1,23.782,23.783" transform="translate(-404.679 -57.267)" fill="none" stroke="#55526f" stroke-linejoin="round" stroke-dashoffset="8" stroke-width="1" stroke-dasharray="8 8 0 0"/><path d="M464.7,58.681a23.341,23.341,0,0,1,17.3,18.561l.965-.169A24.321,24.321,0,0,0,464.939,57.73Z" transform="translate(-435.282 -57.503)" fill="#76b740" fill-rule="evenodd"/><path d="M409.643,142.349a2.077,2.077,0,0,1,.736-1.367,2.326,2.326,0,0,1,2.976,0,2.075,2.075,0,0,1,.736,1.367.465.465,0,0,1,.012.105v1.687h-.98v-1.626c0-.009,0-.018,0-.026a1.1,1.1,0,0,0-.4-.758,1.347,1.347,0,0,0-1.71,0,1.1,1.1,0,0,0-.4.758c0,.009,0,.018,0,.026v1.626h-.98v-1.687A.5.5,0,0,1,409.643,142.349Z" transform="translate(-407.191 -99.696)" fill="#fff" fill-rule="evenodd"/><line x2="2.507" transform="translate(3.423 45.62)" fill="none" stroke="#fff" stroke-linejoin="round" stroke-width="1"/></g></g></svg>