<svg xmlns="http://www.w3.org/2000/svg" xmlns:xlink="http://www.w3.org/1999/xlink" width="60" height="60" viewBox="0 0 60 60"><defs><clipPath id="a"><path d="M302.415,83.087h10.792a1.736,1.736,0,0,0,1.733-1.638c.111-1.981.3-5.264.393-6.987a1.272,1.272,0,0,0-1.064-1.327q-1.18-.189-2.356-.342l-1.5-5.468a1.783,1.783,0,0,0-1.72-1.312H296.14a1.784,1.784,0,0,0-1.721,1.312l-1.5,5.46q-1.181.154-2.363.347a1.273,1.273,0,0,0-1.061,1.327c.069,1.212.18,3.2.279,4.959" transform="translate(-289.495 -66.013)" fill="none" clip-rule="evenodd"/></clipPath><clipPath id="b"><path d="M254.976,106.1l2.2-8a2.611,2.611,0,0,1,2.518-1.92h18.371a2.611,2.611,0,0,1,2.518,1.92l2.194,7.991q1.729.226,3.458.508a1.864,1.864,0,0,1,1.553,1.943c-.142,2.521-.413,7.331-.577,10.232a2.539,2.539,0,0,1-2.536,2.4H253.08a2.54,2.54,0,0,1-2.536-2.4c-.163-2.9-.434-7.7-.575-10.227a1.861,1.861,0,0,1,1.557-1.942Q253.253,106.323,254.976,106.1Z" transform="translate(-249.966 -96.176)" fill="none" clip-rule="evenodd"/></clipPath><clipPath id="d"><rect width="60" height="60"/></clipPath></defs><g id="c" clip-path="url(#d)"><g transform="translate(5 4.209)"><path d="M336.069,88.546h.69a1.289,1.289,0,0,1,1.29,1.29v6.346a1.289,1.289,0,0,1-1.29,1.289h-3a1.289,1.289,0,0,1-1.29-1.289V94.1" transform="translate(-287.386 -71.491)" fill="none" stroke="#565271" stroke-linejoin="round" stroke-width="1"/><g transform="translate(23.11 5.533)"><g transform="translate(0 0)" clip-path="url(#a)"><path d="M304.385,88.956V86.575a1.041,1.041,0,0,1,1.041-1.042h8.531A1.042,1.042,0,0,1,315,86.575v2.381" transform="translate(-296.771 -75.552)" fill="none" stroke="#565271" stroke-linejoin="round" stroke-width="1"/><path d="M301.07,73.6a.708.708,0,0,0,.684.893h12.612a.708.708,0,0,0,.684-.893l-.971-3.593a.251.251,0,0,0-.242-.185H302.284a.25.25,0,0,0-.242.185Z" transform="translate(-295.139 -67.875)" fill="none" stroke="#565271" stroke-linejoin="round" stroke-width="1"/><path d="M329.54,84.863h0a2.154,2.154,0,0,1,2.154-2.155h3.225" transform="translate(-309.064 -74.171)" fill="none" stroke="#565271" stroke-linejoin="round" stroke-width="1"/><path d="M294.754,84.863h0a2.154,2.154,0,0,0-2.154-2.155h-3.226" transform="translate(-289.436 -74.171)" fill="none" stroke="#565271" stroke-linejoin="round" stroke-width="1"/></g></g><path d="M302.415,83.087h10.792a1.736,1.736,0,0,0,1.733-1.638c.111-1.981.3-5.264.393-6.987a1.272,1.272,0,0,0-1.064-1.327q-1.18-.189-2.356-.342l-1.5-5.468a1.783,1.783,0,0,0-1.72-1.312H296.14a1.784,1.784,0,0,0-1.721,1.312l-1.5,5.46q-1.181.154-2.363.347a1.273,1.273,0,0,0-1.061,1.327c.069,1.212.18,3.2.279,4.959" transform="translate(-266.385 -60.48)" fill="none" stroke="#565271" stroke-linejoin="round" stroke-width="1"/><rect width="8.301" height="13.13" rx="2.522" transform="translate(0.738 37.959)" fill="#149ade"/><rect width="9.062" height="13.13" rx="2.522" transform="translate(33.814 37.959)" fill="#149ade"/><path d="M254.976,106.1l2.2-8a2.611,2.611,0,0,1,2.518-1.92h18.371a2.611,2.611,0,0,1,2.518,1.92l2.194,7.991q1.729.226,3.458.508a1.864,1.864,0,0,1,1.553,1.943c-.142,2.521-.413,7.331-.577,10.232a2.539,2.539,0,0,1-2.536,2.4H253.08a2.54,2.54,0,0,1-2.536-2.4c-.163-2.9-.434-7.7-.575-10.227a1.861,1.861,0,0,1,1.557-1.942Q253.253,106.323,254.976,106.1Z" transform="translate(-247.069 -75.219)" fill="#fff" fill-rule="evenodd"/><g transform="translate(2.897 20.957)"><g clip-path="url(#b)"><path d="M257.884,123.58a2.968,2.968,0,0,0-2.967-2.967h-4.95v4.507h7.245a.673.673,0,0,0,.673-.672Z" transform="translate(-249.966 -108.117)" fill="#149ade" fill-rule="evenodd"/><path d="M287.294,134.9a.974.974,0,0,0-.974-.974H272.733a.973.973,0,0,0-.973.974v4.445h15.534Z" transform="translate(-260.616 -114.624)" fill="#149ade" fill-rule="evenodd"/><path d="M308.747,123.58a2.967,2.967,0,0,1,2.967-2.967h4.95v4.507h-7.245a.673.673,0,0,1-.672-.672Z" transform="translate(-278.69 -108.117)" fill="#149ade" fill-rule="evenodd"/></g></g><path d="M254.976,106.1l2.2-8a2.611,2.611,0,0,1,2.518-1.92h18.371a2.611,2.611,0,0,1,2.518,1.92l2.194,7.991q1.729.226,3.458.508a1.864,1.864,0,0,1,1.553,1.943c-.142,2.521-.413,7.331-.577,10.232a2.539,2.539,0,0,1-2.536,2.4H253.08a2.54,2.54,0,0,1-2.536-2.4c-.163-2.9-.434-7.7-.575-10.227a1.861,1.861,0,0,1,1.557-1.942Q253.253,106.323,254.976,106.1Z" transform="translate(-247.069 -75.219)" fill="none" stroke="#565271" stroke-linejoin="round" stroke-width="1"/><path d="M287.413,106.927a.708.708,0,0,1-.686.884H266.174a.709.709,0,0,1-.687-.884l1.522-5.958a1.08,1.08,0,0,1,1.046-.812h16.791a1.08,1.08,0,0,1,1.046.812Z" transform="translate(-254.643 -77.165)" fill="#149ade" fill-rule="evenodd"/><path d="M257.8,123.766v-.193a2.961,2.961,0,0,0-2.961-2.961h-4.914" transform="translate(-247.047 -87.161)" fill="none" stroke="#565271" stroke-linejoin="round" stroke-width="1"/><path d="M308.711,123.766v-.193a2.96,2.96,0,0,1,2.96-2.961h4.914" transform="translate(-275.775 -87.161)" fill="none" stroke="#565271" stroke-linejoin="round" stroke-width="1"/><line x2="15.535" transform="translate(14.041 35.566)" fill="none" stroke="#565271" stroke-linejoin="round" stroke-width="1"/><ellipse cx="4.881" cy="4.881" rx="4.881" ry="4.881" transform="matrix(0.972, -0.237, 0.237, 0.972, 0, 2.313)" fill="#76b740"/><line x1="3.174" transform="translate(19.982 5.899)" fill="none" stroke="#565271" stroke-linejoin="round" stroke-width="1"/><line y1="3.174" transform="translate(5.758 19.844)" fill="none" stroke="#565271" stroke-linejoin="round" stroke-width="1"/><line x1="3.174" transform="translate(13.846 5.899)" fill="none" stroke="#565271" stroke-linejoin="round" stroke-width="1"/><line y1="3.174" transform="translate(5.758 13.708)" fill="none" stroke="#565271" stroke-linejoin="round" stroke-width="1"/><path d="M295.156,137.242v-17.06h1.023v17.572a.511.511,0,0,1-.511.511H245.743v-1.023Z" transform="translate(-245.005 -86.95)" fill="#565271" fill-rule="evenodd"/><line x1="3.068" transform="translate(4.365 5.899)" fill="none" stroke="#fff" stroke-linejoin="round" stroke-width="1"/><line y1="3.068" transform="translate(5.899 4.365)" fill="none" stroke="#fff" stroke-linejoin="round" stroke-width="1"/></g></g></svg>