<svg width="50" height="50" viewBox="0 0 50 50" fill="none" xmlns="http://www.w3.org/2000/svg">
<g clip-path="url(#clip0_1_45)">
<mask id="mask0_1_45" style="mask-type:luminance" maskUnits="userSpaceOnUse" x="0" y="0" width="50" height="50">
<path d="M50 0H0V50H50V0Z" fill="white"/>
</mask>
<g mask="url(#mask0_1_45)">
<path d="M24.9669 21.125H1.89392C1.63931 21.125 1.39524 21.2261 1.21521 21.4061C1.03518 21.5862 0.93396 21.8304 0.93396 22.085V47.059C0.93396 47.3136 1.03518 47.5578 1.21521 47.7378C1.39524 47.9178 1.63931 48.019 1.89392 48.019H6.6571" stroke="#565271" stroke-linejoin="round"/>
<path d="M9.19098 48.019H48.0391C48.2937 48.019 48.5378 47.9178 48.7178 47.7378C48.8979 47.5578 48.9991 47.3136 48.9991 47.059V22.085C48.9991 21.8304 48.8979 21.5862 48.7178 21.4061C48.5378 21.2261 48.2937 21.125 48.0391 21.125H43.2081" stroke="#565271" stroke-linejoin="round"/>
<path fill-rule="evenodd" clip-rule="evenodd" d="M42.991 30.491C42.9908 30.2834 42.9081 30.0844 42.7613 29.9376C42.6145 29.7909 42.4157 29.7083 42.2081 29.708H7.15704C6.94946 29.7083 6.75036 29.7909 6.60358 29.9376C6.45679 30.0844 6.37435 30.2834 6.37408 30.491V39.51C6.37408 39.7178 6.45652 39.917 6.60333 40.064C6.75014 40.211 6.94929 40.2938 7.15704 40.294H42.213C42.4207 40.2938 42.6199 40.211 42.7667 40.064C42.9135 39.917 42.9959 39.7178 42.9959 39.51L42.991 30.491Z" fill="#149ADE"/>
<path d="M15.238 43.728H6.36902" stroke="#565271" stroke-linejoin="round"/>
<path d="M20.133 43.728H16.955" stroke="#565271" stroke-linejoin="round"/>
<path d="M42.737 43.731H39.559" stroke="#565271" stroke-linejoin="round"/>
<path fill-rule="evenodd" clip-rule="evenodd" d="M7.51398 24.272C7.74044 24.272 7.96191 24.3391 8.15021 24.465C8.3385 24.5908 8.48518 24.7696 8.57184 24.9788C8.6585 25.188 8.6812 25.4183 8.63702 25.6404C8.59284 25.8625 8.48368 26.0665 8.32355 26.2266C8.16342 26.3867 7.95947 26.4958 7.73737 26.54C7.51526 26.5842 7.28497 26.5615 7.07574 26.4748C6.86652 26.3882 6.68789 26.2414 6.56207 26.0531C6.43626 25.8649 6.36896 25.6434 6.36896 25.417C6.36896 25.1133 6.48968 24.8221 6.70441 24.6073C6.91914 24.3926 7.2103 24.272 7.51398 24.272Z" fill="#149ADE"/>
<path fill-rule="evenodd" clip-rule="evenodd" d="M12.022 24.272C12.2485 24.272 12.4697 24.3391 12.658 24.465C12.8463 24.5908 12.9932 24.7696 13.0799 24.9788C13.1666 25.188 13.1893 25.4183 13.1451 25.6404C13.1009 25.8625 12.9917 26.0665 12.8316 26.2266C12.6715 26.3867 12.4675 26.4958 12.2454 26.54C12.0233 26.5842 11.793 26.5615 11.5838 26.4748C11.3746 26.3882 11.1957 26.2414 11.0699 26.0531C10.9441 25.8649 10.877 25.6434 10.877 25.417C10.877 25.1133 10.9977 24.8221 11.2125 24.6073C11.4272 24.3926 11.7184 24.272 12.022 24.272Z" fill="#149ADE"/>
<path d="M39.1819 25.309C38.2005 26.4444 36.8514 27.1988 35.3703 27.4404C33.8892 27.682 32.3704 27.3955 31.0791 26.6309C29.7878 25.8663 28.8064 24.6722 28.3061 23.2574C27.8059 21.8425 27.8186 20.2969 28.3423 18.8905C28.8659 17.4842 29.8671 16.3066 31.1709 15.5635C32.4747 14.8205 33.9982 14.5592 35.4751 14.8254C36.952 15.0915 38.2884 15.8683 39.2507 17.0198C40.2131 18.1712 40.7402 19.6243 40.74 21.125" stroke="#565271" stroke-linejoin="round"/>
<path d="M8.67697 12.426C8.57 10.9543 8.98357 9.49187 9.84542 8.29416C10.7073 7.09646 11.9626 6.23968 13.3921 5.87357C14.8215 5.50746 16.334 5.6553 17.6655 6.29123C18.997 6.92717 20.0628 8.01079 20.6765 9.3527C21.2901 10.6946 21.4126 12.2095 21.0227 13.6326C20.6328 15.0557 19.7553 16.2966 18.5434 17.1383C17.3315 17.9801 15.8625 18.3693 14.3928 18.2378C12.9231 18.1063 11.5461 17.4626 10.5029 16.419" stroke="#565271" stroke-linejoin="round"/>
<path fill-rule="evenodd" clip-rule="evenodd" d="M34.3399 16.799C35.1953 16.799 36.0317 17.0527 36.743 17.5279C37.4542 18.0032 38.0084 18.6786 38.3358 19.4689C38.6631 20.2592 38.7487 21.1288 38.5818 21.9677C38.415 22.8067 38.0031 23.5774 37.3983 24.1822C36.7934 24.7871 36.0229 25.199 35.1839 25.3659C34.3449 25.5328 33.4752 25.4471 32.6849 25.1198C31.8946 24.7924 31.2192 24.2381 30.744 23.5268C30.2687 22.8156 30.015 21.9794 30.015 21.124C30.0155 19.9771 30.4713 18.8774 31.2823 18.0664C32.0933 17.2554 33.193 16.7995 34.3399 16.799Z" fill="#149ADE"/>
<path d="M30.016 0.999997C29.3992 1.00572 28.7978 1.19387 28.2877 1.54071C27.7776 1.88755 27.3816 2.37759 27.1495 2.94909C26.9174 3.52059 26.8597 4.14799 26.9835 4.75225C27.1073 5.35652 27.4074 5.91064 27.8455 6.34478C28.2837 6.77893 28.8405 7.07371 29.4459 7.19195C30.0513 7.3102 30.6781 7.24663 31.2474 7.00927C31.8167 6.77192 32.303 6.37141 32.6451 5.85815C32.9872 5.34489 33.17 4.74182 33.17 4.125C33.1658 3.29247 32.831 2.49569 32.2396 1.90973C31.6482 1.32376 30.8485 0.99654 30.016 0.999997Z" stroke="#565271" stroke-linejoin="round"/>
<path d="M31.6351 4.12502C31.633 3.69739 31.4611 3.28811 31.1573 2.98714C30.8535 2.68617 30.4426 2.51817 30.015 2.52003" stroke="#565271" stroke-linejoin="round"/>
<path fill-rule="evenodd" clip-rule="evenodd" d="M14.948 7.67802C14.0992 7.67802 13.2693 7.92974 12.5635 8.40135C11.8577 8.87296 11.3076 9.54324 10.9827 10.3275C10.6579 11.1118 10.573 11.9748 10.7386 12.8074C10.9042 13.6399 11.3129 14.4047 11.9131 15.0049C12.5134 15.6052 13.2781 16.0139 14.1106 16.1796C14.9432 16.3452 15.8061 16.2601 16.5904 15.9353C17.3746 15.6104 18.045 15.0604 18.5166 14.3545C18.9883 13.6487 19.24 12.8189 19.24 11.97C19.2395 10.8319 18.787 9.74051 17.9822 8.93571C17.1774 8.13092 16.0862 7.67855 14.948 7.67802Z" fill="#76B740"/>
<path d="M14.952 9.972V13.979" stroke="white" stroke-width="2" stroke-linejoin="round"/>
<path d="M16.945 11.969H12.949" stroke="white" stroke-width="2" stroke-linejoin="round"/>
<path d="M36.0651 20.836L34.5089 21.987C34.4635 22.0202 34.4087 22.0381 34.3524 22.0381C34.2961 22.0381 34.2413 22.0202 34.1959 21.987L32.641 20.836C32.6261 20.8251 32.6086 20.8186 32.5902 20.8171C32.5719 20.8155 32.5534 20.8191 32.537 20.8274C32.5205 20.8356 32.5067 20.8483 32.4969 20.8639C32.4872 20.8796 32.4822 20.8976 32.4821 20.916V22.178C32.4821 22.2537 32.5002 22.3284 32.535 22.3957C32.5698 22.4631 32.6202 22.5211 32.682 22.565L34.172 23.629C34.2256 23.6671 34.2898 23.6875 34.3556 23.6875C34.4213 23.6875 34.4853 23.6671 34.5389 23.629L36.0289 22.565C36.0907 22.5211 36.1411 22.4631 36.1759 22.3957C36.2107 22.3284 36.2288 22.2537 36.2289 22.178V20.916C36.2289 20.8974 36.2238 20.8792 36.214 20.8634C36.2042 20.8476 36.1903 20.8348 36.1737 20.8265C36.1571 20.8182 36.1385 20.8147 36.12 20.8164C36.1015 20.8181 36.0838 20.8248 36.069 20.836M35.8199 22.048C35.822 22.0979 35.8118 22.1475 35.7904 22.1927C35.769 22.2378 35.7369 22.277 35.6969 22.307L34.557 23.179C34.4994 23.2225 34.4292 23.2459 34.3571 23.2459C34.2849 23.2459 34.2145 23.2225 34.1569 23.179L32.9869 22.292C32.9746 22.2843 32.9635 22.2749 32.954 22.264C32.912 22.2209 32.8851 22.1656 32.8771 22.106C32.8754 22.0907 32.8754 22.0753 32.8771 22.06V21.696C32.8773 21.6812 32.8815 21.6667 32.8893 21.6542C32.8971 21.6416 32.9081 21.6314 32.9213 21.6247C32.9345 21.618 32.9492 21.6151 32.964 21.6162C32.9787 21.6173 32.993 21.6224 33.005 21.631L34.205 22.495C34.2488 22.5261 34.3011 22.5428 34.3549 22.5428C34.4086 22.5428 34.4612 22.5261 34.505 22.495L35.705 21.635C35.7158 21.6273 35.7285 21.6228 35.7418 21.6219C35.7551 21.6209 35.7686 21.6237 35.7804 21.6297C35.7922 21.6358 35.8022 21.645 35.8092 21.6564C35.8162 21.6677 35.8198 21.6806 35.8199 21.6939V22.048Z" fill="white"/>
<path d="M32.5891 20.249H32.767C32.7936 20.249 32.8191 20.2385 32.8378 20.2197C32.8566 20.201 32.8671 20.1756 32.8671 20.149V19.581C32.8671 19.5194 32.8915 19.4603 32.935 19.4166C32.9785 19.3729 33.0374 19.3483 33.0991 19.348H33.6601C33.7898 19.3482 33.9171 19.3137 34.029 19.248L34.287 19.091C34.3053 19.0785 34.3269 19.0719 34.3491 19.0719C34.3712 19.0719 34.3928 19.0785 34.4111 19.091L34.697 19.271C34.7943 19.3284 34.9061 19.3566 35.019 19.352H35.5761C35.6058 19.3482 35.6358 19.3507 35.6645 19.3593C35.6932 19.3679 35.7199 19.3825 35.7426 19.402C35.7653 19.4215 35.7835 19.4455 35.7963 19.4726C35.8092 19.4996 35.8163 19.5291 35.8171 19.559V20.028C35.818 20.0592 35.811 20.0902 35.7971 20.1181C35.7831 20.146 35.7625 20.17 35.737 20.188L34.414 21.161C34.3868 21.1807 34.3646 21.2065 34.3493 21.2364C34.334 21.2663 34.3262 21.2994 34.3261 21.333V21.618C34.3263 21.6315 34.33 21.6447 34.3371 21.6562C34.3442 21.6677 34.3544 21.6771 34.3664 21.6834C34.3784 21.6896 34.3917 21.6925 34.4052 21.6918C34.4187 21.691 34.4319 21.6866 34.4431 21.679L36.1359 20.442C36.1643 20.4235 36.187 20.3976 36.2016 20.3671C36.2162 20.3366 36.2222 20.3027 36.2189 20.269C36.2189 20.269 36.2189 19.511 36.2189 19.491V19.26C36.2189 19.1879 36.1904 19.1187 36.1393 19.0677C36.0883 19.0167 36.0191 18.988 35.947 18.988H35.0471C34.9691 18.9879 34.8929 18.9657 34.8271 18.924L34.446 18.684C34.416 18.6653 34.3815 18.6554 34.3461 18.6554C34.3108 18.6554 34.276 18.6653 34.246 18.684L33.8869 18.911C33.807 18.9614 33.7145 18.9881 33.6201 18.988H32.77C32.6904 18.988 32.6141 19.0196 32.5578 19.0759C32.5015 19.1321 32.4699 19.2084 32.4699 19.288V20.161C32.4699 20.1896 32.4814 20.2171 32.5016 20.2374C32.5219 20.2576 32.5494 20.269 32.5781 20.269" fill="white"/>
<mask id="mask1_1_45" style="mask-type:luminance" maskUnits="userSpaceOnUse" x="6" y="30" width="38" height="11">
<path d="M43.0342 30H6.60577V40.372H43.0342V30Z" fill="white"/>
</mask>
<g mask="url(#mask1_1_45)">
<path d="M9.75214 32.3177C9.49825 32.0151 9.12076 31.8506 8.65418 31.8506C7.69319 31.8506 7 32.5809 7 33.6271C7 34.6797 7.69319 35.4169 8.65418 35.4169C9.12799 35.4169 9.49825 35.2525 9.75214 34.9429V36.6339H10.5895V31.9425H9.75214V32.3177ZM9.75214 34.0611C9.57397 34.4166 9.25772 34.6664 8.79838 34.6664C8.24217 34.6664 7.87191 34.2783 7.87191 33.6266C7.87191 32.9882 8.24272 32.6001 8.79838 32.6001C9.2516 32.6001 9.57397 32.8435 9.75214 33.199V34.0611ZM11.3373 31.9425H12.9157V35.3181H12.0577V32.6663H11.3373V31.9425ZM12.0583 30.3827H12.9163V31.3169H12.0583V30.3827ZM14.9613 31.9425H16.0871V32.6663H14.9613V34.2847C14.9613 34.4956 15.0783 34.5938 15.2703 34.5938H16.0871V35.3176H15.2019C14.4535 35.3176 14.1039 34.9493 14.1039 34.3899V32.6657H13.4658V31.9425H14.1039V30.8306H14.9619V31.9425H14.9613ZM18.7569 31.9425H16.9379V32.6663H18.7223C18.9211 32.6663 19.0314 32.7714 19.0314 32.9753V33.1467L17.6105 33.3175C16.993 33.3901 16.6222 33.7846 16.6222 34.3573C16.6222 34.9888 17.1233 35.4169 17.8577 35.4169C18.3794 35.4169 18.7841 35.2327 19.0314 34.9034V35.3181H19.8754V32.8771C19.8754 32.2782 19.4773 31.9425 18.7569 31.9425ZM19.0314 34.2057C18.8871 34.5415 18.4891 34.7715 18.0637 34.7715C17.6929 34.7715 17.4802 34.6199 17.4802 34.3568C17.4802 34.1134 17.645 33.9618 17.9468 33.9223L19.0314 33.7776V34.2057ZM22.0786 31.9425H23.1014V32.6663H22.0786V35.3181H21.2206V32.6663H20.5892V31.9425H21.2206V31.311C21.2206 30.7516 21.5708 30.3833 22.3186 30.3833H23.4098V31.1071H22.3943C22.1955 31.1071 22.0786 31.2058 22.0786 31.4097V31.9425ZM30.6112 30.6934H29.8946V30.0064H30.6112V30.6934ZM30.2526 31.3291C29.2704 31.3291 28.6107 31.9195 28.6107 32.7976C28.6107 33.3933 28.9375 34.0296 29.8545 34.0296C30.2893 34.0296 30.5677 33.9132 30.7303 33.6634L30.7659 33.6089V33.673V34.0018C30.7659 34.4043 30.5349 34.4806 30.1084 34.4806H23.191V35.2989H30.1017C31.0616 35.2989 31.4892 34.8804 31.4892 33.942L31.4825 31.6297C31.4096 31.5902 30.9085 31.3291 30.2526 31.3291ZM30.7659 32.2846V32.9951V33.0026L30.7609 33.0079C30.6279 33.1429 30.3851 33.2113 30.0399 33.2113C29.4108 33.2113 29.3618 32.8195 29.3618 32.6994C29.3618 32.5334 29.4403 32.148 30.1702 32.148C30.521 32.148 30.7465 32.2638 30.7559 32.2686L30.7659 32.2739V32.2846ZM40.549 30.687H39.867V30H40.549V30.687ZM40.9032 30H41.5852V30.687H40.9032V30ZM35.3287 33.5614C35.4674 33.5198 35.5999 33.4798 35.7268 33.4424C35.6004 33.4798 35.4674 33.5198 35.3287 33.5614ZM41.956 31.6307C41.8831 31.5907 41.3814 31.3291 40.7261 31.3291C39.7439 31.3291 39.0842 31.9195 39.0842 32.7976C39.0842 33.3933 39.411 34.0296 40.328 34.0296C40.7628 34.0296 41.0412 33.9132 41.2038 33.6634L41.2394 33.6089V33.673V34.0018C41.2394 34.4043 41.0084 34.4806 40.5819 34.4806H38.8386C38.6048 34.4806 38.4355 34.4806 38.3214 34.4192L38.308 34.4123L38.3119 34.3984C38.3615 34.2287 38.3865 34.0376 38.3865 33.831C38.3865 32.9294 37.847 32.369 36.9779 32.369C36.4618 32.369 35.8532 32.5841 35.2085 32.8115L35.0487 32.8675L35.0231 32.8766V32.8504V30.6448H34.3065V34.4625V34.4812H34.287H33.738C33.0849 34.4812 32.9981 34.3744 32.9981 33.9495V30.6448H32.2815V33.9495C32.2815 34.921 32.6456 35.2995 33.5799 35.2995H33.7375H36.7095C37.2457 35.2995 37.6577 35.1879 37.9328 34.968L37.9489 34.9552L37.9606 34.9722C38.1182 35.1959 38.3966 35.2995 38.837 35.2995H40.5735C41.5334 35.2995 41.961 34.881 41.961 33.9426L41.956 31.6307ZM37.2012 34.4224C37.1221 34.4401 37.0319 34.4507 36.93 34.4571C36.8621 34.4609 36.7891 34.463 36.7112 34.463H35.0437V33.6474C35.1416 33.6186 35.2369 33.5903 35.3293 33.5625C35.4679 33.5209 35.6004 33.4808 35.7274 33.4435C35.812 33.4184 35.8938 33.3949 35.9729 33.373C36.2107 33.3068 36.4245 33.255 36.6149 33.2278C36.7101 33.2145 36.7997 33.207 36.8832 33.207C36.9372 33.207 36.9896 33.2102 37.0397 33.2166C37.1149 33.2262 37.185 33.2428 37.2485 33.2679C37.2908 33.2844 37.3309 33.3042 37.3671 33.3282C37.4584 33.3874 37.5296 33.4691 37.5753 33.5769C37.6115 33.6629 37.6315 33.7653 37.6315 33.8854C37.631 34.2047 37.4912 34.3579 37.2012 34.4224ZM41.2394 32.2846V32.9951V33.0026L41.2344 33.0079C41.1014 33.1429 40.8586 33.2113 40.5134 33.2113C39.8843 33.2113 39.8353 32.8195 39.8353 32.6994C39.8353 32.5334 39.9138 32.148 40.6437 32.148C40.9945 32.148 41.22 32.2638 41.2294 32.2686L41.2394 32.2739V32.2846ZM30.6362 37.8958H31.0833V38.1926H30.6674C30.5861 38.1926 30.5382 38.2332 30.5382 38.3164V38.5347H30.9569V38.8315H30.5382V39.9178H30.1869V38.8315H29.928V38.5347H30.1869V38.2759C30.1858 38.0469 30.3294 37.8958 30.6362 37.8958ZM32.0137 38.5347H32.1573V38.8315H31.9803C31.7949 38.8315 31.6768 38.9068 31.6145 38.9959V39.9178H31.2631V38.5347H31.6145V38.7371C31.7075 38.6159 31.8394 38.5347 32.0137 38.5347ZM33.0571 38.4974C32.6016 38.4974 32.2921 38.8022 32.2921 39.2255C32.2921 39.6514 32.6016 39.9589 33.0571 39.9589C33.5153 39.9589 33.8221 39.6514 33.8221 39.2255C33.8221 38.8016 33.5153 38.4974 33.0571 38.4974ZM33.0571 39.6562C32.801 39.6562 32.6495 39.4865 32.6495 39.2249C32.6495 38.9687 32.8015 38.799 33.0571 38.799C33.3104 38.799 33.4646 38.9687 33.4646 39.2249C33.4652 39.4865 33.3104 39.6562 33.0571 39.6562ZM36.1756 38.958V39.9178H35.8437V39.0659C35.8437 38.9148 35.768 38.8043 35.5993 38.8043C35.4868 38.8043 35.3716 38.8716 35.307 38.9634V39.9178H34.9752V39.0659C34.9752 38.9148 34.9022 38.8043 34.7307 38.8043C34.6099 38.8043 34.4835 38.8822 34.4212 38.9906V39.9178H34.0921V38.5347H34.4212V38.6858C34.5309 38.5673 34.6912 38.4974 34.8655 38.4974C35.0537 38.4974 35.189 38.5839 35.2591 38.7237C35.3688 38.5833 35.5431 38.4974 35.7374 38.4974C36.0097 38.4974 36.1756 38.6831 36.1756 38.958ZM39.5218 37.6919V38.1771H39.0268V37.6919H39.5218ZM41.5613 39.2628L42 39.4032C41.9627 39.5324 41.8914 39.6584 41.7751 39.7662C41.6286 39.9029 41.4154 40 41.1376 40C40.8675 40 40.6242 39.9029 40.4516 39.7374C40.2757 39.5687 40.1665 39.3349 40.1665 39.0616C40.1665 38.7883 40.2718 38.555 40.4438 38.3858C40.6164 38.2203 40.8564 38.1232 41.1225 38.1232C41.4109 38.1232 41.6286 38.2241 41.7784 38.3639C41.8836 38.468 41.9543 38.594 41.9883 38.72L41.5423 38.8636C41.5201 38.7952 41.4861 38.7269 41.4299 38.673C41.3625 38.6084 41.2684 38.5652 41.1337 38.5652C41.0062 38.5652 40.8898 38.6084 40.8035 38.6912C40.7172 38.7776 40.6648 38.8999 40.6648 39.0616C40.6648 39.2196 40.7172 39.3456 40.8035 39.432C40.8898 39.5148 41.0095 39.5612 41.137 39.5612C41.2756 39.5612 41.3731 39.5143 41.4443 39.4497C41.505 39.3958 41.5423 39.3274 41.5613 39.2628ZM39.5218 38.1771H40.0168V38.6372H39.5218V38.1771ZM39.0268 38.6372H39.5218V39.3381C39.5218 39.4208 39.5407 39.4817 39.578 39.518C39.6231 39.5575 39.6833 39.5756 39.7657 39.5756C39.882 39.5756 39.9717 39.5361 40.0168 39.5036V39.8916C39.9566 39.9418 39.818 39.9995 39.6231 39.9995C39.4322 39.9995 39.2785 39.9456 39.1733 39.8447C39.0797 39.7513 39.0268 39.6183 39.0268 39.4529V38.6372ZM38.5769 39.0685C38.6744 39.162 38.7267 39.2842 38.7267 39.4208C38.7267 39.5719 38.6666 39.7011 38.5653 39.7982C38.4305 39.9242 38.2239 39.9995 37.9728 39.9995C37.7139 39.9995 37.4857 39.913 37.3431 39.7694C37.2529 39.6829 37.1934 39.5751 37.1817 39.4529L37.6093 39.3632C37.6132 39.4278 37.6393 39.4854 37.6844 39.5287C37.7479 39.5933 37.8492 39.6328 37.9728 39.6328C38.1454 39.6328 38.2501 39.5682 38.2501 39.4566C38.2501 39.3669 38.1866 39.3162 38.0441 39.2842L37.759 39.2196C37.5864 39.1801 37.4556 39.1155 37.3654 39.029C37.2752 38.9426 37.2307 38.8315 37.2307 38.6986C37.2307 38.5476 37.2941 38.4109 37.4066 38.3106C37.538 38.1958 37.729 38.1237 37.9578 38.1237C38.205 38.1237 38.4149 38.2065 38.5502 38.3356C38.6365 38.4184 38.6928 38.5187 38.7039 38.634L38.288 38.7237C38.2807 38.6661 38.254 38.6159 38.2167 38.5764C38.1566 38.5187 38.0669 38.4867 37.9617 38.4867C37.793 38.4867 37.6878 38.5588 37.6878 38.6629C37.6878 38.7419 37.7551 38.7995 37.8754 38.8209L38.1638 38.8748C38.3409 38.9068 38.4795 38.9751 38.5769 39.0685Z" fill="#4F008C"/>
</g>
</g>
</g>
<defs>
<clipPath id="clip0_1_45">
<rect width="50" height="50" fill="white"/>
</clipPath>
</defs>
</svg>
