<svg xmlns="http://www.w3.org/2000/svg" xmlns:xlink="http://www.w3.org/1999/xlink" width="26" height="26" viewBox="0 0 26 26"><defs><clipPath id="b"><rect width="26" height="26"/></clipPath></defs><g id="a" clip-path="url(#b)"><path d="M25.6,35.6a.442.442,0,0,0-.326-.276,6.818,6.818,0,0,1-4.26-2.7,5.661,5.661,0,0,1-1.131-2.611,3.261,3.261,0,0,1,1.195-.363A3.5,3.5,0,0,0,22.852,29a1.458,1.458,0,0,0,.4-1.263,1.662,1.662,0,0,0-.958-1.213c-.74-.37-1.989.111-2.8.51a7.073,7.073,0,1,0-13.36,0c-.812-.4-2.06-.881-2.8-.51a1.662,1.662,0,0,0-.958,1.213A1.458,1.458,0,0,0,2.776,29a3.5,3.5,0,0,0,1.77.654,3.261,3.261,0,0,1,1.195.363A5.66,5.66,0,0,1,4.61,32.626a6.818,6.818,0,0,1-4.26,2.7.446.446,0,0,0-.267.7,5.243,5.243,0,0,0,3.568,1.934L4,38.993a.447.447,0,0,0,.616.256,3.02,3.02,0,0,1,2.652-.028l.329.222a9.451,9.451,0,0,0,5.22,2.063,9.451,9.451,0,0,0,5.22-2.063l.329-.222a3.018,3.018,0,0,1,2.651.028.446.446,0,0,0,.617-.256l.345-1.035a5.243,5.243,0,0,0,3.568-1.934A.442.442,0,0,0,25.6,35.6Z" transform="translate(0.005 -16.373)" fill="#fff"/></g></svg>