<svg xmlns="http://www.w3.org/2000/svg" xmlns:xlink="http://www.w3.org/1999/xlink" width="497.972" height="260.826" viewBox="0 0 497.972 260.826">
  <defs>
    <linearGradient id="linear-gradient" x1="0.5" x2="0.5" y2="1.204" gradientUnits="objectBoundingBox">
      <stop offset="0" stop-color="#fff"/>
      <stop offset="0.384" stop-color="#fff"/>
      <stop offset="1" stop-color="#76b740" stop-opacity="0.502"/>
    </linearGradient>
    <linearGradient id="linear-gradient-2" x1="0.5" x2="0.5" y2="1.349" gradientUnits="objectBoundingBox">
      <stop offset="0" stop-color="#fff"/>
      <stop offset="0.388" stop-color="#fff"/>
      <stop offset="1" stop-color="#76b740" stop-opacity="0.502"/>
    </linearGradient>
    <linearGradient id="linear-gradient-3" x1="0.5" x2="0.5" y2="1.368" gradientUnits="objectBoundingBox">
      <stop offset="0" stop-color="#fff"/>
      <stop offset="0.357" stop-color="#fff"/>
      <stop offset="1" stop-color="#76b740" stop-opacity="0.502"/>
    </linearGradient>
  </defs>
  <g id="Group_4354" data-name="Group 4354" transform="translate(0 0.5)" opacity="0.265">
    <path id="Path_34188" data-name="Path 34188" d="M1227.373,409.936l-16.091,1.2-5.75,11.184-11.7,8.758-3.315,11.224-4.974,6.148.878,59.4,11.857,7.576V457.233l9.881-13.431,2.405-10.542,3.414-4.317,7.623-6.623Z" transform="translate(-1057.308 -314.395)" fill="#ebebeb"/>
    <path id="Path_34189" data-name="Path 34189" d="M1170.881,265.246,1158.8,279.723l.212,80.563,12.283-.045Z" transform="translate(-983.578 -265.246)" fill="#ebebeb"/>
    <path id="Path_34190" data-name="Path 34190" d="M1134.36,475.129V265.246h-48.747V489.418" transform="translate(-898.311 -265.246)" stroke="#4f4f4f" stroke-linecap="round" stroke-miterlimit="10" stroke-width="1" fill="url(#linear-gradient)"/>
    <path id="Path_34191" data-name="Path 34191" d="M1172.757,267.408l-9.662,13.05v80.563" transform="translate(-987.87 -265.98)" fill="none" stroke="#4f4f4f" stroke-linecap="round" stroke-miterlimit="10" stroke-width="1"/>
    <line id="Line_284" data-name="Line 284" y2="17.989" transform="translate(223.241 0.566)" fill="none" stroke="#4f4f4f" stroke-linecap="round" stroke-miterlimit="10" stroke-width="1"/>
    <line id="Line_285" data-name="Line 285" y2="61.153" transform="translate(211.676 1.551)" fill="none" stroke="#4f4f4f" stroke-linecap="round" stroke-miterlimit="10" stroke-width="1"/>
    <line id="Line_286" data-name="Line 286" y2="41.722" transform="translate(198.941 1.131)" fill="none" stroke="#4f4f4f" stroke-linecap="round" stroke-miterlimit="10" stroke-width="1"/>
    <line id="Line_287" data-name="Line 287" y2="58.768" transform="translate(223.241 26.373)" fill="none" stroke="#4f4f4f" stroke-linecap="round" stroke-miterlimit="10" stroke-width="1"/>
    <path id="Path_34192" data-name="Path 34192" d="M1170.172,558.2l-18.981,6.737a3.815,3.815,0,0,1-.406.119l-37.545,8.791a3.812,3.812,0,0,1-4.681-3.712V460.863a12.912,12.912,0,0,1,2.45-7.567l5.766-7.971a12.906,12.906,0,0,0,2.254-5.323l.475-2.689a12.908,12.908,0,0,1,4.032-7.312l6.169-5.6a12.912,12.912,0,0,0,3.621-5.642l.185-.58a12.91,12.91,0,0,1,12.3-9h20.871a12.911,12.911,0,0,1,11.766,7.6h0a12.889,12.889,0,0,0,2.637,3.816l3.618,3.618a12.912,12.912,0,0,1,3.781,9.129v16.789a12.909,12.909,0,0,1-5.293,10.424l-4.638,3.39a12.909,12.909,0,0,0-5.293,10.423v49.658" transform="translate(-967.588 -314.138)" fill="#fff" stroke="#4f4f4f" stroke-linecap="round" stroke-miterlimit="10" stroke-width="1"/>
    <rect id="Rectangle_1157" data-name="Rectangle 1157" width="74.629" height="58.994" transform="translate(262.18 165.528)" stroke="#4f4f4f" stroke-linecap="round" stroke-miterlimit="10" stroke-width="1" fill="url(#linear-gradient-2)"/>
    <rect id="Rectangle_1158" data-name="Rectangle 1158" width="22.727" height="97.625" transform="translate(393.544 136.102)" fill="#ebebeb"/>
    <rect id="Rectangle_1159" data-name="Rectangle 1159" width="13.105" height="88.495" transform="translate(346.06 135.677)" fill="#ebebeb"/>
    <path id="Path_34193" data-name="Path 34193" d="M1183.839,593.543s16.836,5.018,20.057,6.206,6.664,10.24,6.664,10.24l-28.292-.468Z" transform="translate(-1038.331 -376.764)" fill="#ebebeb"/>
    <path id="Path_34194" data-name="Path 34194" d="M896.111,348.175l-5.933,7.273V488.953h5.157Z" transform="translate(-531.013 -293.416)" fill="#ebebeb"/>
    <path id="Path_34195" data-name="Path 34195" d="M893.781,561.374H883.318v26.6l10.313,11.612Z" transform="translate(-524.152 -365.837)" fill="#ebebeb"/>
    <path id="Path_34196" data-name="Path 34196" d="M1051.6,581.9l-10.028,18.331h-35.555l-4.811,6.258h-6.88l8.2-9.572,34.913.748,10.293-15.946Z" transform="translate(-755.28 -372.749)" fill="#ebebeb"/>
    <path id="Path_34197" data-name="Path 34197" d="M995.557,561.374V575.11l-5.05.024v-13.76Z" transform="translate(-696.707 -365.837)" fill="#ebebeb"/>
    <rect id="Rectangle_1160" data-name="Rectangle 1160" width="5.05" height="13.736" transform="translate(312.684 195.537)" fill="#ebebeb"/>
    <rect id="Rectangle_1161" data-name="Rectangle 1161" width="9.076" height="140.491" transform="translate(417.204 92.355)" fill="#ebebeb"/>
    <path id="Path_34198" data-name="Path 34198" d="M1296.944,458.939s-5.27-1.025-7.026,10.321,0,71.071,0,71.071-2.917-5.549-4.977-4.867a8.422,8.422,0,0,1-4.392,0s-2.909-59.4.025-66.2,4.054-10.369,7.53-10.344S1296.944,458.939,1296.944,458.939Z" transform="translate(-1188.763 -331.033)" fill="#ebebeb"/>
    <path id="Path_34199" data-name="Path 34199" d="M1370.268,575.875s-3.953,29.095-5.465,28.632-16.3-2.05-16.3-2.05,10.574-20.5,14.611-23.275A20.1,20.1,0,0,1,1370.268,575.875Z" transform="translate(-1307.808 -370.762)" fill="#ebebeb"/>
    <path id="Path_34200" data-name="Path 34200" d="M1158.892,489.127a20.11,20.11,0,0,0-8.1-6.416c-5.442-2.409-14.542,5.2-14.542,5.2l8.5,2.522s-4.639,2.273-6,6.34a15.408,15.408,0,0,0-.839,7.706l20-11.608,22.348,4.464s-3.725-9.84-9.509-9.8,9.9-4.257,9.9-4.257-7.061-4.051-11.542-3.518C1162.009,480.6,1158.892,489.127,1158.892,489.127Z" transform="translate(-978.038 -338.096)" fill="#ebebeb"/>
    <path id="Path_34201" data-name="Path 34201" d="M1224.718,409.178l-18.844.66a6.39,6.39,0,0,0-4.871,4.507l-.708,2.479c-.553,1.935-2.444,5.818-4.166,6.861l-6.741,4.085a12.076,12.076,0,0,0-5.74,8.969l-.339,2.995a8.447,8.447,0,0,1-2.188,4.782l-3.393,3.676" transform="translate(-1049.492 -314.138)" fill="none" stroke="#4f4f4f" stroke-linecap="round" stroke-miterlimit="10" stroke-width="1"/>
    <line id="Line_288" data-name="Line 288" y2="11.345" transform="translate(140.971 189.682)" fill="none" stroke="#4f4f4f" stroke-linecap="round" stroke-miterlimit="10" stroke-width="1"/>
    <path id="Path_34202" data-name="Path 34202" d="M1127.867,594.935s-.84-6.044-8.673-9.568c-8.782-3.951-17.51-6.564-24.8-9.081a7.5,7.5,0,0,0-6.128.553l-33.582,18.1" transform="translate(-871.396 -370.762)" fill="#fff" stroke="#4f4f4f" stroke-linecap="round" stroke-miterlimit="10" stroke-width="1"/>
    <path id="Path_34203" data-name="Path 34203" d="M1087.8,604.25s0-4.322-6.608-7.819a40.371,40.371,0,0,0-6.05-2.888" transform="translate(-844.829 -376.764)" fill="none" stroke="#4f4f4f" stroke-linecap="round" stroke-miterlimit="10" stroke-width="1"/>
    <line id="Line_289" data-name="Line 289" x1="7.87" y1="3.691" transform="translate(213.388 208.975)" fill="none" stroke="#4f4f4f" stroke-linecap="round" stroke-miterlimit="10" stroke-width="1"/>
    <line id="Line_290" data-name="Line 290" x1="2.499" y1="1.169" transform="translate(224.604 214.02)" fill="none" stroke="#4f4f4f" stroke-linecap="round" stroke-miterlimit="10" stroke-width="1"/>
    <path id="Path_34204" data-name="Path 34204" d="M1182.267,593.3s14.053,1.1,21.629,6.367c6.4,4.453,6.664,10.239,6.664,10.239" transform="translate(-1038.331 -376.681)" fill="none" stroke="#4f4f4f" stroke-linecap="round" stroke-miterlimit="10" stroke-width="1"/>
    <path id="Path_34205" data-name="Path 34205" d="M1225.115,558.215c-.087.348,9.268,7.464,13.157,10.405a4.194,4.194,0,0,1,1.665,3.35V597.52" transform="translate(-1096.001 -364.763)" fill="#fff" stroke="#4f4f4f" stroke-linecap="round" stroke-miterlimit="10" stroke-width="1"/>
    <path id="Path_34206" data-name="Path 34206" d="M1247.562,534.194V469.983a11.032,11.032,0,0,1,11.032-11.032h15.264a11.032,11.032,0,0,1,11.032,11.032v62.089" transform="translate(-1155.777 -331.045)" fill="none" stroke="#4f4f4f" stroke-linecap="round" stroke-miterlimit="10" stroke-width="1"/>
    <line id="Line_291" data-name="Line 291" y2="3.989" transform="translate(129.113 204.43)" fill="none" stroke="#4f4f4f" stroke-linecap="round" stroke-miterlimit="10" stroke-width="1"/>
    <line id="Line_292" data-name="Line 292" y2="20.121" transform="translate(129.113 213.104)" fill="none" stroke="#4f4f4f" stroke-linecap="round" stroke-miterlimit="10" stroke-width="1"/>
    <line id="Line_293" data-name="Line 293" y2="37.622" transform="translate(121.502 135.665)" fill="none" stroke="#4f4f4f" stroke-linecap="round" stroke-miterlimit="10" stroke-width="1"/>
    <line id="Line_294" data-name="Line 294" y2="13.808" transform="translate(121.502 177.887)" fill="none" stroke="#4f4f4f" stroke-linecap="round" stroke-miterlimit="10" stroke-width="1"/>
    <path id="Path_34207" data-name="Path 34207" d="M1342.982,603.518l-13.243-22.943a9.4,9.4,0,0,0-8.141-4.7h-31.656a9.4,9.4,0,0,0-7.981,4.433l-13.783,22.149" transform="translate(-1227.482 -370.762)" fill="none" stroke="#4f4f4f" stroke-linecap="round" stroke-miterlimit="10" stroke-width="1"/>
    <line id="Line_295" data-name="Line 295" x1="1.171" y2="6.77" transform="translate(60.132 206.071)" fill="none" stroke="#4f4f4f" stroke-linecap="round" stroke-miterlimit="10" stroke-width="1"/>
    <line id="Line_296" data-name="Line 296" x1="2.227" y2="12.872" transform="translate(56.994 217.736)" fill="none" stroke="#4f4f4f" stroke-linecap="round" stroke-miterlimit="10" stroke-width="1"/>
    <line id="Line_297" data-name="Line 297" x1="11.638" transform="translate(199.38 104.942)" fill="none" stroke="#4f4f4f" stroke-linecap="round" stroke-miterlimit="10" stroke-width="1"/>
    <line id="Line_298" data-name="Line 298" x1="11.638" transform="translate(150.852 129.663)" fill="none" stroke="#4f4f4f" stroke-linecap="round" stroke-miterlimit="10" stroke-width="1"/>
    <line id="Line_299" data-name="Line 299" x1="11.638" transform="translate(181.484 135.665)" fill="none" stroke="#4f4f4f" stroke-linecap="round" stroke-miterlimit="10" stroke-width="1"/>
    <line id="Line_300" data-name="Line 300" x1="25.142" transform="translate(167.98 135.665)" fill="none" stroke="#4f4f4f" stroke-linecap="round" stroke-miterlimit="10" stroke-width="1"/>
    <line id="Line_301" data-name="Line 301" x1="7.466" transform="translate(155.024 135.665)" fill="none" stroke="#4f4f4f" stroke-linecap="round" stroke-miterlimit="10" stroke-width="1"/>
    <line id="Line_302" data-name="Line 302" x1="25.142" transform="translate(142.947 140.861)" fill="none" stroke="#4f4f4f" stroke-linecap="round" stroke-miterlimit="10" stroke-width="1"/>
    <line id="Line_303" data-name="Line 303" x1="18.445" transform="translate(395.685 135.665)" fill="none" stroke="#4f4f4f" stroke-linecap="round" stroke-miterlimit="10" stroke-width="1"/>
    <path id="Path_34208" data-name="Path 34208" d="M913.588,470.7h-10.54v88.508" transform="translate(-556.988 -335.036)" fill="none" stroke="#4f4f4f" stroke-linecap="round" stroke-miterlimit="10" stroke-width="1"/>
    <path id="Path_34210" data-name="Path 34210" d="M1014.151,606.127l-7.492-9.052-31.989.088L967.5,582.176h-9.515v5.331h-9.076V582.2h-9.954l-8.819,14.875h-35.39l-6.926,8.584" transform="translate(-647.494 -372.903)" fill="none" stroke="#4f4f4f" stroke-linecap="round" stroke-miterlimit="10" stroke-width="1"/>
    <line id="Line_307" data-name="Line 307" x1="24.191" transform="translate(286.297 218.934)" fill="none" stroke="#4f4f4f" stroke-linecap="round" stroke-miterlimit="10" stroke-width="1"/>
    <line id="Line_308" data-name="Line 308" x1="4.831" transform="translate(313.782 218.934)" fill="none" stroke="#4f4f4f" stroke-linecap="round" stroke-miterlimit="10" stroke-width="1"/>
    <rect id="Rectangle_1162" data-name="Rectangle 1162" width="5.05" height="13.736" transform="translate(312.684 195.537)" fill="none" stroke="#4f4f4f" stroke-linecap="round" stroke-miterlimit="10" stroke-width="1"/>
    <rect id="Rectangle_1163" data-name="Rectangle 1163" width="5.05" height="13.736" transform="translate(293.8 195.537)" fill="none" stroke="#4f4f4f" stroke-linecap="round" stroke-miterlimit="10" stroke-width="1"/>
    <path id="Path_34211" data-name="Path 34211" d="M955.976,492.2a16.668,16.668,0,0,0,29.4.137l7.42,3.816-6.807,41.721H956.891l-8.783-41.721Z" transform="translate(-665.946 -342.341)" fill="#fff" stroke="#4f4f4f" stroke-linecap="round" stroke-miterlimit="10" stroke-width="1"/>
    <path id="Path_34212" data-name="Path 34212" d="M978.542,521.868l-3.108-1.785-11.2,6.992,2.525,13.247H984.44l2.193-12.882-5.586-3.846" transform="translate(-670.436 -351.811)" fill="none" stroke="#4f4f4f" stroke-linecap="round" stroke-miterlimit="10" stroke-width="1"/>
    <path id="Path_34213" data-name="Path 34213" d="M966.594,508.377l-2.141,8.956-5.8-4.374h0a17.2,17.2,0,0,0,7.3-4.721l.125-.137A.3.3,0,0,1,966.594,508.377Z" transform="translate(-646.719 -347.706)" fill="none" stroke="#4f4f4f" stroke-linecap="round" stroke-miterlimit="10" stroke-width="1"/>
    <path id="Path_34214" data-name="Path 34214" d="M993.537,508.377l2.141,8.956,5.8-4.374h0a17.2,17.2,0,0,1-7.3-4.721l-.126-.137A.3.3,0,0,0,993.537,508.377Z" transform="translate(-704.625 -347.706)" fill="none" stroke="#4f4f4f" stroke-linecap="round" stroke-miterlimit="10" stroke-width="1"/>
    <path id="Path_34215" data-name="Path 34215" d="M981.944,351.262s6.148,8.315,6.148,27.282v29.406" transform="translate(-683.588 -294.464)" fill="none" stroke="#4f4f4f" stroke-linecap="round" stroke-miterlimit="10" stroke-width="1"/>
    <line id="Line_309" data-name="Line 309" y2="21.153" transform="translate(304.504 118.83)" fill="none" stroke="#4f4f4f" stroke-linecap="round" stroke-miterlimit="10" stroke-width="1"/>
    <line id="Line_310" data-name="Line 310" y2="7.246" transform="translate(304.504 147.229)" fill="none" stroke="#4f4f4f" stroke-linecap="round" stroke-miterlimit="10" stroke-width="1"/>
    <line id="Line_311" data-name="Line 311" y2="9.332" transform="translate(304.998 168.273)" fill="none" stroke="#4f4f4f" stroke-linecap="round" stroke-miterlimit="10" stroke-width="1"/>
    <line id="Line_312" data-name="Line 312" y2="7.191" transform="translate(304.998 181.319)" fill="none" stroke="#4f4f4f" stroke-linecap="round" stroke-miterlimit="10" stroke-width="1"/>
    <path id="Path_34216" data-name="Path 34216" d="M1034.178,322.656a41.868,41.868,0,0,0-9.7-1.793" transform="translate(-757.761 -284.138)" fill="none" stroke="#4f4f4f" stroke-linecap="round" stroke-miterlimit="10" stroke-width="1"/>
    <path id="Path_34217" data-name="Path 34217" d="M1010.506,337.419s-4.2-7.218-14.126-11.62" transform="translate(-715.534 -285.815)" fill="none" stroke="#4f4f4f" stroke-linecap="round" stroke-miterlimit="10" stroke-width="1"/>
    <path id="Path_34218" data-name="Path 34218" d="M996.646,377.941s.419-13.19-5.5-22.3" transform="translate(-698.225 -295.952)" fill="none" stroke="#4f4f4f" stroke-linecap="round" stroke-miterlimit="10" stroke-width="1"/>
    <path id="Path_34219" data-name="Path 34219" d="M1005.138,360.207s.449.505,1.73,4.817" transform="translate(-717.679 -297.503)" fill="none" stroke="#4f4f4f" stroke-linecap="round" stroke-miterlimit="10" stroke-width="1"/>
    <line id="Line_313" data-name="Line 313" y2="17.127" transform="translate(298.356 100.019)" fill="none" stroke="#4f4f4f" stroke-linecap="round" stroke-miterlimit="10" stroke-width="1"/>
    <g id="Group_1721" data-name="Group 1721" transform="translate(157.699 141.613)">
      <path id="Path_34220" data-name="Path 34220" d="M1170.3,577.9h-4.958l1.154-77.646a1.373,1.373,0,0,1,1.373-1.352h0a1.373,1.373,0,0,1,1.373,1.354Z" transform="translate(-1144.596 -486.228)" fill="none" stroke="#4f4f4f" stroke-linecap="round" stroke-miterlimit="10" stroke-width="1"/>
      <path id="Path_34221" data-name="Path 34221" d="M1169.263,510.251s-1.888-10.581,4.958-13.439c8.481-3.541,16.619.913,16.619.913Z" transform="translate(-1167.566 -485.054)" fill="none" stroke="#4f4f4f" stroke-linecap="round" stroke-miterlimit="10" stroke-width="1"/>
      <path id="Path_34222" data-name="Path 34222" d="M1136.3,496.321s1.97-4.744,8.481-5.318c8.872-.782,13.309,10.439,13.309,10.439Z" transform="translate(-1113.2 -483.532)" fill="none" stroke="#4f4f4f" stroke-linecap="round" stroke-miterlimit="10" stroke-width="1"/>
      <path id="Path_34223" data-name="Path 34223" d="M1135.743,491.221s-.912-5.142,4.417-9.3c7.262-5.67,17.31,1.362,17.31,1.362l-10.041,3.669" transform="translate(-1112.182 -479.709)" fill="none" stroke="#4f4f4f" stroke-linecap="round" stroke-miterlimit="10" stroke-width="1"/>
      <path id="Path_34224" data-name="Path 34224" d="M1176.34,491.448l-7.046-2.091s4.371-5.675,11.548-5.675a12.478,12.478,0,0,1,11.548,6.915" transform="translate(-1169.294 -481.059)" fill="none" stroke="#4f4f4f" stroke-linecap="round" stroke-miterlimit="10" stroke-width="1"/>
    </g>
    <line id="Line_314" data-name="Line 314" x1="6.822" y2="3.817" transform="translate(171.624 226.791)" fill="none" stroke="#4f4f4f" stroke-linecap="round" stroke-miterlimit="10" stroke-width="1"/>
    <path id="Path_34225" data-name="Path 34225" d="M789.319,618.448" transform="translate(-357.622 -385.224)" fill="none" stroke="#4f4f4f" stroke-linecap="round" stroke-miterlimit="10" stroke-width="1"/>
    <path id="Path_34226" data-name="Path 34226" d="M688.95,618.448" transform="translate(-190.978 -385.224)" fill="none" stroke="#4f4f4f" stroke-linecap="round" stroke-miterlimit="10" stroke-width="1"/>
    <rect id="Rectangle_1164" data-name="Rectangle 1164" width="26.057" height="37.687" transform="translate(369.628 195.537)" fill="none" stroke="#4f4f4f" stroke-linecap="round" stroke-miterlimit="10" stroke-width="1"/>
    <path id="Path_34227" data-name="Path 34227" d="M896.346,599.061V561.374H883.318v26.643" transform="translate(-526.718 -365.837)" fill="none" stroke="#4f4f4f" stroke-linecap="round" stroke-miterlimit="10" stroke-width="1"/>
    <rect id="Rectangle_1165" data-name="Rectangle 1165" width="23.129" height="146.68" transform="translate(369.479 48.857)" stroke="#4f4f4f" stroke-linecap="round" stroke-miterlimit="10" stroke-width="1" fill="url(#linear-gradient-3)"/>
    <path id="Path_34228" data-name="Path 34228" d="M883.544,486.1h10.313V339.948a.184.184,0,0,0-.328-.114l-9.985,12.756Z" transform="translate(-524.379 -290.559)" fill="none" stroke="#4f4f4f" stroke-linecap="round" stroke-miterlimit="10" stroke-width="1"/>
    <line id="Line_315" data-name="Line 315" y2="18.006" transform="translate(381.043 30.412)" fill="none" stroke="#4f4f4f" stroke-linecap="round" stroke-miterlimit="10" stroke-width="1"/>
    <line id="Line_316" data-name="Line 316" x1="10.759" transform="translate(370.542 74.629)" fill="none" stroke="#4f4f4f" stroke-linecap="round" stroke-miterlimit="10" stroke-width="1"/>
    <line id="Line_317" data-name="Line 317" x1="5.38" transform="translate(370.267 107.924)" fill="none" stroke="#4f4f4f" stroke-linecap="round" stroke-miterlimit="10" stroke-width="1"/>
    <line id="Line_318" data-name="Line 318" x1="2.69" transform="translate(383.662 138.227)" fill="none" stroke="#4f4f4f" stroke-linecap="round" stroke-miterlimit="10" stroke-width="1"/>
    <line id="Line_319" data-name="Line 319" x2="1.892" transform="translate(372.41 165.235)" fill="none" stroke="#4f4f4f" stroke-linecap="round" stroke-miterlimit="10" stroke-width="1"/>
    <line id="Line_320" data-name="Line 320" x1="10.612" transform="translate(381.996 107.924)" fill="none" stroke="#4f4f4f" stroke-linecap="round" stroke-miterlimit="10" stroke-width="1"/>
    <line id="Line_321" data-name="Line 321" x1="10.759" transform="translate(370.322 138.227)" fill="none" stroke="#4f4f4f" stroke-linecap="round" stroke-miterlimit="10" stroke-width="1"/>
    <line id="Line_322" data-name="Line 322" x1="15.516" transform="translate(376.216 165.235)" fill="none" stroke="#4f4f4f" stroke-linecap="round" stroke-miterlimit="10" stroke-width="1"/>
    <g id="Group_1722" data-name="Group 1722" transform="translate(417.204 92.822)">
      <rect id="Rectangle_1166" data-name="Rectangle 1166" width="28.985" height="140.402" transform="translate(0)" fill="none" stroke="#4f4f4f" stroke-linecap="round" stroke-miterlimit="10" stroke-width="1"/>
      <line id="Line_323" data-name="Line 323" x1="21.739" transform="translate(7.246 7.856)" fill="none" stroke="#4f4f4f" stroke-linecap="round" stroke-miterlimit="10" stroke-width="1"/>
      <line id="Line_324" data-name="Line 324" x1="2.415" transform="translate(0 7.856)" fill="none" stroke="#4f4f4f" stroke-linecap="round" stroke-miterlimit="10" stroke-width="1"/>
    </g>
    <path id="Path_34229" data-name="Path 34229" d="M1443.095,634.865" transform="translate(-1443.095 -390.8)" fill="none" stroke="#4f4f4f" stroke-linecap="round" stroke-miterlimit="10" stroke-width="1"/>
    <path id="Path_34230" data-name="Path 34230" d="M992.146,597.163l-7.173-14.987h-9.515v5.331h-9.076V582.2h-9.954l-8.819,14.875Z" transform="translate(-664.971 -372.903)" fill="#fff" stroke="#4f4f4f" stroke-linecap="round" stroke-miterlimit="10" stroke-width="1"/>
    <line id="Line_325" data-name="Line 325" x1="14.822" transform="translate(129.113 232.756)" fill="#fff" stroke="#4f4f4f" stroke-linecap="round" stroke-miterlimit="10" stroke-width="1"/>
    <rect id="Rectangle_1167" data-name="Rectangle 1167" width="12.187" height="18.736" transform="translate(130.431 214.02)" fill="#fff"/>
  </g>
</svg>
