<svg xmlns="http://www.w3.org/2000/svg" xmlns:xlink="http://www.w3.org/1999/xlink" width="50" height="50" viewBox="0 0 50 50"><defs><clipPath id="a"><path d="M4.461,0H26.538A4.462,4.462,0,0,1,31,4.462v9.076A4.462,4.462,0,0,1,26.538,18H4.463A4.463,4.463,0,0,1,0,13.537V4.461A4.461,4.461,0,0,1,4.461,0Z" transform="translate(-0.302 -0.246)" fill="none"/></clipPath><clipPath id="c"><rect width="50" height="50"/></clipPath></defs><g id="b" clip-path="url(#c)"><path d="M3278.081,953.578V940.292a2.024,2.024,0,0,1,2.024-2.024h0a2.024,2.024,0,0,1,2.024,2.024v7.739a2.024,2.024,0,0,1,2.024-2.024h0a2.025,2.025,0,0,1,2.024,2.024v2.381a2.025,2.025,0,0,1,2.024-2.024h0a2.024,2.024,0,0,1,2.024,2.024v2.381a2.024,2.024,0,0,1,2.024-2.024h0a2.024,2.024,0,0,1,2.024,2.024V963a2.25,2.25,0,0,1-2.25,2.25h-14.939c-3.908,0-3.562-3.46-3.562-3.46v-7.726a2.3,2.3,0,0,1,4.556-.483" transform="translate(-3245.899 -915.248)" fill="#149ade" fill-rule="evenodd"/><path d="M3273.546,959.256v-5.195a2.3,2.3,0,0,1,4.556-.483V940.292a2.024,2.024,0,0,1,2.024-2.024h0a2.024,2.024,0,0,1,2.025,2.024v7.739a2.024,2.024,0,0,1,2.024-2.024h0" transform="translate(-3245.919 -915.248)" fill="none" stroke="#55536f" stroke-linejoin="round" stroke-width="1"/><path d="M4.463,0H26.538A4.462,4.462,0,0,1,31,4.462v9.076A4.462,4.462,0,0,1,26.538,18H4.463A4.463,4.463,0,0,1,0,13.537V4.463A4.463,4.463,0,0,1,4.463,0Z" transform="translate(3 1)" fill="#fff"/><g transform="translate(3.302 1.246)"><g transform="translate(0 0)" clip-path="url(#a)"><rect width="31" height="4" transform="translate(-0.302 14.754)" fill="#76b740"/></g></g><path d="M3214.4,869.63v-9.76a1.159,1.159,0,0,0-1.206-1.1H3184.53a1.158,1.158,0,0,0-1.206,1.1v14.116a1.158,1.158,0,0,0,1.206,1.1" transform="translate(-3180.404 -857.767)" fill="none" stroke="#55536f" stroke-linejoin="round" stroke-width="1"/><line x2="18.735" transform="translate(6.206 19.323)" fill="none" stroke="#55536f" stroke-linejoin="round" stroke-width="1"/><line x1="1.818" y1="1.818" transform="translate(28.713 20.538)" fill="none" stroke="#55536f" stroke-linejoin="round" stroke-width="1"/><line y1="3.149" transform="translate(20.171 23.021)" fill="none" stroke="#55536f" stroke-linejoin="round" stroke-width="1"/><path d="M3218.324,924.767h0a1.915,1.915,0,0,0,1.917,1.917h8.489" transform="translate(-3205.821 -905.443)" fill="none" stroke="#55536f" stroke-linejoin="round" stroke-width="1"/><line y1="5" transform="translate(34 16)" fill="none" stroke="#55536f" stroke-linejoin="round" stroke-width="1"/><line x1="1.818" y2="1.818" transform="translate(37.889 20.538)" fill="none" stroke="#55536f" stroke-linejoin="round" stroke-width="1"/><line y2="6" transform="translate(17 21)" fill="none" stroke="#55536f" stroke-linejoin="round" stroke-width="1"/><path d="M3319.754,977.248a2.025,2.025,0,0,1,2.024-2.024h0" transform="translate(-3279.474 -942.084)" fill="none" stroke="#55536f" stroke-linejoin="round" stroke-width="1"/><path d="M3334.539,985.944a2.024,2.024,0,0,1,2.024-2.024h0a2.024,2.024,0,0,1,2.024,2.024v8.075" transform="translate(-3290.21 -948.398)" fill="none" stroke="#55536f" stroke-linejoin="round" stroke-width="1"/><line y2="9.814" transform="translate(32.182 34.195)" fill="none" stroke="#55536f" stroke-linejoin="round" stroke-width="1"/><line x2="20" transform="translate(8 28)" fill="none" stroke="#55536f" stroke-linejoin="round" stroke-width="1"/><path d="M3229.808,951.292a1.366,1.366,0,0,0-1.078-.525h-9.037a1.369,1.369,0,0,0-1.369,1.369" transform="translate(-3205.821 -924.324)" fill="none" stroke="#55536f" stroke-linejoin="round" stroke-width="1"/></g></svg>