<svg xmlns="http://www.w3.org/2000/svg" xmlns:xlink="http://www.w3.org/1999/xlink" width="26" height="26" viewBox="0 0 26 26"><defs><clipPath id="b"><rect width="26" height="26"/></clipPath></defs><g id="a" clip-path="url(#b)"><path d="M26,50.5a11.113,11.113,0,0,1-3.071.842A5.3,5.3,0,0,0,25.274,48.4a10.652,10.652,0,0,1-3.38,1.29,5.33,5.33,0,0,0-9.22,3.645,5.488,5.488,0,0,0,.123,1.216A15.087,15.087,0,0,1,1.81,48.972,5.332,5.332,0,0,0,3.448,56.1a5.264,5.264,0,0,1-2.408-.656V55.5A5.355,5.355,0,0,0,5.31,60.735a5.32,5.32,0,0,1-1.4.175A4.713,4.713,0,0,1,2.9,60.82a5.381,5.381,0,0,0,4.981,3.713,10.71,10.71,0,0,1-6.609,2.273A9.983,9.983,0,0,1,0,66.733a15.006,15.006,0,0,0,8.177,2.392A15.066,15.066,0,0,0,23.348,53.957c0-.236-.008-.463-.019-.689A10.633,10.633,0,0,0,26,50.5Z" transform="translate(0 -45.993)" fill="#fff"/></g></svg>