<svg xmlns="http://www.w3.org/2000/svg" xmlns:xlink="http://www.w3.org/1999/xlink" width="38" height="38" viewBox="0 0 38 38"><defs><clipPath id="b"><rect width="38" height="38"/></clipPath></defs><g id="a" clip-path="url(#b)"><path d="M610.1,287.553c-.415-.228-2.455-1.328-2.836-1.484s-.662-.236-.96.176-1.144,1.333-1.4,1.606-.506.3-.921.071a11.583,11.583,0,0,1-3.321-2.226,12.716,12.716,0,0,1-2.242-3.015c-.232-.432,0-.653.218-.856.2-.183.442-.479.663-.717a2.9,2.9,0,0,0,.448-.689.777.777,0,0,0-.008-.741c-.1-.215-.865-2.327-1.185-3.187s-.678-.732-.925-.742-.527-.054-.809-.065a1.552,1.552,0,0,0-1.147.487,4.737,4.737,0,0,0-1.613,3.471,8.218,8.218,0,0,0,1.563,4.436c.2.291,2.748,4.8,6.981,6.654s4.258,1.289,5.034,1.248a4.279,4.279,0,0,0,2.93-1.9,3.535,3.535,0,0,0,.322-2c-.1-.18-.377-.3-.792-.524Zm-7.766,10.025a13.7,13.7,0,0,1-7.584-2.28l-5.3,1.7,1.722-5.12a13.783,13.783,0,1,1,11.161,5.7Zm0-30.35a16.565,16.565,0,0,0-14.184,25.115l-2.99,8.885,9.169-2.935a16.5,16.5,0,0,0,8,2.06,16.717,16.717,0,0,0,15.643-11.1,15.879,15.879,0,0,0,.921-5.46,16.563,16.563,0,0,0-16.564-16.562Z" transform="translate(-583.027 -265.227)" fill="#fff" fill-rule="evenodd"/></g></svg>