<svg xmlns="http://www.w3.org/2000/svg" xmlns:xlink="http://www.w3.org/1999/xlink" width="26" height="26" viewBox="0 0 26 26"><defs><clipPath id="b"><rect width="26" height="26"/></clipPath></defs><g id="a" clip-path="url(#b)"><g transform="translate(0.318 0.176)"><path d="M-10552.63-1579.8a12.658,12.658,0,0,1-6.694-1.918l-5.287,1.885a.5.5,0,0,1-.178.032.523.523,0,0,1-.19-.037.522.522,0,0,1-.293-.277.523.523,0,0,1-.01-.4l1.973-5.123a12.659,12.659,0,0,1-2-6.844,12.6,12.6,0,0,1,3.713-8.97,12.6,12.6,0,0,1,8.969-3.718h.014a12.681,12.681,0,0,1,6.706,1.917,12.6,12.6,0,0,1,5.65,7.9,12.6,12.6,0,0,1-1.589,9.579,12.682,12.682,0,0,1-4.7,4.438A12.769,12.769,0,0,1-10552.63-1579.8Zm-3.7-19.031a3.175,3.175,0,0,0-2.644,3.171c0,1.662,1.986,4.85,3.325,6.189s4.525,3.328,6.188,3.328h.031a3.178,3.178,0,0,0,3.14-2.644v-1.058a.53.53,0,0,0-.294-.475l-.018-.008c-.312-.154-1.39-.685-2.088-1.05a1.216,1.216,0,0,0-.562-.134,3.19,3.19,0,0,0-1.941,1.052,6.332,6.332,0,0,1-2.121-1.347,6.321,6.321,0,0,1-1.35-2.121c.542-.546,1.382-1.595.917-2.5-.411-.8-1.048-2.086-1.058-2.108a.527.527,0,0,0-.47-.292Z" transform="translate(10565.304 1605.176)" fill="#fff" stroke="rgba(0,0,0,0)" stroke-miterlimit="10" stroke-width="1"/></g></g></svg>