<svg xmlns="http://www.w3.org/2000/svg" width="43.755" height="43.701" viewBox="0 0 43.755 43.701"><g transform="translate(-3716.675 -18276.801)"><path d="M344.325,454.758a21.348,21.348,0,1,1,38.983-.007" transform="translate(3374.738 17852.602)" fill="none" stroke="#565271" stroke-linejoin="round" stroke-width="1"/><path d="M384.423,482.079a21.345,21.345,0,0,1-38.471-1.059" transform="translate(3373.111 17826.34)" fill="none" stroke="#565271" stroke-linejoin="round" stroke-dashoffset="3.6" stroke-width="1" stroke-dasharray="1.8 1.8"/><path d="M601.717,280.722c-.275-.151-1.63-.882-1.883-.985s-.44-.157-.638.117-.76.885-.929,1.066-.336.2-.612.047a7.691,7.691,0,0,1-2.2-1.478,8.444,8.444,0,0,1-1.488-2c-.154-.287,0-.434.144-.568s.293-.318.44-.476a1.927,1.927,0,0,0,.3-.458.516.516,0,0,0-.005-.492c-.065-.143-.574-1.545-.787-2.116s-.45-.486-.614-.492-.35-.036-.537-.043a1.031,1.031,0,0,0-.761.323,3.145,3.145,0,0,0-1.071,2.3,5.456,5.456,0,0,0,1.037,2.945,11.513,11.513,0,0,0,4.635,4.418c2.812,1.231,2.827.856,3.343.828a2.841,2.841,0,0,0,1.945-1.263,2.347,2.347,0,0,0,.214-1.328c-.066-.12-.251-.2-.526-.348Zm-5.156,6.656a9.1,9.1,0,0,1-5.035-1.514l-3.518,1.126,1.143-3.4a9.151,9.151,0,1,1,7.41,3.787Zm0-20.151a11,11,0,0,0-9.417,16.675l-1.985,5.9,6.088-1.949a10.953,10.953,0,0,0,5.315,1.368,11.1,11.1,0,0,0,10.386-7.372,10.542,10.542,0,0,0,.612-3.625,11,11,0,0,0-11-11Z" transform="translate(3142.195 18019.799)" fill="#76b740" fill-rule="evenodd"/></g></svg>