<svg xmlns="http://www.w3.org/2000/svg" xmlns:xlink="http://www.w3.org/1999/xlink" width="26" height="26" viewBox="0 0 26 26"><defs><clipPath id="b"><rect width="26" height="26"/></clipPath></defs><g id="a" clip-path="url(#b)"><g transform="translate(246.235 173.288)"><path d="M-10702.233-1759.711c-.081,0-8.131-.006-10.159-.557a3.25,3.25,0,0,1-2.289-2.289,34.274,34.274,0,0,1-.535-6.244,34.389,34.389,0,0,1,.535-6.244,3.322,3.322,0,0,1,2.289-2.31c2.007-.529,10.076-.535,10.157-.535s8.149.006,10.159.557a3.249,3.249,0,0,1,2.286,2.288,32.822,32.822,0,0,1,.535,6.262,34.415,34.415,0,0,1-.535,6.248,3.258,3.258,0,0,1-2.286,2.288C-10694.086-1759.718-10702.152-1759.711-10702.233-1759.711Zm-2.59-12.981h0v7.782l6.759-3.891-6.759-3.891Z" transform="translate(10469 1609)" fill="#fff" stroke="rgba(0,0,0,0)" stroke-miterlimit="10" stroke-width="1"/></g></g></svg>