<svg xmlns="http://www.w3.org/2000/svg" xmlns:xlink="http://www.w3.org/1999/xlink" width="75" height="40" viewBox="0 0 75 40"><defs><clipPath id="b"><rect width="75" height="40"/></clipPath></defs><g id="a" clip-path="url(#b)"><g transform="translate(-90.163 -88.16)"><g transform="translate(98.163 98.16)"><g transform="translate(0 0)"><rect width="25.384" height="8.461" transform="translate(0 11.539)" fill="#7eaf00"/><rect width="25.384" height="8.461" fill="#0091d9"/></g><g transform="translate(28.459 0)"><path d="M636.213,221.4l-.111.022a3.551,3.551,0,0,1-.825.1c-.66,0-1.445-.336-1.445-1.939,0-.82.14-1.913,1.367-1.913h.009a3.686,3.686,0,0,1,.905.171l.1.028Zm.2-7.964-.2.035v2.955l-.176-.051-.054-.015a4.2,4.2,0,0,0-1.125-.2c-2.473,0-2.992,1.869-2.992,3.435a3.047,3.047,0,0,0,3.308,3.385,6.764,6.764,0,0,0,2.213-.311.976.976,0,0,0,.829-1.07v-8.475c-.594.108-1.206.211-1.8.309" transform="translate(-613.905 -203.127)" fill="#1a1818"/><path d="M721.6,252.946l-.1.026-.38.1a3.667,3.667,0,0,1-.911.145c-.579,0-.926-.29-.926-.774,0-.317.142-.85,1.091-.85H721.6Zm-.861-5.329a8.342,8.342,0,0,0-2.52.437l-.633.193.212,1.429.616-.2a7.253,7.253,0,0,1,2.059-.348c.273,0,1.1,0,1.1.9v.395h-1.154c-2.1,0-3.078.667-3.078,2.1,0,1.23.9,1.964,2.407,1.964a7.547,7.547,0,0,0,1.677-.227l.029-.007.029.006.186.032c.591.105,1.2.212,1.791.328v-4.706c0-1.522-.917-2.294-2.724-2.294" transform="translate(-691.95 -234.617)" fill="#1a1818"/><path d="M553.29,252.946l-.1.026-.38.1a3.706,3.706,0,0,1-.911.143c-.579,0-.924-.288-.924-.772,0-.316.14-.848,1.089-.848h1.228Zm-.861-5.329a8.328,8.328,0,0,0-2.52.437l-.632.193.212,1.429.616-.2a7.208,7.208,0,0,1,2.057-.348c.272,0,1.1,0,1.1.9v.393h-1.154c-2.1,0-3.078.668-3.078,2.1,0,1.23.9,1.964,2.407,1.964a7.526,7.526,0,0,0,1.677-.227l.029-.007.029.006.184.032c.592.1,1.2.212,1.793.328v-4.706c0-1.522-.917-2.294-2.724-2.294" transform="translate(-538.276 -234.617)" fill="#1a1818"/><path d="M432.453,247.765a5.068,5.068,0,0,0-2.044.456l-.075.035-.067-.05a3.066,3.066,0,0,0-1.831-.442,7.446,7.446,0,0,0-2.163.323c-.642.2-.892.5-.892,1.084v5.372h2v-4.966l.1-.032a2.661,2.661,0,0,1,.879-.159c.581,0,.874.307.874.913v4.245h1.977v-4.333a1.249,1.249,0,0,0-.061-.433l-.066-.13.135-.058a2.391,2.391,0,0,1,.981-.2.8.8,0,0,1,.875.913v4.245h1.976V250.1c0-1.569-.85-2.332-2.6-2.332" transform="translate(-425.379 -234.753)" fill="#1a1818"/><path d="M614.273,103.677a6.688,6.688,0,0,1-1.168-.1l-.111-.023v-2.9a1.162,1.162,0,0,0-.058-.412l-.063-.126.129-.056c.031-.015.063-.022.1-.035l.02-.013c.044-.016.088-.029.132-.042.02-.006.038-.013.058-.018a4.278,4.278,0,0,1,1.034-.121h.009c1.227,0,1.369,1.091,1.369,1.913,0,1.6-.787,1.939-1.445,1.939m0-5.516c-.018,0-.036,0-.053,0a3.552,3.552,0,0,0-2.761.934,1.866,1.866,0,0,0-.363,1.125v2.99a.8.8,0,0,1-.061.376l-.064.132h-3.641v-2.084h0c-.044-2.192-1.341-3.4-3.221-3.4h-1.834c-.079.535-.134.911-.212,1.443h1.825c.958,0,1.461.816,1.461,2.068v2.094l-.132-.064a1.229,1.229,0,0,0-.433-.061h-3.148c-.058.4-.136.918-.219,1.443h9.685c.326-.064.715-.124,1.047-.186a5.481,5.481,0,0,0,2.033.367,3.6,3.6,0,0,0,.1-7.181" transform="translate(-586.095 -98.16)" fill="#1a1818"/><path d="M436.548,106.856h.089c2.1,0,3.08-.695,3.08-2.405a2.206,2.206,0,0,0-2.407-2.211h-1.939a.831.831,0,0,1-.924-.886c0-.377.14-.85,1.088-.85h4.232c.088-.55.139-.9.221-1.442h-4.4c-2.05,0-3.078.855-3.078,2.291,0,1.416.9,2.154,2.407,2.154h1.938a.914.914,0,0,1,.926.943c0,.317-.142.971-1.089.971h-.326l-6.2-.013v0h-1.127c-.956,0-1.63-.548-1.63-1.8v-.872c0-1.309.52-2.125,1.63-2.125h1.848c.083-.56.136-.908.215-1.442h-2.512c-1.881,0-3.177,1.259-3.221,3.453h0v.08l0,.9a2.973,2.973,0,0,0,3.221,3.239h1.834l3.359.006v0h2.773Z" transform="translate(-425.357 -98.984)" fill="#1a1818"/></g></g></g></g></svg>