<svg xmlns="http://www.w3.org/2000/svg" xmlns:xlink="http://www.w3.org/1999/xlink" width="75" height="40" viewBox="0 0 75 40"><defs><clipPath id="b"><rect width="75" height="40"/></clipPath></defs><g id="a" clip-path="url(#b)"><g transform="translate(-1263.038 -949.874)"><path d="M1368.541,981.761l.61-.016.6-.044.59-.076.586-.1.57-.132.562-.16.551-.187.538-.212.526-.239.51-.259.495-.287.483-.307.463-.331.447-.351.431-.371.411-.395.395-.411.371-.431.351-.447.331-.463.307-.483.287-.494.259-.51.239-.527.211-.538.188-.55.159-.562.132-.57.1-.586.076-.59.044-.6.016-.61-.016-.606-.044-.6-.076-.59-.1-.578-.132-.57-.159-.558-.187-.551-.211-.534-.239-.522-.259-.51-.287-.491-.307-.483-.331-.463-.351-.443-.371-.431-.395-.411-.411-.391-.431-.371-.447-.351-.463-.331-.483-.307-.495-.283-.51-.259-.526-.239-.538-.211-.551-.187-.562-.16-.57-.132-.586-.1-.59-.076-.6-.044-.61-.016-.606.016-.6.044-.59.076-.582.1-.57.132-.562.16-.547.188-.538.211-.523.239-.506.259-.495.283-.479.307-.463.331-.447.351-.427.371-.411.391-.391.411-.371.431-.351.443-.327.463-.307.483-.283.491-.263.51-.236.522-.211.534-.184.551-.16.558-.131.57-.1.578-.076.59-.044.6-.016.606.016.61.044.6.076.59.1.586.131.57.16.562.184.55.211.538.236.527.263.51.283.494.307.483.327.463.351.447.371.431.391.411.411.395.427.371.447.351.463.331.479.307.495.287.506.259.523.239.538.212.547.187.562.16.57.132.582.1.59.076.6.044.606.016Z" transform="translate(-59.249)" fill="#ffa11c" fill-rule="evenodd"/><path d="M1293.474,981.761l.606-.016.6-.044.591-.076.582-.1.57-.132.563-.16.546-.187.539-.212.522-.239.507-.259.494-.287.479-.307.462-.331.447-.351.427-.371.411-.395.391-.411.371-.431.351-.447.327-.463.307-.483.283-.494.263-.51.235-.527.212-.538.183-.55.159-.562.132-.57.1-.586.076-.59.044-.6.016-.61-.016-.606-.044-.6-.076-.59-.1-.578-.132-.57-.159-.558-.183-.551-.212-.534-.235-.522-.263-.51-.283-.491-.307-.483-.327-.463-.351-.443-.371-.431-.391-.411-.411-.391-.427-.371-.447-.351-.462-.331-.479-.307-.494-.283-.507-.259-.522-.239-.539-.211-.546-.187-.562-.16-.57-.132-.582-.1-.591-.076-.6-.044-.606-.016-.61.016-.6.044-.59.076-.586.1-.57.132-.562.16-.55.188-.539.211-.526.239-.51.259-.495.283-.483.307-.463.331-.447.351-.431.371-.411.391-.395.411-.371.431-.351.443-.331.463-.307.483-.287.491-.259.51-.239.522-.211.534-.187.551-.16.558-.131.57-.1.578-.076.59-.044.6-.016.606.016.61.044.6.076.59.1.586.131.57.16.562.188.55.211.538.239.527.259.51.287.494.307.483.331.463.351.447.371.431.395.411.411.395.431.371.447.351.463.331.483.307.495.287.51.259.526.239.539.212.55.187.563.16.57.132.586.1.59.076.6.044.61.016Z" fill="#e50020" fill-rule="evenodd"/><path d="M1368.618,977.189h6.282v-.642h-5.739l-.542.642Z" transform="translate(-68.619 -14.54)" fill="#ffa11c" fill-rule="evenodd"/><path d="M1364.161,983.95h7.223v-.642h-6.844l-.379.642Z" transform="translate(-65.103 -19.874)" fill="#ffa11c" fill-rule="evenodd"/><path d="M1360.838,990.692h7.925v-.642h-7.646l-.279.642Z" transform="translate(-62.482 -25.192)" fill="#ffa11c" fill-rule="evenodd"/><path d="M1358.552,997.454h8.407v-.642h-8.208l-.2.642Z" transform="translate(-60.679 -30.526)" fill="#ffa11c" fill-rule="evenodd"/><path d="M1359.129,1030.127h8.148v-.642h-8.348l.2.642Z" transform="translate(-60.977 -56.299)" fill="#ffa11c" fill-rule="evenodd"/><path d="M1361.609,1036.888h7.546v-.642h-7.845l.3.642Z" transform="translate(-62.854 -61.632)" fill="#ffa11c" fill-rule="evenodd"/><path d="M1365.225,1043.63h6.7v-.642h-7.1l.4.642Z" transform="translate(-65.625 -66.951)" fill="#ffa11c" fill-rule="evenodd"/><path d="M1370.144,1050.377h5.536v-.646h-6.1l.563.646Z" transform="translate(-69.379 -72.27)" fill="#ffa11c" fill-rule="evenodd"/><path d="M1357.211,1004.2h8.691v-.642h-8.567l-.123.642Z" transform="translate(-59.621 -35.844)" fill="#ffa11c" fill-rule="evenodd"/><path d="M1382.292,1023.384h3.314v-.642h-3.195l-.12.642Z" transform="translate(-79.405 -50.98)" fill="#ffa11c" fill-rule="evenodd"/><path d="M1383.538,1016.627h3.051v-.646h-2.931l-.12.646Z" transform="translate(-80.389 -45.647)" fill="#ffa11c" fill-rule="evenodd"/><path d="M1356.172,1015.981h.862v.646h-.822l-.04-.646Z" transform="translate(-58.801 -45.647)" fill="#ffa11c" fill-rule="evenodd"/><path d="M1336.047,1008.544l-.056,0-.056-.008-.052-.008-.052-.008-.048-.008-.052-.008-.052-.008-.056-.008-.056-.008-.064,0-.072,0-.076,0h-.084l-.092,0-.1.008-.116.008-.08.012-.076.012-.068.024-.06.024-.056.028-.052.032-.04.04-.036.036-.024.044-.02.044-.008.048v.048l.012.052.016.052.032.052.04.052.08.076.1.06.112.052.12.044.128.04.132.044.132.048.128.052.12.068.112.084.1.1.083.124.064.152.04.179.016.215-.016.251-.028.187-.048.164-.064.151-.08.132-.092.116-.1.1-.112.088-.124.076-.127.06-.132.052-.136.04-.139.032-.136.024-.131.012-.132.008-.124,0h-.172l-.16,0h-.139l-.132,0-.12,0-.108-.008-.1-.008-.092-.012-.084-.008-.076-.016-.076-.012-.068-.02-.068-.016-.064-.024-.064-.024-.068-.024.18-.881.036.008.044.012.056.016.068.016.072.016.08.016.088.02.1.016.1.016.1.016.108.012.112.012.116,0,.116,0h.116l.116,0,.116-.024.092-.032.072-.044.056-.056.04-.056.032-.064.02-.064.016-.06.008-.116-.036-.1-.068-.08-.1-.068-.12-.06-.14-.06-.156-.056-.155-.064-.16-.072-.152-.084-.139-.1-.128-.124-.1-.152-.072-.179-.036-.215,0-.255.02-.156.028-.148.04-.136.048-.128.064-.12.072-.1.084-.1.1-.088.115-.076.128-.064.143-.06.16-.044.179-.036.2-.028.216-.016.235,0h.147l.136,0,.124,0,.112,0,.1.008.092.008.079.008.072.008.068.008.056.012.052.008.048.008.04.008.036,0,.036.008.032,0-.2.9Z" transform="translate(-40.284 -38.988)" fill="#fff" fill-rule="evenodd"/><path d="M1336.047,1008.544h0l-.056,0-.056-.008-.052-.008-.052-.008-.048-.008-.052-.008-.052-.008-.056-.008-.056-.008-.064,0-.072,0-.076,0h-.084l-.092,0-.1.008-.116.008h0l-.08.012-.076.012-.068.024-.06.024-.056.028-.052.032-.04.04-.036.036-.024.044-.02.044-.008.048v.048l.012.052.016.052.032.052.04.052h0l.08.076.1.06.112.052.12.044.128.04.132.044.132.048.128.052.12.068.112.084.1.1.083.124.064.152.04.179.016.215-.016.251h0l-.028.187-.048.164-.064.151-.08.132-.092.116-.1.1-.112.088-.124.076-.127.06-.132.052-.136.04-.139.032-.136.024-.131.012-.132.008-.124,0h-.172l-.16,0h-.139l-.132,0-.12,0-.108-.008-.1-.008-.092-.012-.084-.008-.076-.016-.076-.012-.068-.02-.068-.016-.064-.024-.064-.024-.068-.024.18-.881h0l.036.008.044.012.056.016.068.016.072.016.08.016.088.02.1.016.1.016.1.016.108.012.112.012.116,0,.116,0h.116l.116,0h0l.116-.024.092-.032.072-.044.056-.056.04-.056.032-.064.02-.064.016-.06h0l.008-.116-.036-.1-.068-.08-.1-.068-.12-.06-.14-.06-.156-.056-.155-.064-.16-.072-.152-.084-.139-.1-.128-.124-.1-.152-.072-.179-.036-.215,0-.255h0l.02-.156.028-.148.04-.136.048-.128.064-.12.072-.1.084-.1.1-.088.115-.076.128-.064.143-.06.16-.044.179-.036.2-.028.216-.016.235,0h.147l.136,0,.124,0,.112,0,.1.008.092.008.079.008.072.008.068.008.056.012.052.008.048.008.04.008.036,0,.036.008.032,0-.2.9" transform="translate(-40.284 -38.988)" fill="none" stroke="#fff" stroke-miterlimit="2.613" stroke-width="0.216"/><path d="M1350.1,1003.365h1.1l-.164.965h.666l-.144.9-.7-.02-.383,2.225,0,.08.02.068.04.052.052.044.072.028.08.024.088.016.1.008.088,0,.08-.008.072-.012.064-.016.052-.016.036-.012.024-.008.008,0-.139.742-.028.02-.028.016-.028.016-.028.016-.028.012-.032.012-.036.012-.036.012-.04.012-.04.008-.048.008-.048.008-.052.008-.06.008-.064.008-.068.008h-.3l-.16-.012-.14-.016-.127-.024-.108-.028-.092-.036-.076-.04-.068-.048-.052-.052-.04-.056-.028-.068-.02-.068-.012-.076,0-.084v-.088l.012-.092.012-.1.762-4.351Z" transform="translate(-53.394 -35.695)" fill="#fff" fill-rule="evenodd"/><path d="M1350.1,1003.365h1.1l-.164.965h.666l-.144.9-.7-.02-.383,2.225h0l0,.08.02.068.04.052.052.044.072.028.08.024.088.016.1.008h0l.088,0,.08-.008.072-.012.064-.016.052-.016.036-.012.024-.008.008,0-.139.742h0l-.028.02-.028.016-.028.016-.028.016-.028.012-.032.012-.036.012-.036.012-.04.012-.04.008-.048.008-.048.008-.052.008-.06.008-.064.008-.068.008h-.3l-.16-.012-.14-.016-.127-.024-.108-.028-.092-.036-.076-.04-.068-.048-.052-.052-.04-.056-.028-.068-.02-.068-.012-.076,0-.084v-.088l.012-.092.012-.1.762-4.351" transform="translate(-53.394 -35.695)" fill="none" stroke="#fff" stroke-miterlimit="2.613" stroke-width="0.216"/><path d="M1360.472,1010.028l-.012.068,0,.072.008.076.016.076.028.076.032.072.044.076.048.068.056.068.06.06.064.06.072.048.072.044.08.036.08.028.08.016.1.016.1.012.1.012.1.008.1,0h.108l.1,0,.108-.008.108-.016.108-.02.112-.024.108-.036.112-.044.116-.048.112-.064.116-.068-.16.981-.064.032-.064.032-.064.024-.06.024-.06.02-.064.02-.064.016-.068.012-.072.012-.08.008-.084.008-.092.008-.1,0h-.108l-.124,0h-.132l-.2,0-.2-.02-.2-.028-.2-.048-.2-.06-.187-.076-.179-.1-.167-.116-.156-.136-.136-.163-.116-.183-.1-.211-.068-.235-.044-.267-.012-.3.02-.327.016-.128.024-.148.032-.156.044-.167.06-.172.072-.172.092-.176.111-.168.128-.159.156-.152.175-.136.2-.12.231-.1.259-.072.287-.048.323-.016.156,0,.164.016.163.028.164.04.159.06.156.072.143.1.132.112.12.136.1.16.08.183.056.211.032.239,0,.271-.028.3-.06.335-.02.243h-2.907l.183-.786h1.747l.008-.1,0-.1-.008-.088-.016-.08-.028-.076-.028-.068-.04-.06-.04-.056-.048-.048-.052-.04-.06-.036-.06-.032-.064-.024-.064-.016-.068-.012-.072-.008-.076,0-.072.012-.068.016-.068.024-.068.032-.06.036-.06.044-.052.048-.052.056-.048.06-.044.064-.036.068-.036.072-.028.08-.024.08-.016.084-.159.826Z" transform="translate(-61.275 -38.988)" fill="#fff" fill-rule="evenodd"/><path d="M1360.472,1010.028h0l-.012.068,0,.072.008.076.016.076.028.076.032.072.044.076.048.068.056.068.06.06.064.06.072.048.072.044.08.036.08.028.08.016h0l.1.016.1.012.1.012.1.008.1,0h.108l.1,0,.108-.008.108-.016.108-.02.112-.024.108-.036.112-.044.116-.048.112-.064.116-.068-.16.981h0l-.064.032-.064.032-.064.024-.06.024-.06.02-.064.02-.064.016-.068.012-.072.012-.08.008-.084.008-.092.008-.1,0h-.108l-.124,0h-.132l-.2,0-.2-.02-.2-.028-.2-.048-.2-.06-.187-.076-.179-.1-.167-.116-.156-.136-.136-.163-.116-.183-.1-.211-.068-.235-.044-.267-.012-.3.02-.327h0l.016-.128.024-.148.032-.156.044-.167.06-.172.072-.172.092-.176.111-.168.128-.159.156-.152.175-.136.2-.12.231-.1.259-.072.287-.048.323-.016h0l.156,0,.164.016.163.028.164.04.159.06.156.072.143.1.132.112.12.136.1.16.08.183.056.211.032.239,0,.271-.028.3-.06.335-.02.243h-2.907l.183-.786h1.747l.008-.1,0-.1-.008-.088-.016-.08-.028-.076-.028-.068-.04-.06-.04-.056-.048-.048-.052-.04-.06-.036-.06-.032-.064-.024-.064-.016-.068-.012-.072-.008h0l-.076,0-.072.012-.068.016-.068.024-.068.032-.06.036-.06.044-.052.048-.052.056-.048.06-.044.064-.036.068-.036.072-.028.08-.024.08-.016.084-.159.826" transform="translate(-61.275 -38.988)" fill="none" stroke="#fff" stroke-miterlimit="2.613" stroke-width="0.216"/><path d="M1394.67,1003.9l-.052-.028-.052-.024-.056-.028-.06-.028-.06-.024-.068-.024-.068-.024-.072-.024-.076-.02-.076-.016-.084-.016-.084-.012-.092-.008-.092-.008h-.3l-.1.008-.108.012-.112.02-.112.032-.112.044-.112.056-.112.072-.108.088-.1.1-.1.128-.1.148-.088.176-.084.2-.076.223-.064.255-.024.143-.016.14-.008.14,0,.135.012.136.028.128.036.12.044.12.06.108.072.1.084.092.1.084.108.072.124.06.135.052.152.036.052.012.06.012.072.008.08.008.088.008h.191l.1-.008.1-.012.1-.02.1-.028.1-.032.1-.044.092-.052.084-.064.08-.072-.179,1.065-.024.02-.024.024-.032.028-.036.024-.044.032-.056.028-.064.028-.072.024-.092.028-.1.02-.12.016-.14.016-.156.008-.179,0-.2,0-.223-.012-.184-.02-.184-.04-.183-.06-.184-.08-.175-.1-.168-.12-.16-.14-.147-.16-.132-.179-.112-.2-.1-.223-.072-.243-.048-.267-.016-.283.008-.311.044-.331.032-.164.036-.159.04-.156.04-.148.044-.14.052-.14.052-.132L1391,1004l.06-.124.06-.116.068-.112.072-.1.072-.1.08-.1.08-.088.084-.084.092-.08.091-.076.1-.068.1-.064.108-.06.108-.052.111-.048.116-.044.124-.04.123-.032.128-.028.136-.024.136-.02.143-.016.144-.008.151,0,.128,0,.124.008.12.012.12.016.112.016.108.024.1.02.1.024.092.024.08.024.076.024.064.024.056.02.048.016.036.016.024.008-.2,1.1Z" transform="translate(-85.96 -35.025)" fill="#fff" fill-rule="evenodd"/><path d="M1394.67,1003.9h0l-.052-.028-.052-.024-.056-.028-.06-.028-.06-.024-.068-.024-.068-.024-.072-.024-.076-.02-.076-.016-.084-.016-.084-.012-.092-.008-.092-.008h-.3l-.1.008-.108.012-.112.02-.112.032-.112.044-.112.056-.112.072-.108.088-.1.1-.1.128-.1.148-.088.176-.084.2-.076.223-.064.255h0l-.024.143-.016.14-.008.14,0,.135.012.136.028.128.036.12.044.12.06.108.072.1.084.092.1.084.108.072.124.06.135.052.152.036h0l.052.012.06.012.072.008.08.008.088.008h.191l.1-.008.1-.012.1-.02.1-.028.1-.032.1-.044.092-.052.084-.064.08-.072-.179,1.065h0l-.024.02-.024.024-.032.028-.036.024-.044.032-.056.028-.064.028-.072.024-.092.028-.1.02-.12.016-.14.016-.156.008-.179,0-.2,0-.223-.012h0l-.184-.02-.184-.04-.183-.06-.184-.08-.175-.1-.168-.12-.16-.14-.147-.16-.132-.179-.112-.2-.1-.223-.072-.243-.048-.267-.016-.283.008-.311.044-.331h0l.032-.164.036-.159.04-.156.04-.148.044-.14.052-.14.052-.132L1391,1004l.06-.124.06-.116.068-.112.072-.1.072-.1.08-.1.08-.088.084-.084.092-.08.091-.076.1-.068.1-.064.108-.06.108-.052.111-.048.116-.044.124-.04.123-.032.128-.028.136-.024.136-.02.143-.016.144-.008.151,0h0l.128,0,.124.008.12.012.12.016.112.016.108.024.1.02.1.024.092.024.08.024.076.024.064.024.056.02.048.016.036.016.024.008-.2,1.1" transform="translate(-85.96 -35.025)" fill="none" stroke="#fff" stroke-miterlimit="2.613" stroke-width="0.216"/><path d="M1442.717,1008.676h-1.1l.08-.443v-.04l-.064.08-.068.072-.068.064-.072.056-.072.052-.072.044-.072.036-.076.036-.076.028-.076.02-.076.02-.08.012-.08.012-.076.008-.08,0h-.08l-.208-.016-.192-.044-.176-.068-.16-.092-.143-.116-.128-.135-.112-.148-.1-.167-.08-.179-.064-.187-.044-.2-.032-.2-.012-.2,0-.207.02-.2.036-.2.059-.235.072-.223.084-.2.1-.191.1-.18.12-.16.124-.144.132-.132.14-.116.147-.1.152-.088.152-.068.159-.056.16-.036.16-.024.163-.008.116,0,.112.012.1.02.1.028.092.032.08.036.08.044.072.044.064.048.06.052.052.052.048.052.04.052.036.052.032.048.024.048h0l.279-1.567h1.085l-.9,5.217Z" transform="translate(-124.188 -35.77)" fill="#fff" fill-rule="evenodd"/><path d="M1442.717,1008.676h-1.1l.08-.443v-.04h0l-.064.08-.068.072-.068.064-.072.056-.072.052-.072.044-.072.036-.076.036-.076.028-.076.02-.076.02-.08.012-.08.012-.076.008-.08,0h-.08l-.208-.016-.192-.044-.176-.068-.16-.092-.143-.116-.128-.135-.112-.148-.1-.167-.08-.179-.064-.187-.044-.2-.032-.2-.012-.2,0-.207.02-.2.036-.2h0l.059-.235.072-.223.084-.2.1-.191.1-.18.12-.16.124-.144.132-.132.14-.116.147-.1.152-.088.152-.068.159-.056.16-.036.16-.024.163-.008h0l.116,0,.112.012.1.02.1.028.092.032.08.036.08.044.072.044.064.048.06.052.052.052.048.052.04.052.036.052.032.048.024.048h0l.279-1.567h1.085l-.9,5.217" transform="translate(-124.188 -35.77)" fill="none" stroke="#fff" stroke-miterlimit="2.613" stroke-width="0.216"/><path d="M1445.708,1014.832l.112-.008.1-.024.1-.028.092-.044.084-.048.08-.06.075-.068.068-.072.06-.08.056-.088.052-.092.044-.1.04-.1.032-.1.028-.108.02-.108.02-.112.012-.116v-.108l0-.112-.012-.1-.016-.1-.028-.1-.032-.092-.04-.08-.048-.076-.052-.064-.06-.056-.068-.048-.072-.032-.075-.02-.084-.008-.108.008-.1.016-.092.032-.092.04-.079.052-.08.064-.068.068-.068.076-.06.088-.056.092-.052.1-.044.1-.04.108-.032.108-.032.116-.024.116-.02.175.008.192.028.2.052.187.08.164.1.132.132.088.159.032Z" transform="translate(-128.985 -42.891)" fill="#ffa11c" fill-rule="evenodd"/><path d="M1318.256,1011.128l-.159.885h-1.005l.028-.164.02-.148.016-.112.016-.06-.056.064-.064.064-.076.06-.084.056-.1.056-.1.048-.1.048-.108.04-.115.036-.116.028-.116.024-.12.016-.116.008-.116,0-.112-.012-.108-.016-.14-.036-.128-.04-.112-.052-.1-.06-.088-.064-.08-.072-.064-.076-.056-.08-.048-.084-.04-.088-.032-.088-.024-.088-.016-.092-.012-.092-.008-.088v-.088l.012-.156.024-.148.04-.14.052-.136.064-.128.072-.116.084-.112.1-.1.1-.092.112-.084.116-.076.12-.064.128-.056.132-.044.135-.036.14-.024h.008l.02,0,.028,0,.044,0,.048-.008.056,0,.06-.008.068-.008.068-.008.068-.008.072,0,.064-.008.064,0,.06,0,.056,0h.136l.1,0,.088,0h.088l.072,0,.056,0,.04,0h.012l.008-.028.024-.072.02-.084.008-.076-.016-.088-.036-.08-.048-.072-.064-.06-.076-.052-.084-.036-.1-.024-.1-.008-.112,0-.12,0h-.124l-.128,0-.132.008-.127.012-.128.012-.124.016-.12.016-.116.02-.1.02-.1.02-.088.024-.072.024-.056.028-.044.024.283-.961.088-.036.088-.032.1-.028.1-.02.1-.02.1-.016.1-.016.108-.008.111-.008.116,0,.12,0h.383l.139,0,.14,0,.112.008.12.02.124.028.128.036.124.048.12.056.12.068.112.076.1.088.088.1.08.108.06.12.04.128.024.136v.151l-.024.16-.4,2.106Z" transform="translate(-26.026 -39.107)" fill="#fff" fill-rule="evenodd"/><path d="M1318.256,1011.128l-.159.885h-1.005l.028-.164.02-.148.016-.112.016-.06h0l-.056.064-.064.064-.076.06-.084.056-.1.056-.1.048-.1.048-.108.04-.115.036-.116.028-.116.024-.12.016-.116.008-.116,0-.112-.012-.108-.016h0l-.14-.036-.128-.04-.112-.052-.1-.06-.088-.064-.08-.072-.064-.076-.056-.08-.048-.084-.04-.088-.032-.088-.024-.088-.016-.092-.012-.092-.008-.088v-.088h0l.012-.156.024-.148.04-.14.052-.136.064-.128.072-.116.084-.112.1-.1.1-.092.112-.084.116-.076.12-.064.128-.056.132-.044.135-.036.14-.024h.008l.02,0,.028,0,.044,0,.048-.008.056,0,.06-.008.068-.008.068-.008.068-.008.072,0,.064-.008.064,0,.06,0,.056,0h.136l.1,0,.088,0h.088l.072,0,.056,0,.04,0h.012l.008-.028.024-.072.02-.084.008-.076h0l-.016-.088-.036-.08-.048-.072-.064-.06-.076-.052-.084-.036-.1-.024-.1-.008h0l-.112,0-.12,0h-.124l-.128,0-.132.008-.127.012-.128.012-.124.016-.12.016-.116.02-.1.02-.1.02-.088.024-.072.024-.056.028-.044.024.283-.961h0l.088-.036.088-.032.1-.028.1-.02.1-.02.1-.016.1-.016.108-.008.111-.008.116,0,.12,0h.383l.139,0,.14,0h0l.112.008.12.02.124.028.128.036.124.048.12.056.12.068.112.076.1.088.088.1.08.108.06.12.04.128.024.136v.151l-.024.16-.4,2.106" transform="translate(-26.026 -39.107)" fill="none" stroke="#fff" stroke-miterlimit="2.613" stroke-width="0.216"/><path d="M1321.928,1018.772l0-.02-.016-.02-.024-.012-.04-.008-.044-.008-.052,0h-.12l-.064,0-.068.008-.064.008-.064.008-.06.008-.056.012-.048.012-.044.012-.028.008-.032.012-.044.016-.044.02-.052.024-.052.028-.056.028-.052.032-.056.04-.052.04-.048.048-.044.048-.04.052-.028.056-.024.064-.012.064,0,.136.02.108.04.08.052.06.06.04.068.024.064.012.064,0,.12,0,.107-.012.1-.016.092-.024.08-.028.076-.036.068-.036.06-.044.052-.04.048-.048.04-.044.032-.048.028-.048.024-.048.02-.044.012-.044.032-.116.028-.132.024-.128.02-.1Z" transform="translate(-30.66 -47.792)" fill="#e50020" fill-rule="evenodd"/><path d="M1288.039,1008.6h-1.085l.906-5.237h1.886l.18,3.107,1.3-3.107h1.97l-.925,5.237h-1.085l.686-3.913h-.044l-1.623,3.913h-1.224l-.008-.163-.028-.435-.036-.618-.04-.71-.04-.714-.036-.626-.028-.454-.008-.192h-.06l-.662,3.913Z" transform="translate(-4.201 -35.695)" fill="#fff" fill-rule="evenodd"/><path d="M1288.039,1008.6h-1.085l.906-5.237h1.886l.18,3.107,1.3-3.107h1.97l-.925,5.237h-1.085l.686-3.913h-.044l-1.623,3.913h-1.224l-.008-.163-.028-.435-.036-.618-.04-.71-.04-.714-.036-.626-.028-.454-.008-.192h-.06l-.662,3.913" transform="translate(-4.201 -35.695)" fill="none" stroke="#fff" stroke-miterlimit="2.613" stroke-width="0.216"/><path d="M1412.063,1011.128l-.164.885h-1l.008-.164,0-.144v-.108l.008-.048-.052.06-.06.06-.072.056-.08.056-.084.052-.1.048-.1.048-.1.04-.108.032-.112.032-.112.02-.111.016-.116.008-.112,0-.108-.012-.108-.016-.144-.036-.128-.04-.111-.052-.1-.06-.088-.064-.076-.072-.064-.076-.056-.08-.048-.084-.036-.088-.032-.088-.02-.088-.016-.092-.012-.092-.008-.088v-.088l.008-.156.024-.148.036-.14.052-.136.06-.128.076-.116.084-.112.092-.1.1-.092.108-.084.116-.076.124-.064.124-.056.132-.044.131-.036.135-.024h.008l.02,0,.028,0,.04,0,.052-.008.056,0,.06-.008.064-.008.068-.008.072-.008.068,0,.068-.008.064,0,.056,0,.056,0h.14l.1,0,.092,0h.088l.076,0,.064,0,.036,0h.016l.008-.028.012-.072.012-.084.008-.076-.016-.088-.032-.08-.052-.072-.06-.06-.072-.052-.084-.036-.088-.024-.1-.008-.112,0-.12,0h-.124l-.128,0-.132.008-.128.012-.128.012-.124.016-.12.016-.116.02-.1.02-.1.02-.088.024-.072.024-.056.028-.044.024.279-.961.088-.036.092-.032.092-.028.1-.02.1-.02.1-.016.1-.016.108-.008.112-.008.116,0,.116,0h.375l.136,0,.136,0,.112.008.12.02.124.028.128.036.124.048.124.056.12.068.112.076.1.088.092.1.08.108.06.12.044.128.028.136v.151l-.02.16-.419,2.106Z" transform="translate(-100.039 -39.107)" fill="#fff" fill-rule="evenodd"/><path d="M1424.7,1024.868l.024-.024.163-.885-.048-.008-.163.886.024-.024v.056l.02,0,0-.02-.024.024Z" transform="translate(-112.836 -51.934)" fill="#fff" fill-rule="evenodd"/><path d="M1419.917,1028.058l.024.028h1v-.056h-1l.024.028h-.048l0,.028h.028l-.024-.028Z" transform="translate(-109.082 -55.152)" fill="#fff" fill-rule="evenodd"/><path d="M1420,1025.928l-.036-.032-.016.064,0,.108v.143l-.008.164h.048l.008-.164.008-.143,0-.108v-.032l-.036-.032.04.032Z" transform="translate(-109.097 -53.468)" fill="#fff" fill-rule="evenodd"/><path d="M1412.888,1026.439h0l.111.016.108.012.112,0,.116-.008.116-.016.112-.02.112-.032.112-.032.1-.04.1-.048.1-.048.084-.056.084-.056.071-.056.064-.064.052-.06-.04-.032-.052.06-.056.056-.072.056-.076.056-.084.048-.1.048-.1.048-.1.04-.1.032-.112.032-.112.02-.108.016-.116.008-.112,0-.108-.012-.1-.016h0l-.008.048Z" transform="translate(-103.54 -53.468)" fill="#fff" fill-rule="evenodd"/><path d="M1408.317,1022.742h0l0,.088.008.088.012.1.016.092.02.088.032.092.036.092.052.084.056.084.064.076.08.076.092.064.1.064.116.052.132.04.144.036.008-.048-.144-.036-.123-.04-.108-.052-.1-.056-.084-.064-.072-.068-.064-.076-.056-.076-.044-.084-.036-.084-.032-.084-.02-.088-.016-.092-.012-.088-.008-.088,0-.088h-.056Z" transform="translate(-99.935 -50.98)" fill="#fff" fill-rule="evenodd"/><path d="M1409.749,1015.49h0l-.14.024-.135.036-.132.044-.128.056-.124.064-.12.08-.108.084-.1.1-.1.1-.084.112-.08.12-.06.132-.052.136-.036.144-.024.152-.012.156h.056l0-.156.024-.144.036-.136.052-.136.06-.124.072-.112.084-.112.088-.1.1-.088.108-.084.112-.072.123-.064.12-.056.131-.044.128-.036.131-.024h0v-.048Z" transform="translate(-99.935 -45.26)" fill="#fff" fill-rule="evenodd"/><path d="M1415.919,1015.093h-.044l-.056.008-.056,0-.064,0-.068.008-.068,0-.072.008-.068.008-.064.008-.06.008-.056,0-.052.008-.04,0-.032,0-.016,0h-.008v.048h.008l.024,0,.024,0,.04,0,.052-.008.056,0,.06-.008.064-.008.068-.008.072-.008.068,0,.068-.008.064,0,.056,0h.1v-.056Z" transform="translate(-105.283 -44.947)" fill="#fff" fill-rule="evenodd"/><path d="M1419.527,1015.137l.024-.02h-.016l-.036,0-.064,0-.076-.008h-.18l-.1-.008h-.1v.056h.191l.092.008h.164l.064,0,.036,0h.016l.024-.02-.024.02.02,0,0-.024-.048-.008Z" transform="translate(-108.352 -44.947)" fill="#fff" fill-rule="evenodd"/><path d="M1421.578,1014.092h0l0,.076-.012.08-.012.072-.008.028.048.008.008-.028.012-.072.012-.088.012-.076h-.052Z" transform="translate(-110.363 -44.157)" fill="#fff" fill-rule="evenodd"/><path d="M1419.479,1012.029v0l.092,0,.084.024.08.036.068.048.056.056.048.068.032.072.016.084H1420l-.016-.092-.032-.088-.056-.076-.064-.064-.076-.056-.088-.036-.092-.024-.1-.012v.052Z" transform="translate(-108.739 -42.489)" fill="#fff" fill-rule="evenodd"/><path d="M1411.377,1012.191l.04.024.04-.02.052-.028.068-.024.088-.024.1-.02.1-.02.115-.02.116-.016.124-.016.128-.012.128-.012.132-.008h.371l.112,0v-.048l-.112,0-.12-.008h-.123l-.128.008-.132.008-.128.012-.128.012-.124.016-.124.016-.116.02-.1.02-.1.02-.088.024-.076.024-.06.028-.048.028.04.024-.048-.008Z" transform="translate(-102.348 -42.459)" fill="#fff" fill-rule="evenodd"/><path d="M1411.672,1008.483l-.016.02-.279.961.048.008.279-.961-.016.02-.016-.048-.012,0,0,.016.016-.02Z" transform="translate(-102.348 -39.733)" fill="#fff" fill-rule="evenodd"/><path d="M1414.549,1007.57h0l-.136-.008-.136,0h-.375l-.116.008-.116,0-.112.008-.108.008-.108.016-.1.016-.1.02-.1.02-.1.028-.092.032-.088.036.016.048.088-.036.092-.032.088-.028.1-.02.1-.02.1-.016.1-.016.108-.008.112-.008.116,0h.49l.136,0h.136v-.048Z" transform="translate(-103.451 -39.003)" fill="#fff" fill-rule="evenodd"/><path d="M1422.547,1008.967h0l.02-.163v-.152l-.028-.14-.044-.132-.064-.124-.08-.112-.1-.1-.1-.088-.116-.076-.12-.072-.128-.056-.124-.048-.131-.036-.124-.028-.124-.02-.112-.008v.048l.112.008.116.02.124.028.124.036.124.048.12.056.12.064.108.076.1.088.088.092.08.1.056.116.044.124.028.132v.152l-.02.156h0l.048.008Z" transform="translate(-110.08 -39.047)" fill="#fff" fill-rule="evenodd"/><path d="M1425.495,1016.093h0l.419-2.106-.048-.008-.419,2.106h0l.048.008Z" transform="translate(-113.447 -44.068)" fill="#fff" fill-rule="evenodd"/><path d="M1415.731,1018.758l-.008-.024-.016-.02-.028-.012-.04-.012-.044,0-.052,0h-.06l-.06,0-.064.008-.064.008-.064.008-.06.008-.06.012-.052.008-.052.012-.04.008-.028,0-.032.012-.04.012-.044.016-.052.024-.048.024-.056.028-.052.036-.052.036-.052.044-.044.044-.044.052-.036.056-.028.06-.024.064-.012.068,0,.136.02.108.032.08.048.06.06.04.068.024.068.012.068,0,.12,0,.112-.012.1-.02.092-.028.088-.032.076-.036.072-.04.064-.048.056-.044.048-.052.044-.048.036-.052.028-.048.02-.048.016-.048.012-.044.016-.112.02-.116.016-.112.008-.1Z" transform="translate(-104.672 -47.777)" fill="#ffa11c" fill-rule="evenodd"/><path d="M1459.9,1023.564l.008-.092.032-.108.056-.1.068-.084.084-.068.1-.048.1-.032.112-.012.112.012.1.032.1.048.084.068.068.084.056.1.032.108.008.092h-.12l0-.072-.024-.088-.04-.08-.052-.068-.064-.056-.076-.04-.088-.028-.092-.008-.092.008-.088.028-.076.04-.064.056-.052.068-.04.08-.024.088-.008.072Z" transform="translate(-140.62 -51.204)" fill="#fff" fill-rule="evenodd"/><path d="M1461.6,1024.682v-.239h.219l.048,0,.044.008.032.012.028.016.02.024.016.024.008.028,0,.028,0,.036-.008.028-.012.024-.008.008h-.168l.016,0,.028,0,.024-.008.02-.008.016-.012.008-.012.008-.02v-.028l0-.02-.008-.016-.012-.008-.012-.008-.02,0-.02,0h-.163v.156Z" transform="translate(-141.961 -52.321)" fill="#fff" fill-rule="evenodd"/><path d="M1459.881,1025.575l0,.024.012.115.032.108.056.1.068.08.084.068.1.052.1.032.112.012.112-.012.1-.032.1-.052.084-.068.068-.08.056-.1.032-.108.012-.115,0-.024h-.12l0,.024-.008.1-.024.088-.04.076-.052.068-.064.056-.076.044-.088.028-.092.008-.092-.008-.088-.028-.076-.044-.064-.056-.052-.068-.04-.076-.024-.088-.008-.1v-.024Z" transform="translate(-140.606 -53.215)" fill="#fff" fill-rule="evenodd"/><path d="M1461.6,1025.575v.243h.1v-.2h.1l.12.2h.08l-.12-.2h.028l.028-.008.024-.008.02-.016.008-.012h-.168l-.02,0h-.1v0Z" transform="translate(-141.961 -53.215)" fill="#fff" fill-rule="evenodd"/><path d="M1459.877,1023.588h0l.012-.116.032-.108.056-.1.068-.084.084-.068.1-.048.1-.032.112-.012h0l.112.012.1.032.1.048.083.068.068.084.056.1.032.108.012.116h0l-.012.116-.032.108-.056.1-.068.08-.083.068-.1.052-.1.032-.112.012h0l-.112-.012-.1-.032-.1-.052-.084-.068-.068-.08-.056-.1-.032-.108-.012-.116m.463.219h-.1v-.482h.22l.048,0,.044.008.032.012.028.016.02.024.016.024.008.028,0,.028h0l0,.036-.008.028-.012.024-.016.02-.02.016-.024.008-.028.008h-.028l.12.2h-.08l-.12-.2h-.1v.2m.1-.239h0l.036-.008.028,0,.024-.008.02-.008.016-.012.008-.012.008-.02v-.028h0l0-.02-.008-.016-.012-.008-.012-.008-.02,0-.02,0h-.163v.159h.1m0,.483h0l.092-.008.088-.028.076-.044.064-.056.052-.068.04-.076.024-.088.008-.1h0l-.008-.1-.024-.088-.04-.08-.052-.068-.064-.056-.076-.04-.088-.028-.092-.008h0l-.092.008-.088.028-.076.04-.064.056-.052.068-.04.08-.024.088-.008.1h0l.008.1.024.088.04.076.052.068.064.056.076.044.088.028.092.008" transform="translate(-140.606 -51.204)" fill="none" stroke="#fff" stroke-miterlimit="2.613" stroke-width="0.216"/><path d="M1426.977,1012.043h1.125l.4-2.269.016-.088.024-.088.024-.088.032-.088.04-.088.048-.084.052-.08.064-.076.072-.068.08-.064.092-.06.1-.048.116-.04.128-.032.14-.024.156-.008h.1l.18-1.025-.112.008-.108.012-.1.02-.1.028-.088.032-.084.04-.08.044-.076.048-.072.056-.068.056-.064.064-.064.064-.06.068-.06.076-.06.072-.056.08.12-.722h-1.121l-.746,4.271Z" transform="translate(-114.654 -39.137)" fill="#fff" fill-rule="evenodd"/><path d="M1426.977,1012.043h1.125l.4-2.269h0l.016-.088.024-.088.024-.088.032-.088.04-.088.048-.084.052-.08.064-.076.072-.068.08-.064.092-.06.1-.048.116-.04.128-.032.14-.024.156-.008h.1l.18-1.025h0l-.112.008-.108.012-.1.02-.1.028-.088.032-.084.04-.08.044-.076.048-.072.056-.068.056-.064.064-.064.064-.06.068-.06.076-.06.072-.056.08.12-.722h-1.121l-.746,4.271h0" transform="translate(-114.654 -39.137)" fill="none" stroke="#fff" stroke-miterlimit="2.613" stroke-width="0.216"/><path d="M1376.966,1012.043h1.145l.383-2.269.016-.088.02-.084.02-.084.028-.08.032-.08.04-.076.048-.072.056-.068.064-.06.072-.06.088-.048.1-.044.112-.036.124-.032.135-.02.156-.012h.012l.016,0,.02,0h.02l.02,0,.016,0,.012,0h0l0-.016.012-.048.016-.072.02-.088.028-.1.028-.112.036-.112.036-.112.032-.076.04-.076.04-.076.04-.068.036-.06.028-.048.02-.028.008-.012h0l-.016,0-.02,0-.028,0h-.028l-.032,0-.028,0h-.028l-.124.008-.112.012-.1.02-.1.024-.092.032-.084.04-.076.04-.072.048-.068.052-.064.06-.06.06-.06.068-.06.068-.056.076-.059.08-.06.08.143-.722h-1.145l-.746,4.271Z" transform="translate(-75.204 -39.137)" fill="#fff" fill-rule="evenodd"/><path d="M1376.966,1012.043h1.145l.383-2.269h0l.016-.088.02-.084.02-.084.028-.08.032-.08.04-.076.048-.072.056-.068.064-.06.072-.06.088-.048.1-.044.112-.036.124-.032.135-.02.156-.012h.012l.016,0,.02,0h.02l.02,0,.016,0,.012,0h0l0-.016.012-.048.016-.072.02-.088.028-.1.028-.112.036-.112.036-.112h0l.032-.076.04-.076.04-.076.04-.068.036-.06.028-.048.02-.028.008-.012h0l-.016,0-.02,0-.028,0h-.028l-.032,0-.028,0h-.028l-.124.008-.112.012-.1.02-.1.024-.092.032-.084.04-.076.04-.072.048-.068.052-.064.06-.06.06-.06.068-.06.068-.056.076-.059.08-.06.08.143-.722h-1.145l-.746,4.271h0" transform="translate(-75.204 -39.137)" fill="none" stroke="#fff" stroke-miterlimit="2.613" stroke-width="0.216"/><path d="M1459.933,1046.377v-.016l.032-.1.056-.092.068-.08.084-.064.1-.048.1-.028.112-.012.112.012.1.028.1.048.084.064.068.08.056.092.032.1v.016h-.116l-.024-.084-.04-.076-.052-.068-.064-.056-.076-.044-.088-.028-.092-.008-.092.008-.088.028-.076.044-.064.056-.052.068-.04.076-.024.084Z" transform="translate(-140.65 -69.275)" fill="#ffa11c" fill-rule="evenodd"/><path d="M1461.6,1047.51v-.14h.267l.044.008.032.008.028.016.02.02.016.024.008.028,0,.036h-.08v-.02l0-.02-.008-.016-.012-.008-.012-.008-.02,0-.02,0h-.163v.08Z" transform="translate(-141.961 -70.407)" fill="#ffa11c" fill-rule="evenodd"/><path d="M1459.877,1048.119l.012-.088H1460v0l-.008.083Z" transform="translate(-140.606 -70.929)" fill="#ffa11c" fill-rule="evenodd"/><path d="M1461.6,1048.119v-.088h.1v.08h.1l.036-.008.028,0,.024-.008.02-.008.016-.012.008-.012.008-.02v-.008h.08l0,.028-.008.024-.012.02-.016.016Z" transform="translate(-141.961 -70.929)" fill="#ffa11c" fill-rule="evenodd"/><path d="M1464.606,1048.119l-.008-.083v0h.116l.012.088Z" transform="translate(-144.33 -70.929)" fill="#ffa11c" fill-rule="evenodd"/><path d="M1459.877,1048.447v.012l.012.116.032.108.056.1.068.084.084.068.1.048.1.032.112.012.112-.012.1-.032.1-.048.084-.068.068-.084.056-.1.032-.108.012-.116v-.012h-.12v.012l-.008.1-.024.088-.04.076-.052.068-.064.056-.076.044-.088.028-.092.008-.092-.008-.088-.028-.076-.044-.064-.056-.052-.068-.04-.076-.024-.088-.008-.1v-.012Z" transform="translate(-140.606 -71.256)" fill="#ffa11c" fill-rule="evenodd"/><path d="M1461.6,1048.447v.231h.1v-.2h.1l.12.2h.08l-.12-.2h.028l.028-.008.024-.008.02-.016h-.379Z" transform="translate(-141.961 -71.256)" fill="#ffa11c" fill-rule="evenodd"/></g></g></svg>