<svg xmlns="http://www.w3.org/2000/svg" xmlns:xlink="http://www.w3.org/1999/xlink" width="94" height="40" viewBox="0 0 94 40"><defs><clipPath id="b"><rect width="94" height="40"/></clipPath></defs><g id="a" clip-path="url(#b)"><g transform="translate(-1789.988 -120.814)"><path d="M1863.894,126.053h-3.951c-1.873,5.177-5,13.763-6.729,18.485a7.165,7.165,0,0,1-.647,1.3h.173v0h2.56a2.171,2.171,0,0,0,1.774-1.107,1.879,1.879,0,0,0,.151-.312l1.645-4.52h0c2.045-5.608,4.82-13.234,5.027-13.849" transform="translate(-33.578)" fill="#939598"/><path d="M1919.655,149.295l-1.648,4.522a2.215,2.215,0,0,1-1.91,1.413h-2.739a7.22,7.22,0,0,0,.7-1.414l1.651-4.52h-3.964l-1.645,4.52a2.224,2.224,0,0,1-1.917,1.414h-2.739a7.192,7.192,0,0,0,.7-1.413l1.651-4.522h-3.961l-1.647,4.522a2.22,2.22,0,0,1-1.914,1.413h-12.648a7.023,7.023,0,0,0,.707-1.386l.417-1.159c1.078-2.962-.455-5.371-3.416-5.371h-4.507l-1.436,3.958h4.508a.957.957,0,0,1,.9,1.413l-.441,1.159a2.179,2.179,0,0,1-1.905,1.385h-6.506l-1.437,3.959h40.18a8.417,8.417,0,0,0,7.28-5.344l1.66-4.55Z" transform="translate(-47.346 -13.347)" fill="#ee7623"/><path d="M1809.536,159.188h-10.459l1.44-3.958h10.459a2.239,2.239,0,0,0,1.928-1.413l.408-1.131a.958.958,0,0,0-.9-1.414h-6.493l1.436-3.957h6.493c2.962,0,4.494,2.409,3.417,5.371l-.4,1.131a8.509,8.509,0,0,1-7.326,5.371" transform="translate(0 -13.347)" fill="#ee7623"/><path d="M1873.345,191.332h-.486l-.181.494h.486Z" transform="translate(-46.203 -40.978)" fill="#939598"/><path d="M1871.7,193.638a.8.8,0,0,1-.356.463,1.093,1.093,0,0,1-.5.085h-1.22a.825.825,0,0,1-.558-.143c-.127-.115-.137-.32-.031-.611l.279-.762h-.494l-.279.762c-.309.842.011,1.261.955,1.261h1.617a1,1,0,0,0,.951-.712l.479-1.31h-.49Z" transform="translate(-43.533 -41.819)" fill="#939598"/><path d="M1875.619,191.332h-.485l-.181.494h.486Z" transform="translate(-47.631 -40.978)" fill="#939598"/><path d="M1881.708,192.275a1.1,1.1,0,0,1,.278-.432.643.643,0,0,1,.451-.2c.236,0,.35.116.342.343l.5-.2a.591.591,0,0,0-.663-.575,1.367,1.367,0,0,0-.854.312,1.689,1.689,0,0,0-.564.762,1.087,1.087,0,0,0-.073.468h-.807a.552.552,0,0,1-.355-.076c-.069-.067-.066-.21.014-.428l.682-1.862h-.494l-.755,2.063a.753.753,0,0,0-.034.579.458.458,0,0,0,.468.232h2.918l.186-.508h-1.256a.583.583,0,0,1,.014-.477" transform="translate(-50.381 -40.385)" fill="#939598"/><path d="M1902.884,190.219h-.485l-.181.494h.485Z" transform="translate(-64.746 -40.28)" fill="#939598"/><path d="M1894.97,192.552a1.533,1.533,0,0,0-1.383,1.029,1.048,1.048,0,0,0-.065.53H1892.3l.189-.517c.214-.584-.016-1-.56-1a1.509,1.509,0,0,0-1.36.989c-.215.588.057,1.038.6,1.038h.477a.7.7,0,0,1-.62.343l-.143.392a1.282,1.282,0,0,0,1.24-.735h2.091a1.53,1.53,0,0,0,1.373-1.025c.214-.584-.024-1.042-.616-1.042m-3.165,1.559h-.441c-.267,0-.385-.249-.273-.557a.73.73,0,0,1,.666-.5c.258,0,.341.187.272.45Zm2.585.049c-.3,0-.407-.263-.29-.584a.786.786,0,0,1,.686-.57c.3,0,.412.25.288.588a.791.791,0,0,1-.684.566" transform="translate(-57.39 -41.744)" fill="#939598"/><path d="M1912.776,192.284a1.3,1.3,0,0,1-.153.321.458.458,0,0,1-.37.147h-1.132a1.24,1.24,0,0,0,.3-.517l.677-1.849h-.494l-.687,1.875a1.08,1.08,0,0,1-.177.338.446.446,0,0,1-.354.152h-.763l.047-.129a.874.874,0,0,0,0-.744.632.632,0,0,0-.612-.3,1.367,1.367,0,0,0-.833.29,1.592,1.592,0,0,0-.545.735c-.018.049-.036.1-.049.147h-1.035q.412-1.143-.372-1.444a.831.831,0,0,0-.244-.062c-.061,0-.215-.009-.46-.009l-.166.455a1.859,1.859,0,0,1,.435.041c.414.1.518.436.3,1.02h-1.613l-.186.508h3.351a.618.618,0,0,0,.656.387,1.379,1.379,0,0,0,.948-.387h2.93a1.062,1.062,0,0,0,1.044-.806l.756-2.067h-.5Zm-3.883.731a.622.622,0,0,1-.418.169c-.307,0-.407-.262-.29-.584a.981.981,0,0,1,.259-.392.624.624,0,0,1,.426-.179.305.305,0,0,1,.312.183.6.6,0,0,1-.028.405.984.984,0,0,1-.261.4" transform="translate(-66.044 -40.385)" fill="#939598"/><path d="M1933.406,192.743a.841.841,0,0,0-.244-.063c-.061,0-.215-.009-.46-.009l-.166.455a1.864,1.864,0,0,1,.435.04c.414.1.517.436.3,1.02h-1.612l-.186.508h2.116l.185-.508q.413-1.142-.372-1.443" transform="translate(-83.112 -41.82)" fill="#939598"/><path d="M1938.4,193.252h.495l1.053-2.878h-.494Z" transform="translate(-87.456 -40.377)" fill="#939598"/><path d="M1947.183,193.7c-.119.325-.3.49-.558.49h-.485a1.3,1.3,0,0,0,.3-.543l.356-.972h-.5l-.373,1.02c-.121.33-.306.494-.56.494h-.463l.01-.027a1.509,1.509,0,0,0,.269-.516l.356-.972h-.5l-.362.989c-.129.352-.318.525-.571.525h-.941c.274-.762.152-1.243-.372-1.443a.835.835,0,0,0-.245-.062c-.061,0-.215-.009-.46-.009l-.166.455a1.877,1.877,0,0,1,.435.04c.414.1.517.437.3,1.02h-1.613l-.186.508h5.606a1.463,1.463,0,0,0,1.252-1.061l.352-.962h-.5Z" transform="translate(-88.998 -41.819)" fill="#939598"/><path d="M1964.527,192.66h-1.256a1.626,1.626,0,0,0-1.472,1.185l-.579,1.582h.5l.542-1.479c.178-.485.5-.78.833-.78h.365a1.537,1.537,0,0,0-.317.526c-.212.579.034,1.038.626,1.038a1.544,1.544,0,0,0,1.373-1.025c.215-.588-.022-1.047-.615-1.047m-.577,1.613c-.3,0-.413-.258-.294-.584a.792.792,0,0,1,.685-.57c.307,0,.411.254.288.588a.8.8,0,0,1-.679.566" transform="translate(-101.784 -41.812)" fill="#939598"/><path d="M1984.412,190.243h-.486l-.181.494h.486Z" transform="translate(-115.924 -40.295)" fill="#939598"/><path d="M1991.478,190.243h-.486l-.181.494h.486Z" transform="translate(-120.36 -40.295)" fill="#939598"/><path d="M1979.252,191.238l-.383,1.047a1.3,1.3,0,0,1-.153.321.459.459,0,0,1-.37.147h-.8c.357-1.011.157-1.523-.6-1.523a2.531,2.531,0,0,0-1.6.77l.652-1.612h-.49l-.866,2.365h-1.021a.553.553,0,0,1-.356-.076c-.068-.067-.066-.209.014-.427l.682-1.862h-.494l-.755,2.062a.757.757,0,0,0-.034.579.458.458,0,0,0,.468.232h5.109a1.062,1.062,0,0,0,1.043-.806l.445-1.216Zm-2.223,1.515h-1.991a2.679,2.679,0,0,1,1.7-1.078c.428,0,.553.365.344.935-.018.049-.034.093-.057.143" transform="translate(-108.955 -40.385)" fill="#939598"/></g></g></svg>