<svg xmlns="http://www.w3.org/2000/svg" xmlns:xlink="http://www.w3.org/1999/xlink" width="75" height="40" viewBox="0 0 75 40"><defs><clipPath id="b"><rect width="75" height="40"/></clipPath></defs><g id="a" clip-path="url(#b)"><g transform="translate(-162.227 -32.518)"><g transform="translate(172.227 44.518)"><path d="M218.742,62.624H214.2l2.837-17.437h4.54Z" transform="translate(-194.624 -44.875)" fill="#0055a5"/><path d="M187.986,45.187,183.658,57.18l-.512-2.583h0l-1.528-7.841a1.943,1.943,0,0,0-2.154-1.57h-7.155l-.083.295a16.959,16.959,0,0,1,4.748,1.994l3.944,15.148h4.73l7.223-17.437Z" transform="translate(-172.227 -44.875)" fill="#0055a5"/><path d="M268.863,62.624h4.168L269.4,45.187h-3.65a2.086,2.086,0,0,0-2.1,1.3l-6.77,16.138h4.731l.947-2.59h5.771Zm-5-6.168,2.386-6.525,1.342,6.525Z" transform="translate(-217.396 -44.875)" fill="#0055a5"/><path d="M242.857,49.023l.647-3.745a13.1,13.1,0,0,0-4.083-.76c-2.253,0-7.6.985-7.6,5.773,0,4.505,6.279,4.561,6.279,6.926s-5.632,1.943-7.49.451l-.675,3.915a12.715,12.715,0,0,0,5.125.985c3.1,0,7.772-1.6,7.772-5.97,0-4.534-6.336-4.956-6.336-6.926S240.914,47.953,242.857,49.023Z" transform="translate(-203.017 -44.518)" fill="#0055a5"/></g><path d="M183.147,54.6l-1.528-7.841a1.943,1.943,0,0,0-2.154-1.57h-7.155l-.083.295a17.6,17.6,0,0,1,6.738,3.383A13.6,13.6,0,0,1,183.147,54.6Z" transform="translate(0 -0.357)" fill="#fc9220"/></g></g></svg>