<svg xmlns="http://www.w3.org/2000/svg" xmlns:xlink="http://www.w3.org/1999/xlink" width="50" height="50" viewBox="0 0 50 50"><defs><clipPath id="b"><rect width="50" height="50"/></clipPath></defs><g id="a" clip-path="url(#b)"><path d="M3797.957,850.315a1.806,1.806,0,0,0-1.806-1.806H3778.4a1.807,1.807,0,0,0-1.807,1.806v32.536a1.806,1.806,0,0,0,1.807,1.806h17.748a1.805,1.805,0,0,0,1.806-1.806Z" transform="translate(-3751.771 -846.309)" fill="#fff" fill-rule="evenodd"/><path d="M3701.785,883.161a7.941,7.941,0,1,1,2.463-2.463l1.231,3.694Z" transform="translate(-3688.596 -860.832)" fill="#76b740" fill-rule="evenodd"/><path d="M3706.225,887.674l-2-2a.644.644,0,0,1,0-.909l.708-.707-1.743-2.13-.42.421a2.7,2.7,0,0,0,0,3.81l2.963,2.963a2.7,2.7,0,0,0,3.814,0l.417-.417-2.13-1.743-.708.707a.643.643,0,0,1-.909,0" transform="translate(-3697.594 -870.579)" fill="#fff" fill-rule="evenodd"/><path d="M3722.867,874.906a6.253,6.253,0,0,1,1.137.328" transform="translate(-3712.756 -865.477)" fill="none" stroke="#fff" stroke-linejoin="round" stroke-width="1"/><path d="M3739.507,897.509a6.268,6.268,0,0,1-.789,3.052" transform="translate(-3724.266 -881.89)" fill="none" stroke="#fff" stroke-linejoin="round" stroke-width="1"/><path d="M3717.194,918.671a6.326,6.326,0,0,1-3.931.333" transform="translate(-3705.781 -897.257)" fill="none" stroke="#fff" stroke-linejoin="round" stroke-width="1"/><path d="M3790.563,884.657h5.646a1.747,1.747,0,0,0,1.748-1.748V850.257a1.747,1.747,0,0,0-1.748-1.748h-17.865a1.748,1.748,0,0,0-1.748,1.748v24.548" transform="translate(-3751.771 -846.309)" fill="none" stroke="#55536f" stroke-linejoin="round" stroke-width="1"/><path d="M3827.6,953.015h5.16a.839.839,0,0,0,.611-.269.95.95,0,0,0,.253-.65v-7.564" transform="translate(-3788.805 -916.036)" fill="none" stroke="#55536f" stroke-linejoin="round" stroke-width="1"/><path d="M3800.219,881.8V861.429a.95.95,0,0,0-.253-.65.839.839,0,0,0-.612-.269h-16.892a.84.84,0,0,0-.612.269.949.949,0,0,0-.253.65V875.3" transform="translate(-3755.402 -855.022)" fill="none" stroke="#55536f" stroke-linejoin="round" stroke-width="1"/><line x2="5" transform="translate(33 4)" fill="none" stroke="#55536f" stroke-linejoin="round" stroke-width="1"/><line x1="1.643" transform="translate(28.939 10.97)" fill="none" stroke="#55536f" stroke-linejoin="round" stroke-width="1"/><line x1="1.643" transform="translate(31.475 10.97)" fill="none" stroke="#55536f" stroke-linejoin="round" stroke-width="1"/><line x1="1.643" transform="translate(34.01 10.97)" fill="none" stroke="#55536f" stroke-linejoin="round" stroke-width="1"/><line x1="1.643" transform="translate(36.545 10.97)" fill="none" stroke="#55536f" stroke-linejoin="round" stroke-width="1"/><line x1="3.042" transform="translate(29.062 13.851)" fill="none" stroke="#55536f" stroke-linejoin="round" stroke-width="1"/><line x1="3" transform="translate(29 25)" fill="none" stroke="#55536f" stroke-linejoin="round" stroke-width="1"/><path d="M3792.693,906.507a1.1,1.1,0,1,1-1.1,1.1,1.1,1.1,0,0,1,1.1-1.1" transform="translate(-3762.664 -888.424)" fill="#149ade" fill-rule="evenodd"/><path d="M3807.693,906.507a1.1,1.1,0,1,1-1.1,1.1,1.1,1.1,0,0,1,1.1-1.1" transform="translate(-3773.556 -888.424)" fill="#149ade" fill-rule="evenodd"/><path d="M3822.692,906.507a1.1,1.1,0,1,1-1.1,1.1,1.1,1.1,0,0,1,1.1-1.1" transform="translate(-3784.448 -888.424)" fill="#149ade" fill-rule="evenodd"/><rect width="30.671" height="19.991" transform="translate(6.204 28.496)" fill="#fff"/><path d="M3721.2,947.74l10.9,8.369a1.616,1.616,0,0,0,1.968,0l14.078-10.81" transform="translate(-3711.547 -916.593)" fill="none" stroke="#55536f" stroke-linejoin="round" stroke-width="1"/><rect width="9.585" height="1" transform="translate(8.885 43.736)" fill="#149ade"/><path d="M3708.6,985.64v4.929a.822.822,0,0,0,.822.822h29.028a.821.821,0,0,0,.821-.822v-9.037" transform="translate(-3702.393 -942.903)" fill="none" stroke="#55536f" stroke-linejoin="round" stroke-width="1"/><path d="M3788.283,947.991v-2.637a.821.821,0,0,0-.821-.822H3776.1" transform="translate(-3751.408 -916.036)" fill="none" stroke="#55536f" stroke-linejoin="round" stroke-width="1"/><path d="M3720.373,944.532h-10.954a.822.822,0,0,0-.822.822v10.954" transform="translate(-3702.393 -916.036)" fill="none" stroke="#55536f" stroke-linejoin="round" stroke-width="1"/></g></svg>