<svg xmlns="http://www.w3.org/2000/svg" width="423.482" height="443.072" viewBox="0 0 423.482 443.072">
  <g id="Group_23" data-name="Group 23" transform="translate(-508 524.184)">
    <path id="Path_3" data-name="Path 3" d="M293.208,233.253a145.8,145.8,0,1,0-59.454,59.455l47.186,11.8a19.862,19.862,0,0,0,24.086-24.093Zm-84.15-9.666a6.621,6.621,0,0,1-8.534-3.86L192.321,198H137.547l-8.283,21.749a6.621,6.621,0,0,1-12.374-4.714L156.668,110.57a9.024,9.024,0,0,1,16.751-.185l39.493,104.641a6.621,6.621,0,0,1-3.853,8.534Zm68.393-52.569a6.621,6.621,0,0,1-6.621-6.621A106.058,106.058,0,0,0,164.9,58.465a6.621,6.621,0,0,1,0-13.242A119.313,119.313,0,0,1,284.071,164.4a6.621,6.621,0,0,1-6.621,6.621Z" transform="translate(620.906 -391.187)" fill="#76b740"/>
    <path id="Path_4" data-name="Path 4" d="M37.631,93.658H82.368L60.1,34.66Z" transform="translate(725.867 -300.115)" fill="#149ade"/>
    <g id="Group_5" data-name="Group 5" transform="translate(508 -507)">
      <path id="Path_5" data-name="Path 5" d="M166.5,1.5A165.519,165.519,0,0,0,24.984,252.831L9.683,298.7a19.862,19.862,0,0,0,25.159,25.126l45.869-15.287A165.519,165.519,0,1,0,166.5,1.5Zm0,317.8a151.794,151.794,0,0,1-81.435-23.616,6.621,6.621,0,0,0-5.634-.662l-48.8,16.241a6.621,6.621,0,0,1-8.382-8.375l16.274-48.815a6.581,6.581,0,0,0-.662-5.641A152.278,152.278,0,1,1,166.5,319.3Z" transform="translate(-1.004 -1.5)" fill="#149ade"/>
      <path id="Path_6" data-name="Path 6" d="M31.621,5.5a6.621,6.621,0,1,0,0,13.242A125.934,125.934,0,0,1,157.415,144.536a6.621,6.621,0,1,0,13.242,0A139.2,139.2,0,0,0,31.621,5.5Z" transform="matrix(0.921, -0.391, 0.391, 0.921, 83.043, 44.434)" fill="#dbdae0"/>
      <path id="Path_7" data-name="Path 7" d="M144.927,135.179a73.352,73.352,0,1,0-9.269,9.435l14.923,14.923a6.62,6.62,0,1,0,9.362-9.362Zm-56.4,13.592a59.786,59.786,0,1,1,46.961-23.04L117.57,107.816a6.62,6.62,0,1,0-9.362,9.362l18.069,18.067A59.3,59.3,0,0,1,88.525,148.772Z" transform="translate(76.709 76.335)" fill="#149ade"/>
    </g>
  </g>
</svg>
