<svg xmlns="http://www.w3.org/2000/svg" xmlns:xlink="http://www.w3.org/1999/xlink" width="50" height="50" viewBox="0 0 50 50"><defs><clipPath id="b"><rect width="50" height="50"/></clipPath></defs><g id="a" clip-path="url(#b)"><g transform="translate(3.076 3.4)"><path d="M29.3,221.882H1.441a1.441,1.441,0,0,1,0-2.882H29.3a1.441,1.441,0,0,1,0,2.882Zm0,0" transform="translate(0 -198.974)" fill="#76b740"/><path d="M225.445,151.885a1.442,1.442,0,0,1-1.018-2.461l6.667-6.667-6.667-6.667a1.442,1.442,0,0,1,2.039-2.039l7.685,7.685a1.441,1.441,0,0,1,0,2.038l-7.685,7.685a1.43,1.43,0,0,1-1.02.425Zm0,0" transform="translate(-203.83 -121.291)" fill="#76b740"/><path d="M56.243,42.6a21.025,21.025,0,0,1-19.67-13.4,1.441,1.441,0,1,1,2.682-1.053,18.253,18.253,0,1,0,0-13.357,1.441,1.441,0,1,1-2.682-1.053A21.135,21.135,0,1,1,56.243,42.6Zm0,0" transform="translate(-33.187 0)" fill="#149ade"/></g></g></svg>