<svg xmlns="http://www.w3.org/2000/svg" xmlns:xlink="http://www.w3.org/1999/xlink" width="60" height="60" viewBox="0 0 60 60"><defs><clipPath id="a"><ellipse cx="8.194" cy="8.194" rx="8.194" ry="8.194" transform="matrix(0.16, -0.987, 0.987, 0.16, 0, 16.176)" fill="none"/></clipPath><clipPath id="c"><rect width="60" height="60"/></clipPath></defs><g id="b" clip-path="url(#c)"><g transform="translate(5 4.854)"><path d="M769.727,79.5H736.9V78.486h33.334a.509.509,0,0,1,.509.509v33.191a.509.509,0,0,1-.509.509H721.352a.509.509,0,0,1-.509-.509V79a.509.509,0,0,1,.509-.509h9.622V79.5h-9.113v32.173h47.866Z" transform="translate(-720.536 -68.317)" fill="#565271" fill-rule="evenodd"/><rect width="17.498" height="2.777" transform="translate(26.97 19.095)" fill="#149ade"/><rect width="17.498" height="2.777" transform="translate(26.97 24.861)" fill="#149ade"/><rect width="2.777" height="2.777" transform="translate(26.97 31.009)" fill="#149ade"/><ellipse cx="8.194" cy="8.194" rx="8.194" ry="8.194" transform="matrix(0.16, -0.987, 0.987, 0.16, 4.054, 29.397)" fill="#149ade"/><g transform="translate(4.054 13.222)"><g transform="translate(0 0)" clip-path="url(#a)"><path d="M743.7,98.167l0,.045c.048.741.246,1.672.252,2.548a4.5,4.5,0,0,1,2.931,3.894c0,2.532-2.787,4.589-6.22,4.589s-6.22-2.056-6.22-4.589a4.516,4.516,0,0,1,2.974-3.914c.088-.731.3-2.459.335-2.71a.069.069,0,0,0-.026-.063l-.041-.03a.239.239,0,0,1-.094-.214,3.9,3.9,0,0,1,1.528-2.588,2.837,2.837,0,0,0-.621-.245.038.038,0,0,1-.006-.07,4.53,4.53,0,0,1,4.057-.261,2.121,2.121,0,0,1,.947.957,3.111,3.111,0,0,1,.168.6c.087,0,.2,0,.237,0a2.984,2.984,0,0,1,1.154-.034c.548.25.566,1.126.547,1.508a.111.111,0,0,1-.059.093.113.113,0,0,1-.111,0l-.246-.14a.627.627,0,0,0-.211-.076,1.232,1.232,0,0,1-.5.481,1.667,1.667,0,0,1-.761.222Z" transform="translate(-731.266 -89.251)" fill="#fff" fill-rule="evenodd"/></g></g><path d="M743.657,100.033a7.68,7.68,0,1,1,1.565-8.764l.92-.436A8.745,8.745,0,0,0,742.93,87.2a8.708,8.708,0,1,0,1.44,13.559Z" transform="translate(-724.819 -71.93)" fill="#565271" fill-rule="evenodd"/><rect width="1.018" height="14.428" transform="translate(12.945 0)" fill="#565271"/><ellipse cx="4.861" cy="4.861" rx="4.861" ry="4.861" transform="matrix(0.693, -0.721, 0.721, 0.693, 18.386, 44.007)" fill="#76b740"/><path d="M770.009,143.413l-2.481,2.481-2.379-2.379" transform="translate(-742.281 -100.182)" fill="none" stroke="#fff" stroke-linejoin="round" stroke-width="1"/><line y1="3.564" transform="translate(25.299 41.872)" fill="#e35a2f" stroke="#fff" stroke-miterlimit="10" stroke-width="1"/><line x1="3.161" transform="translate(47.357 6.638)" fill="none" stroke="#565271" stroke-linejoin="round" stroke-width="1"/><line x1="3.161" transform="translate(41.246 6.638)" fill="none" stroke="#565271" stroke-linejoin="round" stroke-width="1"/><line x1="3.161" transform="translate(0 6.638)" fill="none" stroke="#565271" stroke-linejoin="round" stroke-width="1"/></g></g></svg>