<svg xmlns="http://www.w3.org/2000/svg" xmlns:xlink="http://www.w3.org/1999/xlink" width="60" height="60" viewBox="0 0 60 60"><defs><clipPath id="b"><rect width="60" height="60"/></clipPath></defs><g id="a" clip-path="url(#b)"><g transform="translate(10 3.799)"><path d="M576.853,117.33h-4.612V81.015" transform="translate(-572.241 -66.956)" fill="none" stroke="#565271" stroke-linejoin="round" stroke-width="1"/><path d="M642.06,117.33h4.612V81.015" transform="translate(-605.734 -66.956)" fill="none" stroke="#565271" stroke-linejoin="round" stroke-width="1"/><path d="M572.241,71.542v-4.08h40.938v4.369" transform="translate(-572.241 -60.455)" fill="none" stroke="#565271" stroke-linejoin="round" stroke-width="1"/><ellipse cx="4.966" cy="4.966" rx="4.966" ry="4.966" transform="matrix(0.657, -0.754, 0.754, 0.657, 13.462, 7.486)" fill="#76b740"/><path d="M609.095,60.571v3.585h-3.438" transform="translate(-588.271 -57.149)" fill="none" stroke="#fff" stroke-linejoin="round" stroke-width="1"/><path d="M591.747,97.2a2.469,2.469,0,0,0-2.469,2.469v19.507h.2a2.269,2.269,0,0,0,2.269-2.269V97.2Z" transform="translate(-580.414 -74.722)" fill="#149ade" fill-rule="evenodd"/><path d="M631.014,88.187a1.873,1.873,0,0,0-1.873,1.873V110.9h.541a1.928,1.928,0,0,0,1.929-1.929V88.187Z" transform="translate(-599.536 -70.397)" fill="#149ade" fill-rule="evenodd"/><path d="M599.523,97.2a2.178,2.178,0,0,0-2.179,2.178v15.847h.169a2.3,2.3,0,0,0,2.3-2.3V97.2Z" transform="translate(-584.284 -74.722)" fill="#149ade" fill-rule="evenodd"/><path d="M607.591,97.2a2.178,2.178,0,0,0-2.178,2.178v15.847h.169a2.3,2.3,0,0,0,2.3-2.3V97.2Z" transform="translate(-588.154 -74.722)" fill="#149ade" fill-rule="evenodd"/><path d="M615.184,97.2a2.178,2.178,0,0,0-2.178,2.178v15.847h.169a2.3,2.3,0,0,0,2.3-2.3V97.2Z" transform="translate(-591.796 -74.722)" fill="#149ade" fill-rule="evenodd"/><rect width="2.469" height="2.469" rx="1.235" transform="translate(21.21 18.686)" fill="#149ade"/><rect width="2.469" height="2.469" rx="1.235" transform="translate(25.407 41.741)" fill="#149ade"/><path d="M631.4,81.015a2.257,2.257,0,0,0-2.256,2.257v.213h2.469V81.015Z" transform="translate(-599.536 -66.956)" fill="#149ade" fill-rule="evenodd"/><rect width="2.469" height="2.469" rx="1.235" transform="translate(17.259 18.686)" fill="#149ade"/><rect width="2.469" height="2.469" rx="1.235" transform="translate(13.062 18.686)" fill="#149ade"/><path d="M623.252,92.458a2.178,2.178,0,0,0-2.178,2.178v18.316h.169a2.3,2.3,0,0,0,2.3-2.3V92.458Z" transform="translate(-595.667 -72.445)" fill="#149ade" fill-rule="evenodd"/><rect width="18.731" height="3.122" transform="translate(8.437 48.813)" fill="#149ade"/><line x1="3.23" transform="translate(25 51.935)" fill="none" stroke="#565271" stroke-linejoin="round" stroke-width="1"/><path d="M588.5,149.981h13.554v1.041H587.977a.52.52,0,0,1-.52-.52v-3.07a.52.52,0,0,1,.52-.52h14.075v1.041H588.5Z" transform="translate(-579.54 -98.567)" fill="#565271" fill-rule="evenodd"/><line x1="3.23" transform="translate(25 48.865)" fill="none" stroke="#565271" stroke-linejoin="round" stroke-width="1"/><path d="M630.464,146.911v1.041h1.319v2.029h-1.319v1.041H632.3a.52.52,0,0,0,.52-.52v-3.07a.521.521,0,0,0-.52-.52Z" transform="translate(-600.171 -98.567)" fill="#565271" fill-rule="evenodd"/></g></g></svg>