<svg xmlns="http://www.w3.org/2000/svg" xmlns:xlink="http://www.w3.org/1999/xlink" width="300" height="300" viewBox="0 0 300 300"><defs><clipPath id="a"><rect width="300" height="300"/></clipPath><clipPath id="b"><path d="M318.719,117.421l6.121-22.3a7.274,7.274,0,0,1,7.014-5.347h51.171a7.274,7.274,0,0,1,7.014,5.347l6.111,22.26q4.819.627,9.635,1.415a5.19,5.19,0,0,1,4.325,5.411c-.395,7.022-1.149,20.42-1.6,28.5a7.076,7.076,0,0,1-7.065,6.677h-88a7.075,7.075,0,0,1-7.065-6.679c-.455-8.075-1.21-21.459-1.6-28.487a5.187,5.187,0,0,1,4.339-5.41Q313.92,118.043,318.719,117.421Z" transform="translate(-304.765 -89.779)" fill="none"/></clipPath><clipPath id="c"><path d="M407.5,160.289h-9.572a6.521,6.521,0,0,1-6.459-5.632c-.892-6.483-3.226-23.467-3.226-23.467l6.324-1.21-1.677-5.452,28.013-6.15,16.787-22.72a11.983,11.983,0,0,1,9.637-4.862h47.62a13.851,13.851,0,0,1,9.535,3.806l25.85,24.553a10.41,10.41,0,0,1,3.23,8.048c-.327,6.813-.929,19.345-1.29,26.877a6.522,6.522,0,0,1-6.514,6.21h-3.775a22.309,22.309,0,0,0,.314-3.736h0a22.413,22.413,0,0,0-22.419-22.415h0a22.413,22.413,0,0,0-22.415,22.419v0a22.49,22.49,0,0,0,.313,3.744l-26.08,0a22.462,22.462,0,0,0,.314-3.736h0A22.416,22.416,0,0,0,429.6,134.135h0a22.413,22.413,0,0,0-22.415,22.419v0a22.456,22.456,0,0,0,.315,3.739Z" transform="translate(-388.239 -90.795)" fill="none"/></clipPath></defs><g clip-path="url(#a)"><g transform="translate(10.401 51.77)"><rect width="23.124" height="36.572" rx="2.522" transform="translate(6.299 117.19)" fill="#149ade"/><rect width="25.241" height="36.572" rx="2.522" transform="translate(98.432 117.19)" fill="#149ade"/><path d="M318.719,117.421l6.121-22.3a7.274,7.274,0,0,1,7.014-5.347h51.171a7.274,7.274,0,0,1,7.014,5.347l6.111,22.26q4.819.627,9.635,1.415a5.19,5.19,0,0,1,4.325,5.411c-.395,7.022-1.149,20.42-1.6,28.5a7.076,7.076,0,0,1-7.065,6.677h-88a7.075,7.075,0,0,1-7.065-6.679c-.455-8.075-1.21-21.459-1.6-28.487a5.187,5.187,0,0,1,4.339-5.41Q313.92,118.043,318.719,117.421Z" transform="translate(-292.45 -19.95)" fill="#fff" fill-rule="evenodd"/><g transform="translate(12.315 69.829)"><g clip-path="url(#b)"><path d="M326.819,123.136a7.951,7.951,0,0,0-7.948-7.95h-14.1v12.555h20.252a1.8,1.8,0,0,0,1.8-1.8Z" transform="translate(-304.765 -80.38)" fill="#1aadf3" fill-rule="evenodd"/><path d="M370.7,131.639a2.609,2.609,0,0,0-2.608-2.608H330.031a2.608,2.608,0,0,0-2.607,2.608v12.485H370.7Z" transform="translate(-296.383 -75.259)" fill="#76b740" fill-rule="evenodd"/><path d="M365.88,123.136a7.949,7.949,0,0,1,7.952-7.95h14.1v12.555h-20.25a1.8,1.8,0,0,1-1.8-1.8Z" transform="translate(-282.157 -80.38)" fill="#1aadf3" fill-rule="evenodd"/></g></g><path d="M318.719,117.421l6.121-22.3a7.274,7.274,0,0,1,7.014-5.347h51.171a7.274,7.274,0,0,1,7.014,5.347l6.111,22.26q4.819.627,9.635,1.415a5.19,5.19,0,0,1,4.325,5.411c-.395,7.022-1.149,20.42-1.6,28.5a7.076,7.076,0,0,1-7.065,6.677h-88a7.075,7.075,0,0,1-7.065-6.679c-.455-8.075-1.21-21.459-1.6-28.487a5.187,5.187,0,0,1,4.339-5.41Q313.92,118.043,318.719,117.421Z" transform="translate(-292.45 -19.95)" fill="none" stroke="#565271" stroke-linejoin="round" stroke-width="2"/><path d="M382.7,109.751,375.55,95.8,391,103.714a1.571,1.571,0,0,0,2.211-.916l5.325-22.5,2.406,10.162" transform="translate(-266.265 -23.457)" fill="none" stroke="#565271" stroke-linejoin="round" stroke-width="2"/><path d="M441.207,143.638a17.934,17.934,0,1,0-35.867,0h0a17.932,17.932,0,0,0,17.932,17.932h0A17.931,17.931,0,0,0,441.2,143.642Z" transform="translate(-255.246 -6.66)" fill="#149ade" fill-rule="evenodd"/><g transform="translate(126.667 71.221)"><g clip-path="url(#c)"><path d="M426.425,133.2a2.607,2.607,0,0,0-2.608-2.607H385.762a2.607,2.607,0,0,0-2.607,2.607v12.485h43.27Z" transform="translate(-390.12 -76.072)" fill="#76b740" fill-rule="evenodd"/><line x1="8.503" transform="translate(71.891 54.348)" fill="none" stroke="#565271" stroke-linejoin="round" stroke-width="2"/><line x1="11.493" transform="translate(1.555 54.348)" fill="none" stroke="#565271" stroke-linejoin="round" stroke-width="2"/><line x1="8.503" transform="translate(135.854 54.348)" fill="none" stroke="#565271" stroke-linejoin="round" stroke-width="2"/></g></g><path d="M407.5,160.289h-9.572a6.521,6.521,0,0,1-6.459-5.632c-.892-6.483-3.226-23.467-3.226-23.467l6.324-1.21-1.677-5.452,28.013-6.15,16.787-22.72a11.983,11.983,0,0,1,9.637-4.862h47.62a13.851,13.851,0,0,1,9.535,3.806l25.85,24.553a10.41,10.41,0,0,1,3.23,8.048c-.327,6.813-.929,19.345-1.29,26.877a6.522,6.522,0,0,1-6.514,6.21h-3.775a22.309,22.309,0,0,0,.314-3.736h0a22.413,22.413,0,0,0-22.419-22.415h0a22.413,22.413,0,0,0-22.415,22.419v0a22.49,22.49,0,0,0,.313,3.744l-26.08,0a22.462,22.462,0,0,0,.314-3.736h0A22.416,22.416,0,0,0,429.6,134.135h0a22.413,22.413,0,0,0-22.415,22.419v0a22.456,22.456,0,0,0,.315,3.739Z" transform="translate(-261.572 -19.574)" fill="none" stroke="#565271" stroke-linejoin="round" stroke-width="2"/><line x2="27.978" y2="7.556" transform="translate(131.537 90.969)" fill="none" stroke="#565271" stroke-linejoin="round" stroke-width="2"/><path d="M486.666,113.428a1.9,1.9,0,0,1-1.656,2.826H422.879a1.9,1.9,0,0,1-1.6-2.922l10.939-17.067a2.894,2.894,0,0,1,2.434-1.332H474.6a2.891,2.891,0,0,1,2.522,1.478Z" transform="translate(-249.46 -18.043)" fill="#149ade" fill-rule="evenodd"/><line y1="27.185" transform="translate(217.47 73.959)" fill="none" stroke="#fff" stroke-linejoin="round" stroke-width="2"/><path d="M492.506,143.638a17.933,17.933,0,1,0-17.934,17.934,17.933,17.933,0,0,0,17.934-17.934Z" transform="translate(-236.269 -6.66)" fill="#149ade" fill-rule="evenodd"/><path d="M395.413,93.974l1.1,4.639a1.571,1.571,0,0,0,2.211.916l15.447-7.917-7.15,13.954" transform="translate(-258.918 -19.272)" fill="none" stroke="#565271" stroke-linejoin="round" stroke-width="2"/><path d="M382.046,112.87a1.9,1.9,0,0,1-1.84,2.369H322.761a1.9,1.9,0,0,1-1.838-2.369c1.063-4.167,3.255-12.749,4.284-16.776a2.893,2.893,0,0,1,2.8-2.175h46.951a2.89,2.89,0,0,1,2.8,2.175Z" transform="translate(-286.495 -18.419)" fill="#149ade" fill-rule="evenodd"/><path d="M326.652,123.97v-.852a7.932,7.932,0,0,0-7.932-7.932h-14" transform="translate(-292.467 -10.551)" fill="none" stroke="#565271" stroke-linejoin="round" stroke-width="2"/><path d="M365.842,123.97v-.852a7.932,7.932,0,0,1,7.932-7.932h14" transform="translate(-269.857 -10.551)" fill="none" stroke="#565271" stroke-linejoin="round" stroke-width="2"/><line x2="43.271" transform="translate(43.355 110.525)" fill="none" stroke="#565271" stroke-linejoin="round" stroke-width="2"/><line x2="272" transform="translate(0 153.762)" fill="none" stroke="#565271" stroke-linejoin="round" stroke-width="2"/><path d="M466.538,54.119a1.467,1.467,0,0,0,.6-1.186V45.546h-9.395a3.088,3.088,0,0,1-1.658-.482L452.3,42.658l-3.8,2.406a3.084,3.084,0,0,1-1.656.482h-9.4V53.9a.622.622,0,0,1-.623.622h-2.492a.621.621,0,0,1-.622-.622v-9a3.092,3.092,0,0,1,3.092-3.089h9.853l3.982-2.525a3.1,3.1,0,0,1,3.314,0l3.982,2.525h9.852a3.092,3.092,0,0,1,3.092,3.089v9.707a1.868,1.868,0,0,1-.742,1.49L453.148,68.6a.536.536,0,0,1-.853-.43V65.224a1.465,1.465,0,0,1,.6-1.185ZM438.192,67.748a.466.466,0,0,0-.742.375V73.4a2.253,2.253,0,0,0,.895,1.8l12.6,9.506a2.25,2.25,0,0,0,2.711,0l12.6-9.506a2.253,2.253,0,0,0,.895-1.8V68.222a.466.466,0,0,0-.741-.377l-13,9.5a1.868,1.868,0,0,1-2.212-.005Zm13.6,5.389a.861.861,0,0,0,1.025,0L469.55,60.815a.834.834,0,0,1,1.329.671V74.838a3.089,3.089,0,0,1-1.226,2.464L454.159,89a3.1,3.1,0,0,1-3.728,0L434.939,77.3a3.089,3.089,0,0,1-1.227-2.464V61.365a.834.834,0,0,1,1.332-.67c3.756,2.789,14.3,10.625,16.745,12.443Z" transform="translate(-244.75 -38.806)" fill="#76b740" fill-rule="evenodd"/><path d="M363.146,54.119a1.467,1.467,0,0,0,.6-1.186V45.546h-9.395a3.089,3.089,0,0,1-1.658-.482L348.9,42.658l-3.8,2.406a3.084,3.084,0,0,1-1.656.482h-9.4V53.9a.624.624,0,0,1-.623.622h-2.492a.621.621,0,0,1-.622-.622v-9a3.092,3.092,0,0,1,3.09-3.089h9.854l3.982-2.525a3.1,3.1,0,0,1,3.314,0l3.982,2.525H364.4a3.092,3.092,0,0,1,3.092,3.089v9.707a1.869,1.869,0,0,1-.742,1.49L349.756,68.6a.536.536,0,0,1-.853-.43V65.224a1.465,1.465,0,0,1,.6-1.185ZM334.8,67.748a.466.466,0,0,0-.742.375V73.4a2.249,2.249,0,0,0,.895,1.8l12.6,9.506a2.25,2.25,0,0,0,2.711,0l12.6-9.506a2.253,2.253,0,0,0,.895-1.8V68.222a.466.466,0,0,0-.741-.377l-13,9.5a1.868,1.868,0,0,1-2.212-.005Zm13.6,5.389a.861.861,0,0,0,1.025,0l16.736-12.325a.834.834,0,0,1,1.329.671V74.838a3.089,3.089,0,0,1-1.23,2.462L350.767,89a3.1,3.1,0,0,1-3.728,0L331.547,77.3a3.089,3.089,0,0,1-1.227-2.464V61.365a.834.834,0,0,1,1.332-.67L348.4,73.138Z" transform="translate(-282.997 -38.806)" fill="#76b740" fill-rule="evenodd"/></g><rect width="67.725" height="14.577" rx="7.288" transform="translate(183.881 219.135)" fill="#76b740"/></g></svg>