<svg xmlns="http://www.w3.org/2000/svg" xmlns:xlink="http://www.w3.org/1999/xlink" width="300" height="300" viewBox="0 0 300 300"><defs><clipPath id="a"><rect width="300" height="300"/></clipPath><clipPath id="b"><path d="M273.729,117.342l5.91-21.529a7.023,7.023,0,0,1,6.773-5.163h49.411a7.023,7.023,0,0,1,6.773,5.164l5.9,21.493q4.653.605,9.3,1.368a5.011,5.011,0,0,1,4.177,5.224c-.382,6.781-1.111,19.718-1.55,27.523a6.832,6.832,0,0,1-6.822,6.447h-84.97a6.832,6.832,0,0,1-6.822-6.449c-.439-7.8-1.167-20.721-1.546-27.507a5.009,5.009,0,0,1,4.189-5.224Q269.1,117.942,273.729,117.342Z" transform="translate(-260.255 -90.65)" fill="none"/></clipPath><clipPath id="c"><path d="M361.824,156.839h-8.873a6.3,6.3,0,0,1-6.238-5.439c-.7-5.064-2.574-18.728-2.574-18.728l6.675-2.431-2.729-7.932,27.052-5.939,16.21-21.938a11.571,11.571,0,0,1,9.306-4.695h45.982a13.375,13.375,0,0,1,9.208,3.675L480.8,117.119a10.057,10.057,0,0,1,3.119,7.773c-.316,6.578-.9,18.679-1.246,25.952a6.3,6.3,0,0,1-6.29,5.995h-2.607a22.728,22.728,0,1,0-45.152,0h-21.65A22.743,22.743,0,0,0,380.6,131.785a21.644,21.644,0,0,0-18.037,16.1,22.714,22.714,0,0,0-.89,6.315,22.955,22.955,0,0,0,.151,2.639Z" transform="translate(-344.138 -89.737)" fill="none"/></clipPath></defs><g clip-path="url(#a)"><g transform="translate(18.952 55.563)"><rect width="22.329" height="35.315" rx="2.522" transform="translate(6.082 113.159)" fill="#149ade"/><rect width="24.373" height="35.315" rx="2.522" transform="translate(95.048 113.159)" fill="#149ade"/><path d="M273.729,117.342l5.91-21.529a7.023,7.023,0,0,1,6.773-5.163h49.411a7.023,7.023,0,0,1,6.773,5.164l5.9,21.493q4.653.605,9.3,1.368a5.011,5.011,0,0,1,4.177,5.224c-.382,6.781-1.111,19.718-1.55,27.523a6.832,6.832,0,0,1-6.822,6.447h-84.97a6.832,6.832,0,0,1-6.822-6.449c-.439-7.8-1.167-20.721-1.546-27.507a5.009,5.009,0,0,1,4.189-5.224Q269.1,117.942,273.729,117.342Z" transform="translate(-248.364 -23.223)" fill="#fff" fill-rule="evenodd"/><g transform="translate(11.891 67.427)"><g clip-path="url(#b)"><path d="M281.551,123.733a7.678,7.678,0,0,0-7.676-7.676h-13.62v12.124H279.81a1.743,1.743,0,0,0,1.741-1.741Z" transform="translate(-260.255 -82.448)" fill="#149ade" fill-rule="evenodd"/><path d="M324.7,132.42a2.518,2.518,0,0,0-2.519-2.517h-36.75a2.517,2.517,0,0,0-2.517,2.517v12.056H324.7Z" transform="translate(-252.94 -77.979)" fill="#149ade" fill-rule="evenodd"/><path d="M321.37,123.733a7.678,7.678,0,0,1,7.676-7.676h13.62v12.124H323.109a1.741,1.741,0,0,1-1.74-1.741Z" transform="translate(-240.526 -82.448)" fill="#149ade" fill-rule="evenodd"/></g></g><path d="M273.729,117.342l5.91-21.529a7.023,7.023,0,0,1,6.773-5.163h49.411a7.023,7.023,0,0,1,6.773,5.164l5.9,21.493q4.653.605,9.3,1.368a5.011,5.011,0,0,1,4.177,5.224c-.382,6.781-1.111,19.718-1.55,27.523a6.832,6.832,0,0,1-6.822,6.447h-84.97a6.832,6.832,0,0,1-6.822-6.449c-.439-7.8-1.167-20.721-1.546-27.507a5.009,5.009,0,0,1,4.189-5.224Q269.1,117.942,273.729,117.342Z" transform="translate(-248.364 -23.223)" fill="none" stroke="#565271" stroke-linejoin="round" stroke-width="2"/><path d="M337.944,109.609l-6.9-13.474,14.916,7.645a1.517,1.517,0,0,0,2.135-.885l5.142-21.725,2.323,9.813" transform="translate(-225.513 -26.284)" fill="none" stroke="#565271" stroke-linejoin="round" stroke-width="2"/><path d="M350.9,94.764l1.06,4.479a1.517,1.517,0,0,0,2.135.885l14.916-7.645-6.9,13.474" transform="translate(-219.101 -22.632)" fill="none" stroke="#565271" stroke-linejoin="round" stroke-width="2"/><path d="M335.432,113.089a1.833,1.833,0,0,1-1.777,2.287H278.186a1.833,1.833,0,0,1-1.775-2.287c1.028-4.024,3.143-12.31,4.136-16.2a2.793,2.793,0,0,1,2.7-2.1h45.337a2.791,2.791,0,0,1,2.7,2.1Z" transform="translate(-243.167 -21.887)" fill="#149ade" fill-rule="evenodd"/><path d="M281.388,124.539v-.823a7.659,7.659,0,0,0-7.659-7.659h-13.52" transform="translate(-248.379 -15.022)" fill="none" stroke="#565271" stroke-linejoin="round" stroke-width="2"/><path d="M321.332,124.539v-.823a7.659,7.659,0,0,1,7.659-7.659h13.52" transform="translate(-228.647 -15.022)" fill="none" stroke="#565271" stroke-linejoin="round" stroke-width="2"/><line x2="41.784" transform="translate(41.865 106.723)" fill="none" stroke="#565271" stroke-linejoin="round" stroke-width="2"/><line x2="262.647" transform="translate(0 148.473)" fill="none" stroke="#565271" stroke-linejoin="round" stroke-width="2"/><g transform="translate(122.853 66.219)"><g clip-path="url(#c)"><line x1="8.211" transform="translate(68.878 52.478)" fill="none" stroke="#565271" stroke-linejoin="round" stroke-width="2"/><line x1="11.098" transform="translate(0.96 52.478)" fill="none" stroke="#565271" stroke-linejoin="round" stroke-width="2"/><line x1="8.211" transform="translate(130.642 52.478)" fill="none" stroke="#565271" stroke-linejoin="round" stroke-width="2"/></g></g><path d="M361.824,156.839h-8.873a6.3,6.3,0,0,1-6.238-5.439c-.7-5.064-2.574-18.728-2.574-18.728l6.675-2.431-2.729-7.932,27.052-5.939,16.21-21.938a11.571,11.571,0,0,1,9.306-4.695h45.982a13.375,13.375,0,0,1,9.208,3.675L480.8,117.119a10.057,10.057,0,0,1,3.119,7.773c-.316,6.578-.9,18.679-1.246,25.952a6.3,6.3,0,0,1-6.29,5.995h-2.607a22.728,22.728,0,1,0-45.152,0h-21.65A22.743,22.743,0,0,0,380.6,131.785a21.644,21.644,0,0,0-18.037,16.1,22.714,22.714,0,0,0-.89,6.315,22.955,22.955,0,0,0,.151,2.639Z" transform="translate(-221.285 -23.518)" fill="none" stroke="#565271" stroke-linejoin="round" stroke-width="2"/><path d="M436.912,111.817,428.377,96.6a.147.147,0,0,0-.128-.074H389.674a.144.144,0,0,0-.123.067l-9.761,15.228Zm2.987-.085a1.834,1.834,0,0,1-1.6,2.73h-60a1.834,1.834,0,0,1-1.544-2.823l10.563-16.478a2.791,2.791,0,0,1,2.351-1.286h38.575A2.79,2.79,0,0,1,430.68,95.3Z" transform="translate(-210.848 -22.182)" fill="#565271" fill-rule="evenodd"/><line x2="27.016" y2="7.296" transform="translate(127.162 85.555)" fill="none" stroke="#565271" stroke-linejoin="round" stroke-width="2"/><line y1="26.25" transform="translate(209.993 68.862)" fill="none" stroke="#fff" stroke-linejoin="round" stroke-width="2"/><path d="M395.806,143.15a16.548,16.548,0,0,0-16.554-16.55h0a16.547,16.547,0,0,0-16.547,16.547h0a16.548,16.548,0,0,0,16.55,16.553h0A16.547,16.547,0,0,0,395.8,143.153Zm2.646,0a19.193,19.193,0,0,0-19.193-19.193h0a19.193,19.193,0,0,0-19.193,19.193h0a19.193,19.193,0,0,0,19.193,19.193h0a19.193,19.193,0,0,0,19.193-19.193Z" transform="translate(-216.144 -12.471)" fill="#565271" fill-rule="evenodd"/><path d="M368.492,146.513a11.378,11.378,0,0,0,8.045,3.332h0a11.379,11.379,0,0,0,11.379-11.378h0" transform="translate(-213.423 -7.788)" fill="none" stroke="#565271" stroke-linejoin="round" stroke-width="2"/><path d="M382.621,133.2a11.374,11.374,0,0,0-8.045-3.333h0" transform="translate(-211.46 -10.565)" fill="none" stroke="#565271" stroke-linejoin="round" stroke-width="2"/><path d="M446.306,143.15a16.548,16.548,0,0,0-16.552-16.55h0a16.546,16.546,0,0,0-16.547,16.549h0A16.547,16.547,0,0,0,429.758,159.7h0A16.548,16.548,0,0,0,446.3,143.154Zm2.646,0a19.193,19.193,0,0,0-19.193-19.193h0a19.193,19.193,0,0,0-19.193,19.193h0a19.193,19.193,0,0,0,19.193,19.193h0a19.193,19.193,0,0,0,19.193-19.193Z" transform="translate(-199.842 -12.471)" fill="#565271" fill-rule="evenodd"/><path d="M418.992,146.513a11.378,11.378,0,0,0,8.045,3.332h0a11.379,11.379,0,0,0,11.379-11.378h0" transform="translate(-197.121 -7.788)" fill="none" stroke="#565271" stroke-linejoin="round" stroke-width="2"/><path d="M433.121,133.2a11.374,11.374,0,0,0-8.045-3.333h0" transform="translate(-195.158 -10.565)" fill="none" stroke="#565271" stroke-linejoin="round" stroke-width="2"/><path d="M317,54.463a1.414,1.414,0,0,0,.583-1.144V46.185h-9.072a2.988,2.988,0,0,1-1.6-.464L303.244,43.4l-3.664,2.323a2.993,2.993,0,0,1-1.6.464h-9.072v8.072a.6.6,0,0,1-.6.6h-2.4a.6.6,0,0,1-.6-.6v-8.7a2.983,2.983,0,0,1,2.986-2.982H297.8l3.845-2.438a2.989,2.989,0,0,1,3.2,0l3.845,2.438h9.51a2.983,2.983,0,0,1,2.986,2.982v9.375a1.8,1.8,0,0,1-.716,1.438L304.07,68.44a.516.516,0,0,1-.823-.415V65.186a1.415,1.415,0,0,1,.582-1.144C306.144,62.358,314.68,56.148,317,54.463ZM289.63,67.624a.451.451,0,0,0-.718.362v5.092a2.175,2.175,0,0,0,.864,1.734l12.163,9.179a2.173,2.173,0,0,0,2.618,0l12.163-9.179a2.175,2.175,0,0,0,.864-1.734v-5a.45.45,0,0,0-.716-.364l-12.555,9.17a1.806,1.806,0,0,1-2.138,0s-9.788-7.217-12.549-9.255Zm13.129,5.2a.833.833,0,0,0,.991,0l16.16-11.9a.8.8,0,0,1,1.283.648v12.9A2.983,2.983,0,0,1,320,76.849l-14.96,11.29a2.99,2.99,0,0,1-3.6,0l-14.96-11.29a2.983,2.983,0,0,1-1.185-2.38V61.459a.807.807,0,0,1,1.287-.647Z" transform="translate(-240.279 -39.678)" fill="#76b740" fill-rule="evenodd"/></g><rect width="65.397" height="14.075" rx="7.037" transform="translate(186.468 217.173)" fill="#76b740"/></g></svg>